<?xml version="1.0" standalone="no"?>
<!DOCTYPE svg PUBLIC "-//W3C//DTD SVG 1.1//EN" "http://www.w3.org/Graphics/SVG/1.1/DTD/svg11.dtd">
<svg xmlns="http://www.w3.org/2000/svg" id="INFOS" viewBox="0 0 113.39 113.39" width="113.38999938964844" height="113.38999938964844">
  <defs>
    <style>
      .cls-1 {
        fill: #e64f2d;
      }

      .cls-2 {
        fill: #b9b9b9;
      }

      .cls-3 {
        fill: #646565;
      }

      .cls-4 {
        fill: #3c3c3c;
      }

      .cls-5 {
        fill: none;
        stroke: #646565;
        stroke-linecap: round;
        stroke-linejoin: round;
        stroke-width: 2px;
      }
    </style>
  </defs>
  <path class="cls-4" d="m47.42,55.85c-2.7,0-5.4,0-8.1.01-1.35,0-2.7,0-4.05.02-.69,0-1.38,0-2.07.01-.42,0-1.22-.08-1.36.48-.19.41-.11.86-.13,1.29-.09,2.18.04,4.34.5,6.48.14,1.22.46,2.41.85,3.57,2.99,9.02,8.85,15.43,17.59,19.18.36.16.47.36.47.74-.02,1.03-.01,2.07,0,3.11,0,.71.3,1.03,1.01,1.03,6.81,0,13.61,0,20.42,0,.76,0,1.02-.28,1.02-1.06,0-1.04.01-2.07,0-3.11,0-.35.1-.55.44-.69,4.31-1.77,8.05-4.36,11.14-7.85,5.57-6.28,8.17-13.62,7.82-22-.02-.54-.17-1-.74-1.17-.35-.1-.73-.06-1.1-.03-1.76.14-3.56,0-5.32-.01l-21.01.02c-5.79-.02-11.57-.01-17.36-.01m-14.27.44s0,0-.02,0c0,0,0,0,.02,0h0Zm47.02-.47"/>
  <polygon class="cls-4" points="63.39 37.76 63.39 37.76 63.39 37.76 63.39 37.76"/>
  <g>
    <path class="cls-4" d="m49.11,52.34c.08.05.16.26.25.31-.31-.11-.63-.13-.98-.1-2.86.26-5.13-1.12-6.37-3.72-1.15-2.42-1.24-4.9-.64-7.45.63-2.66,1.7-5.15,3.01-7.54.14-.26.34-.43.65-.4.3.03.43.24.52.51.26.81.81,1.41,1.44,1.95,1.23,1.07,2.65,1.87,3.95,2.84.06.04.11.06.17.06-.03.02-.06.03-.09.05-.15.09-.3.19-.46.28-.14.08-.26.19-.39.28-.12.08-.25.13-.37.19.12-.1-.71,12.33-.72,12.21,0-.21.02.54.02.54Z"/>
    <path class="cls-3" d="m60.93,37.3c-.13-.27-.36-.35-.64-.35-.61.02-1.23.05-1.84.09s-1.24.12-1.85.21-1.23.2-1.84.34-1.2.31-1.79.5c-.29.1-.59.2-.87.32-.14.06-.29.12-.43.18-.27.12-.55.22-.81.35-.27.13-.53.28-.78.45s-.48.36-.72.55c-.28.21-.53.44-.77.68-.4.4-.76.84-1.09,1.3-.11.16-.22.31-.32.47s-.19.33-.3.48c0,0-.34.45-.71,1.65-.33,1.06-.4,2.21-.19,3.3.22,1.09.72,2.09,1.38,2.98.18.24.39.44.6.65.13.13.26.26.39.38.18.16.38.31.56.46.1.08.19.16.29.23.19.14.42.23.62.34.22.12.47.19.71.26,2.94.86,6.41-.68,7.83-3.45.44-.85.66-1.77.88-2.69.17-.73.2-1.47.28-2.21.12-1.13.18-2.28.28-3.41.05-.57.09-1.14.23-1.7.11-.45.29-.89.51-1.3.19-.34.59-.66.39-1.08Z"/>
    <path class="cls-4" d="m50.08,53.9c.07.04.14.1.21.11l-.21-.11Z"/>
    <path class="cls-2" d="m51.86,51.76c-.1-.49-.16-.97-.21-1.46-.14-1.59.07-3.11.98-4.48.35-.54.8-.99,1.24-1.44.36-.36.39-.76.1-1.07-.27-.28-.7-.27-1.05.04-1.33,1.18-2.16,2.65-2.51,4.38-.24,1.21-.22,2.43-.03,3.64.02.11.25,1.65-.25,1.65-.02,0,1.12.44,2.26.36-.25-.1-.53-1.57-.54-1.62Z"/>
    <path class="cls-2" d="m46.83,43.05c-.32-.53-.53-1.18-.62-1.79-.02-.12-.02-.23-.04-.35-.06-.39-.31-.6-.65-.56-.32.03-.54.29-.52.66.03.63.16,1.23.39,1.82.18.46.41.9.69,1.31.09.14.13.26.08.43l.67-1.52Z"/>
  </g>
  <path class="cls-1" d="m79.9,55.85c-.62-.02-.95-.02-.99-.14,0,0,0,0,0,0-.03-.1.1-.3.36-.73.13-.21.3-.5.43-.71,1.18-1.88,2.2-3.82,4.06-5.15.81-.58,1.63-1.14,2.41-1.76,4.04-3.18,4.63-8.29,1.78-11.96-2.91-3.76-8.37-4.16-11.86-1.08-1.94,1.71-2.76,3.95-2.99,6.46-.16,1.81-.32,3.61-1.1,5.31-1.47,3.22-3.38,6.47-5.9,8.99-.51.51-.9.78-1.65.78h15.44Z"/>
  <line class="cls-5" x1="63.95" y1="86.11" x2="51.83" y2="86.11"/>
  <g>
    <path class="cls-1" d="m28.27,89.67c-.09-.11-.12-.16-.16-.2-2.33-1.96-3.77-4.5-4.74-7.34-.59-1.72-.97-3.48-1.1-5.3-.07-.91.46-1.49,1.38-1.45,3.46.15,6.85.72,10.12,1.91,1.57,3.53,4.46,12.3,4.46,12.3l-9.96.08Z"/>
    <path class="cls-1" d="m45.73,89.68s3.02-8.81,4.59-12.37c3.27-1.21,6.65-1.78,10.12-1.93.92-.04,1.45.54,1.38,1.47-.13,1.83-.51,3.61-1.1,5.34-.97,2.86-2.41,5.42-4.74,7.4-.04.04-.07.09-.16.2l-10.09-.1Z"/>
    <path class="cls-1" d="m37.24,89.58c-.27-.23-.54-.45-.81-.68-2.62-2.33-3.87-5.2-3.35-8.73,0,0,.23-1.66.88-3.08.96-2.37,2.39-4.45,4.08-6.34.99-1.11,2.07-2.15,3.15-3.18.64-.62,1.27-.6,1.94,0,2.75,2.46,5.12,5.21,6.77,8.53.22.43.4.88.61,1.33.33.74.71,2.75.71,2.75.24,1.59.13,3.15-.44,4.66-.7,1.85-1.92,3.3-3.45,4.52-.1.08-.2.17-.37.32"/>
    <path class="cls-3" d="m63.65,91.75H21.21c-.66,0-1.2-.54-1.2-1.2s.54-1.2,1.2-1.2h42.44c.66,0,1.2.54,1.2,1.2s-.54,1.2-1.2,1.2Z"/>
  </g>
</svg>