<?xml version="1.0" standalone="no"?>
<!DOCTYPE svg PUBLIC "-//W3C//DTD SVG 1.1//EN" "http://www.w3.org/Graphics/SVG/1.1/DTD/svg11.dtd">
<svg xmlns="http://www.w3.org/2000/svg" xmlns:xlink="http://www.w3.org/1999/xlink" version="1.1" x="0px" y="0px" viewBox="0 0 113.4 113.4" style="enable-background:new 0 0 113.4 113.4;" xml:space="preserve" width="113.4000015258789" height="113.4000015258789">
<style type="text/css">
	.st0{fill:#E64F2D;}
	.st1{fill:#B9B9B9;}
	.st2{fill:#7C7C7C;}
	.st3{fill:#3C3C3C;}
	.st4{fill:#FFFFFF;}
	.st5{fill:none;}
	.st6{fill:#E6E7E8;}
	.st7{fill:#ED5C38;}
	.st8{fill:none;stroke:#FFFFFF;stroke-width:2;stroke-miterlimit:10;}
	.st9{fill:#B88337;}
	.st10{fill:#E4E4E3;}
	.st11{fill:#F15B38;}
	.st12{fill:none;stroke:#414042;stroke-width:0.6124;stroke-miterlimit:10;}
	.st13{fill:#D6D7D6;}
	.st14{fill:#CFD0D1;}
	.st15{fill:#424143;}
	.st16{fill:#E5E3E2;}
	.st17{fill:#646565;}
	.st18{fill:#DFDFDE;}
	.st19{fill:#D5D6D5;}
	.st20{fill:none;stroke:#E6E7E8;stroke-width:1.2332;stroke-linecap:round;stroke-miterlimit:10;}
	.st21{fill:none;stroke:#E64F2D;stroke-width:6.1658;stroke-miterlimit:10;}
	.st22{fill-rule:evenodd;clip-rule:evenodd;fill:#E64F2D;}
	.st23{fill:#414042;}
	.st24{fill:#828080;}
	.st25{fill:#44423D;}
	.st26{fill:#B1B3B6;}
	.st27{fill:#77787B;}
	.st28{clip-path:url(#SVGID_00000010281038671837558430000004411362916142991489_);}
	.st29{fill:none;stroke:#414042;stroke-width:1.4339;stroke-linecap:round;stroke-miterlimit:10;}
	.st30{fill:#494949;}
	.st31{fill:#F86767;}
	.st32{clip-path:url(#SVGID_00000124162452071352534720000015170189542346530473_);fill:#3C3C3C;}
	.st33{fill:none;stroke:#B1B3B6;stroke-width:2.1048;stroke-miterlimit:10;}
	.st34{fill:none;stroke:#FFFFFF;stroke-width:2.1048;stroke-miterlimit:10;}
	.st35{fill:#F15A38;}
	.st36{fill:none;stroke:#414042;stroke-width:1.0386;stroke-linecap:round;stroke-miterlimit:10;}
	.st37{fill-rule:evenodd;clip-rule:evenodd;fill:#B9B9B9;}
	.st38{fill:#E7512C;}
	.st39{fill:#E2E2E1;}
	.st40{fill:#D1D3D4;}
	.st41{fill:#646464;}
	.st42{fill:#BCBCBC;}
	.st43{fill:#E94F2D;}
	.st44{fill-rule:evenodd;clip-rule:evenodd;fill:#414042;}
	.st45{fill-rule:evenodd;clip-rule:evenodd;fill:#77787B;}
	.st46{fill:#E7E6E6;}
</style>
<g id="ICONS">
	<path class="st3" d="M76.9,21.3c-10,0-18.3,8.1-18.3,18.2s8.1,18.2,18.2,18.2S95,49.5,95,39.4C95.1,29.4,87,21.3,76.9,21.3z"/>
	<path class="st1" d="M67.3,68.2h0.6c2.3,0.2,4.1-1.6,4-3.9c-0.1-2.2-2-3.8-4.1-3.8l-12.2,0c-0.8,0-1.2-0.6-1.1-1.3   c0.9-5.4,2-7.2,2.5-12.9c0.5-5.4-7.1-6.3-8.2-1.4c-2.1,9.3-9.8,15.5-12.3,17.4l0,0c-1.2,0.8-3.3,1.4-4.7,1.2L23.1,63v24.6h11.6   c0.7,0,1.4,0.2,2.1,0.5c0,0,0,0,0,0c2.7,1.2,5.8,3.8,15,3.8l14.1,0c1.9,0,3.6-1.2,4-3c0.6-2.5-1.4-4.9-3.8-4.9h0.4   c2,0,3.8-1.5,4-3.4c0.3-2.4-1.5-4.5-3.9-4.5h0.4c2,0,3.8-1.5,4-3.4C71.5,70.3,69.6,68.2,67.3,68.2z"/>
	<path class="st3" d="M30,63H18.4v24.6h13.5V65C32,63.9,31.1,63,30,63z"/>
	<path class="st0" d="M74.5,46.8c0,0,14.4-5.9,14.4-18.9c0,0-6.2,0-10.2,5C74.7,38,74.5,46.8,74.5,46.8z"/>
	<path class="st0" d="M74.6,46.8c0,0,2.2-9.2-4.9-15.5c0,0-2.9,4-1.7,9.3C69.1,45.8,74.6,46.8,74.6,46.8z"/>
	<path class="st2" d="M76.8,57.6c0.6,0,1.1,0,1.7-0.1l-2.9-11.2h-2.5l-2.6,10.1C72.4,57.2,74.6,57.6,76.8,57.6z"/>
</g>
<g id="INFOS">
</g>
</svg>