<?xml version="1.0" standalone="no"?>
<!DOCTYPE svg PUBLIC "-//W3C//DTD SVG 1.1//EN" "http://www.w3.org/Graphics/SVG/1.1/DTD/svg11.dtd">
<svg xmlns="http://www.w3.org/2000/svg" xmlns:xlink="http://www.w3.org/1999/xlink" version="1.1" x="0px" y="0px" viewBox="0 0 113.4 113.4" style="enable-background:new 0 0 113.4 113.4;" xml:space="preserve" width="113.4000015258789" height="113.4000015258789">
<style type="text/css">
	.st0{fill:#E64F2D;}
	.st1{fill:#B9B9B9;}
	.st2{fill:#7C7C7C;}
	.st3{fill:#3C3C3C;}
	.st4{fill:#FFFFFF;}
	.st5{fill:none;}
	.st6{fill:#E6E7E8;}
	.st7{fill:#ED5C38;}
	.st8{fill:none;stroke:#FFFFFF;stroke-width:2;stroke-miterlimit:10;}
	.st9{fill:#B88337;}
	.st10{fill:#E4E4E3;}
	.st11{fill:#F15B38;}
	.st12{fill:none;stroke:#414042;stroke-width:0.6124;stroke-miterlimit:10;}
	.st13{fill:#D6D7D6;}
	.st14{fill:#CFD0D1;}
	.st15{fill:#424143;}
	.st16{fill:#E5E3E2;}
	.st17{fill:#646565;}
	.st18{fill:#DFDFDE;}
	.st19{fill:#D5D6D5;}
	.st20{fill:none;stroke:#E6E7E8;stroke-width:1.2332;stroke-linecap:round;stroke-miterlimit:10;}
	.st21{fill:none;stroke:#E64F2D;stroke-width:6.1658;stroke-miterlimit:10;}
	.st22{fill-rule:evenodd;clip-rule:evenodd;fill:#E64F2D;}
	.st23{fill:#414042;}
	.st24{fill:#828080;}
	.st25{fill:#44423D;}
	.st26{fill:#B1B3B6;}
	.st27{fill:#77787B;}
	.st28{clip-path:url(#SVGID_00000027583012831061322300000003916566458800854971_);}
	.st29{fill:none;stroke:#414042;stroke-width:1.4339;stroke-linecap:round;stroke-miterlimit:10;}
	.st30{fill:#494949;}
	.st31{fill:#F86767;}
	.st32{clip-path:url(#SVGID_00000094602150041686890120000005649623579733623477_);fill:#3C3C3C;}
	.st33{fill:none;stroke:#B1B3B6;stroke-width:2.1048;stroke-miterlimit:10;}
	.st34{fill:none;stroke:#FFFFFF;stroke-width:2.1048;stroke-miterlimit:10;}
	.st35{fill:#F15A38;}
	.st36{fill:none;stroke:#414042;stroke-width:1.0386;stroke-linecap:round;stroke-miterlimit:10;}
	.st37{fill-rule:evenodd;clip-rule:evenodd;fill:#B9B9B9;}
	.st38{fill:#E7512C;}
	.st39{fill:#E2E2E1;}
	.st40{fill:#D1D3D4;}
	.st41{fill:#646464;}
	.st42{fill:#BCBCBC;}
	.st43{fill:#E94F2D;}
	.st44{fill-rule:evenodd;clip-rule:evenodd;fill:#414042;}
	.st45{fill-rule:evenodd;clip-rule:evenodd;fill:#77787B;}
	.st46{fill:#E7E6E6;}
</style>
<g id="ICONS">
</g>
<g id="INFOS">
	<g>
		<path class="st27" d="M39.9,21.6L39.9,21.6c2.8,0,5,2.3,5,5v7.6H34.8v-7.6C34.8,23.9,37,21.6,39.9,21.6z"/>
		<path class="st27" d="M73.6,21.6L73.6,21.6c2.8,0,5,2.3,5,5v7.6H68.5v-7.6C68.5,23.9,70.8,21.6,73.6,21.6z"/>
		<path class="st40" d="M24.7,31.7h54.5c5.2,0,9.5,4.3,9.5,9.5v38.6c0,6.9-5.6,12.6-12.6,12.6H24.7V31.7z"/>
		<polygon class="st26" points="24.7,46.8 88.7,50.6 88.7,46.8   "/>
		<rect x="24.7" y="31.7" class="st23" width="64.1" height="15.1"/>
		<rect x="51.6" y="56.1" class="st35" width="10.1" height="10.1"/>
		<rect x="68.5" y="56.1" class="st35" width="10.1" height="10.1"/>
		<rect x="34.8" y="56.1" class="st27" width="10.1" height="10.1"/>
		<rect x="51.6" y="73" class="st27" width="10.1" height="10.1"/>
		<rect x="68.5" y="73" class="st27" width="10.1" height="10.1"/>
		<rect x="34.8" y="73" class="st27" width="10.1" height="10.1"/>
	</g>
</g>
</svg>