<?xml version="1.0" standalone="no"?>
<!DOCTYPE svg PUBLIC "-//W3C//DTD SVG 1.1//EN" "http://www.w3.org/Graphics/SVG/1.1/DTD/svg11.dtd">
<svg xmlns="http://www.w3.org/2000/svg" xmlns:xlink="http://www.w3.org/1999/xlink" version="1.1" x="0px" y="0px" viewBox="0 0 113.4 113.4" style="enable-background:new 0 0 113.4 113.4;" xml:space="preserve" width="113.4000015258789" height="113.4000015258789">
<style type="text/css">
	.st0{fill:#E64F2D;}
	.st1{fill:#B9B9B9;}
	.st2{fill:#7C7C7C;}
	.st3{fill:#3C3C3C;}
	.st4{fill:#FFFFFF;}
	.st5{fill:none;}
	.st6{fill:#E6E7E8;}
	.st7{fill:#ED5C38;}
	.st8{fill:none;stroke:#FFFFFF;stroke-width:2;stroke-miterlimit:10;}
	.st9{fill:#B88337;}
	.st10{fill:#E4E4E3;}
	.st11{fill:#F15B38;}
	.st12{fill:none;stroke:#414042;stroke-width:0.6124;stroke-miterlimit:10;}
	.st13{fill:#D6D7D6;}
	.st14{fill:#CFD0D1;}
	.st15{fill:#424143;}
	.st16{fill:#E5E3E2;}
	.st17{fill:#646565;}
	.st18{fill:#DFDFDE;}
	.st19{fill:#D5D6D5;}
	.st20{fill:none;stroke:#E6E7E8;stroke-width:1.2332;stroke-linecap:round;stroke-miterlimit:10;}
	.st21{fill:none;stroke:#E64F2D;stroke-width:6.1658;stroke-miterlimit:10;}
	.st22{fill-rule:evenodd;clip-rule:evenodd;fill:#E64F2D;}
	.st23{fill:#414042;}
	.st24{fill:#828080;}
	.st25{fill:#44423D;}
	.st26{fill:#B1B3B6;}
	.st27{fill:#77787B;}
	.st28{clip-path:url(#SVGID_00000060011580956170662880000001485525029239947948_);}
	.st29{fill:none;stroke:#414042;stroke-width:1.4339;stroke-linecap:round;stroke-miterlimit:10;}
	.st30{fill:#494949;}
	.st31{fill:#F86767;}
	.st32{clip-path:url(#SVGID_00000018954761798808529480000017393131410629645953_);fill:#3C3C3C;}
	.st33{fill:none;stroke:#B1B3B6;stroke-width:2.1048;stroke-miterlimit:10;}
	.st34{fill:none;stroke:#FFFFFF;stroke-width:2.1048;stroke-miterlimit:10;}
	.st35{fill:#F15A38;}
	.st36{fill:none;stroke:#414042;stroke-width:1.0386;stroke-linecap:round;stroke-miterlimit:10;}
	.st37{fill-rule:evenodd;clip-rule:evenodd;fill:#B9B9B9;}
	.st38{fill:#E7512C;}
	.st39{fill:#E2E2E1;}
	.st40{fill:#D1D3D4;}
	.st41{fill:#646464;}
	.st42{fill:#BCBCBC;}
	.st43{fill:#E94F2D;}
	.st44{fill-rule:evenodd;clip-rule:evenodd;fill:#414042;}
	.st45{fill-rule:evenodd;clip-rule:evenodd;fill:#77787B;}
	.st46{fill:#E7E6E6;}
</style>
<g id="ICONS">
	<g>
		<path class="st37" d="M77.7,36.4c-1.3,1.3-3.4,1.3-4.7,0l-8.9-9.1H31.2c-3.3,0-5.9,2.6-5.9,5.9v47.5c0,3.3,2.6,5.9,5.9,5.9h48.3    c3.3,0,5.9-2.6,5.9-5.9V33.1c0-1.3-0.4-2.4-1.1-3.4L77.7,36.4z"/>
		<g>
			<path class="st3" d="M46.7,54.7c1.7,0,3.4-2.5,3.2-4.7c-0.1-2.3-2.1-3.9-4.9-3.9c-1.9,0-3.5,0.7-5.4,2.3l-2.2-3.5     c2.9-2.3,5.7-3.4,9-3.4c5.3,0,9.1,3.2,9.1,7.5c0,3.2-1.1,4.9-4.2,6.9c3.8,1.4,5.6,3.9,5.6,7.6c0,5.2-4.7,9.2-10.6,9.2     c-3.9,0-7.1-1.1-10.1-3.6l2.2-3.9c2,1.9,4.3,2.9,6.9,3c3.1,0.1,5.5-1.9,5.5-4.7c0-1.6-1-3.2-2.5-4c-0.9-0.5-2.3-0.7-4.1-0.7h-2.8     v-4L46.7,54.7L46.7,54.7z"/>
			<path class="st3" d="M72.4,72h-5.5V48.5c-2.8,1.8-5,3-7.3,3.9l-1.8-3.5c2.8-1.3,4.3-2.1,6.7-3.5c0.5-0.3,2.3-1.4,4.9-3l0.4-0.3     l0.5-0.3l0.4-0.3l1.7,0.8L72.4,72z"/>
		</g>
		<path class="st38" d="M75.4,22.2l-4.1-4.1c-0.9-0.9-2.3-0.9-3.2,0l-2.8,2.8c-0.9,0.9-0.9,2.3,0,3.2l8.4,8.4c0.9,0.9,2.3,0.9,3.2,0    L87.4,22c0.9-0.9,0.9-2.3,0-3.2l-2.8-2.8c-0.9-0.9-2.3-0.9-3.2,0L75.4,22.2z"/>
	</g>
</g>
<g id="INFOS">
</g>
</svg>