<?xml version="1.0" standalone="no"?>
<!DOCTYPE svg PUBLIC "-//W3C//DTD SVG 1.1//EN" "http://www.w3.org/Graphics/SVG/1.1/DTD/svg11.dtd">
<svg xmlns="http://www.w3.org/2000/svg" xmlns:xlink="http://www.w3.org/1999/xlink" version="1.1" x="0px" y="0px" viewBox="0 0 113.4 113.4" style="enable-background:new 0 0 113.4 113.4;" xml:space="preserve" width="113.4000015258789" height="113.4000015258789">
<style type="text/css">
	.st0{fill:#E64F2D;}
	.st1{fill:#B9B9B9;}
	.st2{fill:#7C7C7C;}
	.st3{fill:#3C3C3C;}
	.st4{fill:#FFFFFF;}
	.st5{fill:none;}
	.st6{fill:#E6E7E8;}
	.st7{fill:#ED5C38;}
	.st8{fill:none;stroke:#FFFFFF;stroke-width:2;stroke-miterlimit:10;}
	.st9{fill:#B88337;}
	.st10{fill:#E4E4E3;}
	.st11{fill:#F15B38;}
	.st12{fill:none;stroke:#414042;stroke-width:0.6124;stroke-miterlimit:10;}
	.st13{fill:#D6D7D6;}
	.st14{fill:#CFD0D1;}
	.st15{fill:#424143;}
	.st16{fill:#E5E3E2;}
	.st17{fill:#646565;}
	.st18{fill:#DFDFDE;}
	.st19{fill:#D5D6D5;}
	.st20{fill:none;stroke:#E6E7E8;stroke-width:1.2332;stroke-linecap:round;stroke-miterlimit:10;}
	.st21{fill:none;stroke:#E64F2D;stroke-width:6.1658;stroke-miterlimit:10;}
	.st22{fill-rule:evenodd;clip-rule:evenodd;fill:#E64F2D;}
	.st23{fill:#414042;}
	.st24{fill:#828080;}
	.st25{fill:#44423D;}
	.st26{fill:#B1B3B6;}
	.st27{fill:#77787B;}
	.st28{clip-path:url(#SVGID_00000050626876555179142900000015629210365564167567_);}
	.st29{fill:none;stroke:#414042;stroke-width:1.4339;stroke-linecap:round;stroke-miterlimit:10;}
	.st30{fill:#494949;}
	.st31{fill:#F86767;}
	.st32{clip-path:url(#SVGID_00000181059580514255844420000005469493003586195370_);fill:#3C3C3C;}
	.st33{fill:none;stroke:#B1B3B6;stroke-width:2.1048;stroke-miterlimit:10;}
	.st34{fill:none;stroke:#FFFFFF;stroke-width:2.1048;stroke-miterlimit:10;}
	.st35{fill:#F15A38;}
	.st36{fill:none;stroke:#414042;stroke-width:1.0386;stroke-linecap:round;stroke-miterlimit:10;}
	.st37{fill-rule:evenodd;clip-rule:evenodd;fill:#B9B9B9;}
	.st38{fill:#E7512C;}
	.st39{fill:#E2E2E1;}
	.st40{fill:#D1D3D4;}
	.st41{fill:#646464;}
	.st42{fill:#BCBCBC;}
	.st43{fill:#E94F2D;}
	.st44{fill-rule:evenodd;clip-rule:evenodd;fill:#414042;}
	.st45{fill-rule:evenodd;clip-rule:evenodd;fill:#77787B;}
	.st46{fill:#E7E6E6;}
</style>
<g id="ICONS">
</g>
<g id="INFOS">
	<path class="st3" d="M44.1,83.3L43,87.7l10.2,2.8l1.2-4.4c1.6,0.1,3.1,0.1,4.6,0l1.2,4.4l10.2-2.8l-1.2-4.4c1.3-0.7,2.7-1.5,4-2.3   l3.2,3.2l7.6-7.6l-3.2-3.2c0.9-1.3,1.6-2.7,2.3-4l4.4,1.2l2.8-10.2l-4.4-1.2c0.1-1.6,0.1-3.1,0-4.6l-9.3,1.2   c0.3,5.4-1.6,11-5.8,15.1c-7.8,7.8-20.4,7.8-28.1,0s-7.7-20.3,0.1-28.1c4.1-4.1,9.7-6.1,15.1-5.8l1.2-9.3c-1.6-0.1-3.1-0.1-4.6,0   l-1.2-4.4L43,26.1l1.2,4.4c-1.3,0.7-2.7,1.5-4,2.3L37,29.6l-7.4,7.7l3.2,3.2c-0.9,1.3-1.6,2.7-2.3,4l-4.4-1.2l-2.8,10.2l4.2,1.2   c-0.1,1.6-0.1,3.1,0,4.6l-4.4,1.2L26,70.6l4.4-1.2c0.7,1.3,1.5,2.7,2.3,4l-3.1,3.3l7.6,7.6l3.2-3.2C41.5,81.9,42.8,82.7,44.1,83.3z   "/>
	<polygon class="st35" points="81.1,40.1 75.5,45.6 52.9,49.5 43.6,58.8 47.3,62.6 54.9,55.1 77.3,51.4 84.9,43.8 87.7,46.6    89.6,35.3 78.3,37.3  "/>
	<polygon class="st26" points="76.4,24.1 63.3,37.3 61.9,45.2 68,44.2 69,39.1 80.1,27.9 83,30.6 84.9,19.4 73.6,21.2  "/>
	<polygon class="st26" points="52,67.3 55.8,71 65.1,61.6 66.1,55.9 59.9,56.9 59.5,59.7  "/>
</g>
</svg>