<?xml version="1.0" standalone="no"?>
<!DOCTYPE svg PUBLIC "-//W3C//DTD SVG 1.1//EN" "http://www.w3.org/Graphics/SVG/1.1/DTD/svg11.dtd">
<svg xmlns="http://www.w3.org/2000/svg" xmlns:xlink="http://www.w3.org/1999/xlink" version="1.1" x="0px" y="0px" viewBox="0 0 113.4 113.4" style="enable-background:new 0 0 113.4 113.4;" xml:space="preserve" width="113.4000015258789" height="113.4000015258789">
<style type="text/css">
	.st0{fill:#E64F2D;}
	.st1{fill:#B9B9B9;}
	.st2{fill:#7C7C7C;}
	.st3{fill:#3C3C3C;}
	.st4{fill:#FFFFFF;}
	.st5{fill:none;}
	.st6{fill:#E6E7E8;}
	.st7{fill:#ED5C38;}
	.st8{fill:none;stroke:#FFFFFF;stroke-width:2;stroke-miterlimit:10;}
	.st9{fill:#B88337;}
	.st10{fill:#E4E4E3;}
	.st11{fill:#F15B38;}
	.st12{fill:none;stroke:#414042;stroke-width:0.6124;stroke-miterlimit:10;}
	.st13{fill:#D6D7D6;}
	.st14{fill:#CFD0D1;}
	.st15{fill:#424143;}
	.st16{fill:#E5E3E2;}
	.st17{fill:#646565;}
	.st18{fill:#DFDFDE;}
	.st19{fill:#D5D6D5;}
	.st20{fill:none;stroke:#E6E7E8;stroke-width:1.2332;stroke-linecap:round;stroke-miterlimit:10;}
	.st21{fill:none;stroke:#E64F2D;stroke-width:6.1658;stroke-miterlimit:10;}
	.st22{fill-rule:evenodd;clip-rule:evenodd;fill:#E64F2D;}
	.st23{fill:#414042;}
	.st24{fill:#828080;}
	.st25{fill:#44423D;}
	.st26{fill:#B1B3B6;}
	.st27{fill:#77787B;}
	.st28{clip-path:url(#SVGID_00000147904047401322231980000005723637632524292740_);}
	.st29{fill:none;stroke:#414042;stroke-width:1.4339;stroke-linecap:round;stroke-miterlimit:10;}
	.st30{fill:#494949;}
	.st31{fill:#F86767;}
	.st32{clip-path:url(#SVGID_00000048488509709498687300000001292582157020586170_);fill:#3C3C3C;}
	.st33{fill:none;stroke:#B1B3B6;stroke-width:2.1048;stroke-miterlimit:10;}
	.st34{fill:none;stroke:#FFFFFF;stroke-width:2.1048;stroke-miterlimit:10;}
	.st35{fill:#F15A38;}
	.st36{fill:none;stroke:#414042;stroke-width:1.0386;stroke-linecap:round;stroke-miterlimit:10;}
	.st37{fill-rule:evenodd;clip-rule:evenodd;fill:#B9B9B9;}
	.st38{fill:#E7512C;}
	.st39{fill:#E2E2E1;}
	.st40{fill:#D1D3D4;}
	.st41{fill:#646464;}
	.st42{fill:#BCBCBC;}
	.st43{fill:#E94F2D;}
	.st44{fill-rule:evenodd;clip-rule:evenodd;fill:#414042;}
	.st45{fill-rule:evenodd;clip-rule:evenodd;fill:#77787B;}
	.st46{fill:#E7E6E6;}
</style>
<g id="ICONS">
	<g>
		<polygon class="st3" points="68.9,44.1 61.4,41.3 48.5,55.4 48.5,73.6 63.2,73.6 78.8,57.4 83.6,49.3   "/>
		<path class="st3" d="M48,54.3C47.5,53.4,38,45.3,38,45.3l-12.4-3.1l-11,5.1l-3.4,10.9l29.2,8.4L48,54.3z"/>
		<polygon class="st2" points="29.6,49.9 27,62.7 21.9,61.3   "/>
		<polygon class="st3" points="38,32 42.8,58.8 57.2,62.1 69.3,51.7 60.5,36.8 61.2,28.7 51.9,21.2 46.6,21.2   "/>
		<path class="st3" d="M70.7,60c-1,0-13.1,3-13.1,3L45.4,73.4l-4.8,8.1l11.9,10.9l23.7-18.9L70.7,60z"/>
		<polygon class="st3" points="63,44.3 68,37.5 80.1,30.5 92.2,32.5 92.2,52.4 84.1,54.7 71,57.7   "/>
		<polygon class="st3" points="74.8,51.8 84,51.8 93.1,56.6 100,56.6 102.2,71 91.6,74.3 68.6,74.3 64.1,65   "/>
		<polygon class="st3" points="43.5,54.7 36.4,51.1 22,63.8 20,81.8 34.6,83.4 51.9,69.1 57.6,61.6   "/>
		<polygon class="st2" points="56.4,38.1 40.7,47.3 39.6,41.2   "/>
		<polygon class="st2" points="54.9,45.7 42.2,55.7 41.3,50.7   "/>
		<polygon class="st2" points="43.8,75.8 34.2,66.8 38.6,80.1   "/>
		<polygon class="st2" points="82.7,30.9 79.5,44.1 87.5,31.7   "/>
		<polygon class="st2" points="92.2,49.5 83.5,47.6 87.8,53.7 92.2,52.4   "/>
		<polygon class="st2" points="67.4,58.4 58.7,56.5 63.1,62.5 67.4,61.3   "/>
		<polygon class="st2" points="59.2,69.9 65,82.3 60.6,85.8   "/>
		<polygon class="st2" points="85.3,52.5 80.3,65.6 89.4,54.7   "/>
		<polygon class="st2" points="88.6,63.1 83.2,74.3 88.6,74.3   "/>
	</g>
</g>
<g id="INFOS">
</g>
</svg>