<?xml version="1.0" standalone="no"?>
<!DOCTYPE svg PUBLIC "-//W3C//DTD SVG 1.1//EN" "http://www.w3.org/Graphics/SVG/1.1/DTD/svg11.dtd">
<svg xmlns="http://www.w3.org/2000/svg" xmlns:xlink="http://www.w3.org/1999/xlink" version="1.1" x="0px" y="0px" viewBox="0 0 113.4 113.4" style="enable-background:new 0 0 113.4 113.4;" xml:space="preserve" width="113.4000015258789" height="113.4000015258789">
<style type="text/css">
	.st0{fill:#E64F2D;}
	.st1{fill:#B9B9B9;}
	.st2{fill:#7C7C7C;}
	.st3{fill:#3C3C3C;}
	.st4{fill:#FFFFFF;}
	.st5{fill:none;}
	.st6{fill:#E6E7E8;}
	.st7{fill:#ED5C38;}
	.st8{fill:none;stroke:#FFFFFF;stroke-width:2;stroke-miterlimit:10;}
	.st9{fill:#B88337;}
	.st10{fill:#E4E4E3;}
	.st11{fill:#F15B38;}
	.st12{fill:none;stroke:#414042;stroke-width:0.6124;stroke-miterlimit:10;}
	.st13{fill:#D6D7D6;}
	.st14{fill:#CFD0D1;}
	.st15{fill:#424143;}
	.st16{fill:#E5E3E2;}
	.st17{fill:#646565;}
	.st18{fill:#DFDFDE;}
	.st19{fill:#D5D6D5;}
	.st20{fill:none;stroke:#E6E7E8;stroke-width:1.2332;stroke-linecap:round;stroke-miterlimit:10;}
	.st21{fill:none;stroke:#E64F2D;stroke-width:6.1658;stroke-miterlimit:10;}
	.st22{fill-rule:evenodd;clip-rule:evenodd;fill:#E64F2D;}
	.st23{fill:#414042;}
	.st24{fill:#828080;}
	.st25{fill:#44423D;}
	.st26{fill:#B1B3B6;}
	.st27{fill:#77787B;}
	.st28{clip-path:url(#SVGID_00000002358844851033176120000000637303353585940111_);}
	.st29{fill:none;stroke:#414042;stroke-width:1.4339;stroke-linecap:round;stroke-miterlimit:10;}
	.st30{fill:#494949;}
	.st31{fill:#F86767;}
	.st32{clip-path:url(#SVGID_00000085246168337125450300000004557894327204121747_);fill:#3C3C3C;}
	.st33{fill:none;stroke:#B1B3B6;stroke-width:2.1048;stroke-miterlimit:10;}
	.st34{fill:none;stroke:#FFFFFF;stroke-width:2.1048;stroke-miterlimit:10;}
	.st35{fill:#F15A38;}
	.st36{fill:none;stroke:#414042;stroke-width:1.0386;stroke-linecap:round;stroke-miterlimit:10;}
	.st37{fill-rule:evenodd;clip-rule:evenodd;fill:#B9B9B9;}
	.st38{fill:#E7512C;}
	.st39{fill:#E2E2E1;}
	.st40{fill:#D1D3D4;}
	.st41{fill:#646464;}
	.st42{fill:#BCBCBC;}
	.st43{fill:#E94F2D;}
	.st44{fill-rule:evenodd;clip-rule:evenodd;fill:#414042;}
	.st45{fill-rule:evenodd;clip-rule:evenodd;fill:#77787B;}
	.st46{fill:#E7E6E6;}
</style>
<g id="ICONS">
	<g>
		<g>
			<path class="st1" d="M28.2,42.9c0.1-0.2,0.4-0.2,0.4,0c1,3.4,3.1,5.9,5.8,8.1c7.2,6,8.8,13.9,7.8,22.8c-0.1,1.1-0.6,1.6-1.6,2     c-5,1.6-10.1-0.5-12.7-5.2c-1.3-2.5-1.9-5.2-2.2-8C24.9,55.8,26.5,49.3,28.2,42.9z"/>
			<path class="st1" d="M45.8,43c0.1-0.2,0.4-0.2,0.4,0c1.7,6.5,3.3,13,2.5,19.8c-0.3,3-1,5.9-2.6,8.5c-0.6,1-1.3,1.9-2.5,2.7     c0.3-3.2,0.3-6.2-0.2-9.2c-0.5-3-1.4-5.9-2.9-8.6c-0.3-0.5-0.6-0.9-0.1-1.5C43,51,44.7,47.2,45.8,43z"/>
			<path class="st1" d="M33.7,27.6c4.3,8,5.8,16.9,4.7,25.7c-0.2,0.1-1.7-1.7-1.9-1.9c-1.9-2-2.4-2.3-4.1-4.4     c-2.6-3.4-3.7-7.1-2.2-11.4c0.9-2.7,1.8-5.3,3.1-8.1C33.4,27.5,33.6,27.5,33.7,27.6z"/>
			<path class="st1" d="M37.3,30.5c-0.1,0.2-0.3,0.2-0.4,0c-0.7-1.4-1.4-2.7-2.1-4c-0.5-0.9,0.3-2.8,1.6-3.8     c0.7-0.5,1.2-0.4,1.8,0.1c1.4,1.2,1.7,2.2,0.9,3.4C38.4,27.5,37.8,29,37.3,30.5z"/>
			<path class="st1" d="M42,77.3c-0.2-0.8-0.8-0.7-1.4-0.5c-1.1,0.2-2.3,0.4-3.4,0.4c-1.1,0-2.3-0.1-3.4-0.4     c-0.6-0.1-1.2-0.2-1.4,0.5c-0.2,0.7,0.2,1.4,0.8,1.5c2.1,0.2,2.1,1.4,2,3.1c-0.4,5.7,0,6,1.8,6c0.1,0,0.1,0,0.2,0     c0.1,0,0.1,0,0.2,0c1.8,0,2.2-0.3,1.8-6c-0.1-1.7-0.1-3,2-3.1C41.8,78.8,42.2,78,42,77.3z"/>
		</g>
		<path class="st4" d="M36.8,82.9c0,0-3.8-6.4-3.7-6.6c0.1-0.2,3.7-10.2,3.7-10.2l16.6-15.2l6.8-5.9c0,0-2,10.2-7.1,22.2    S36.8,82.9,36.8,82.9z"/>
		<g>
			<g>
				<path class="st0" d="M63.4,51.3c-1.4-1.4-2.2-1.4-3.8,0.1c-1.7,1.7-1.7,2.4-0.2,3.9c1.4,1.4,2.2,1.4,3.8-0.2      C64.7,53.6,64.7,52.7,63.4,51.3z"/>
				<path class="st0" d="M49.7,65c-1.4-1.5-2.2-1.4-3.9,0.2c-1.6,1.6-1.6,2.3-0.1,3.7c1.4,1.4,2.2,1.4,3.7-0.2      C51,67.3,51,66.4,49.7,65z"/>
				<path class="st0" d="M45.2,69.5c-1.4-1.5-2.2-1.4-3.9,0.2c-1.6,1.6-1.6,2.3-0.1,3.7c1.4,1.4,2.2,1.4,3.7-0.2      C46.5,71.7,46.6,70.9,45.2,69.5z"/>
				<path class="st0" d="M73.2,49.9c1.4,1.4,2.2,1.3,3.7-0.2c1.6-1.6,1.7-2.4,0.3-3.7c0,0,0,0-0.1,0s0,0,0-0.1      c-1.4-1.4-2.1-1.3-3.7,0.3C71.9,47.7,71.8,48.5,73.2,49.9z"/>
				<path class="st0" d="M69,45.7c1.4,1.4,2.2,1.3,3.8-0.3c1.6-1.6,1.6-2.3,0.2-3.8c-1.4-1.5-2.2-1.4-3.7,0.1      C67.6,43.5,67.6,44.3,69,45.7z"/>
				<path class="st0" d="M50.4,60.7c-1.5,1.6-1.6,2.3-0.1,3.8c1.4,1.4,2.2,1.3,3.8-0.2c1.6-1.6,1.6-2.3,0.2-3.7      C52.7,59,52,59,50.4,60.7z"/>
				<path class="st0" d="M58.8,55.9c-1.5-1.5-2.1-1.5-3.7,0.1c-1.6,1.6-1.7,2.4-0.2,3.9c1.4,1.4,2.2,1.3,3.8-0.3      C60.2,58.1,60.2,57.4,58.8,55.9z"/>
				<path class="st0" d="M77.8,45.3c1.2,1.2,2.1,1.2,3.1,0.3c2-2,2.2-2.9,0.9-4.2c-1.3-1.3-2.2-1.1-4.2,0.9      C76.5,43.2,76.6,44.1,77.8,45.3z"/>
				<path class="st0" d="M77.5,37.2c-1.3-0.6-2.5,0.4-3.5,1c-1.2,0.7-1.3,1.7-0.5,2.8c1.2,1.7,2.4,1.6,4.6-0.4      C79.5,39.4,79.1,37.9,77.5,37.2z"/>
				<path class="st0" d="M40.2,73.9c-0.7-0.6-1.4-1.1-2.2-0.3c-1.3,1.3-1.4,1.9-1.1,3.1c0.3,1.1,0.8,2.1,2,2.5c0.9-1,1.8-2,2.7-3      C41.6,75.2,40.9,74.5,40.2,73.9z"/>
				<path class="st0" d="M82.4,40.7C82.4,40.7,82.4,40.7,82.4,40.7C82.4,40.7,82.4,40.7,82.4,40.7c0.9,0.8,1.7,0.8,2.5,0      c0.6-0.6,0.8-1.1,1.4-1.7c0.5-0.7,0.4-1.4-0.1-2c-0.6-0.5-1.3-0.6-2-0.1c-0.7,0.5-1.1,0.8-1.7,1.4C81.5,39,81.5,39.9,82.4,40.7z      "/>
				<path class="st0" d="M83.2,35.6c-0.3-0.7-1.4-0.7-2.1-0.5c-0.9,0.2-1.2,0.3-2,0.8c-0.7,0.5-0.5,1.2,0.1,1.7      c0.6,0.6,1,0.8,1.7,0.4c0.5-0.3,0.5-0.3,1.2-0.9C82.7,36.8,83.5,36.2,83.2,35.6z"/>
				<path class="st0" d="M87.5,39.8c0.7,0.3,0.7,1.4,0.5,2.1c-0.2,0.9-0.3,1.2-0.8,2c-0.5,0.7-1.2,0.5-1.7-0.1      c-0.6-0.6-0.8-1-0.4-1.7c0.3-0.5,0.3-0.5,0.9-1.2C86.3,40.4,86.9,39.5,87.5,39.8z"/>
				<path class="st0" d="M56.2,52.1c0.4,0.4,0.9,0.4,1.3,0.1c0.5-0.4,1.4-1.4,1.4-1.4c0.4-0.4,0.8-0.8,1.2-1.2      c0.4-0.4,0.4-0.9,0.1-1.3c-0.4-0.4-1-0.4-1.3-0.1c-0.9,0.9-1.8,1.8-2.7,2.7C55.9,51.2,55.9,51.7,56.2,52.1z"/>
				<path class="st0" d="M51.7,56.7c0.4,0.4,0.9,0.4,1.3,0l1.2-1.2c0.4-0.4,0.8-0.8,1.2-1.2c0.4-0.4,0.7-1,0.2-1.5      c-0.5-0.6-1.1-0.4-1.6,0.1c-0.8,0.8-1.6,1.6-2.3,2.4C51.3,55.7,51.3,56.3,51.7,56.7z"/>
				<path class="st0" d="M47.2,61.2c0.4,0.4,0.9,0.4,1.3,0l1.2-1.2c0.4-0.4,0.8-0.8,1.2-1.2c0.4-0.4,0.7-1,0.2-1.5      c-0.5-0.6-1.1-0.4-1.6,0.1c-0.8,0.8-1.6,1.6-2.3,2.4C46.8,60.2,46.8,60.8,47.2,61.2z"/>
				<path class="st0" d="M42.6,65.8c0.4,0.4,0.9,0.4,1.3,0l1.2-1.2c0.4-0.4,0.8-0.8,1.2-1.2c0.4-0.4,0.7-1,0.2-1.5      c-0.5-0.6-1.1-0.4-1.6,0.1c-0.8,0.8-1.6,1.6-2.3,2.4C42.2,64.9,42.2,65.4,42.6,65.8z"/>
				<path class="st0" d="M39.5,70.2l1.2-1.2c0.4-0.4,0.8-0.8,1.2-1.2c0.4-0.4,0.7-1,0.2-1.5c-0.5-0.6-1.1-0.4-1.6,0.1      c-0.8,0.8-1.6,1.6-2.3,2.4c-0.4,0.4-0.4,0.9,0,1.4C38.6,70.6,39.1,70.6,39.5,70.2z"/>
				<path class="st0" d="M65.8,42.2c0.1,0.2,0.4,0.5,0.7,0.6c0.6,0.1,0.9-0.3,1.7-1.1c0.5-0.6,1.6-0.9,1-1.7c-0.4-0.6-1.3,0.1-2,0.5      C66.5,40.9,65.4,41.6,65.8,42.2z"/>
				<path class="st0" d="M71.7,38.6c-0.3-0.3-0.8-0.3-1.2,0c-0.3,0.3-0.3,0.8,0,1.2c0.3,0.3,0.8,0.3,1.2,0      C72,39.4,72,38.9,71.7,38.6z"/>
				<path class="st0" d="M38.4,71.4c-0.3-0.3-0.8-0.3-1.2,0c-0.3,0.3-0.3,0.8,0,1.2c0.3,0.3,0.8,0.3,1.2,0      C38.7,72.2,38.7,71.7,38.4,71.4z"/>
				<path class="st0" d="M84.4,51.3c-0.3-0.3-0.8-0.3-1.2,0c-0.3,0.3-0.3,0.8,0,1.2c0.3,0.3,0.8,0.3,1.2,0      C84.7,52.1,84.7,51.6,84.4,51.3z"/>
				<path class="st0" d="M71.8,59.7c-1.4-1.4-2.2-1.3-3.8,0.2c-1.6,1.6-1.6,2.3-0.2,3.8c1.5,1.5,2.2,1.5,3.9-0.2      C73.2,62,73.2,61.1,71.8,59.7z"/>
				<path class="st0" d="M67.6,55.6C67.6,55.6,67.6,55.5,67.6,55.6c-0.1-0.1-0.1-0.1-0.1-0.1c-1.4-1.3-2.2-1.2-3.9,0.5      c-1.4,1.5-1.4,2.2,0,3.6c1.4,1.4,2.1,1.4,3.6,0C68.9,57.8,69,57,67.6,55.6z"/>
				<path class="st0" d="M63,60.2C63,60.2,63,60.1,63,60.2c-0.1-0.1-0.1-0.1-0.1-0.1c-1.4-1.3-2.2-1.2-3.9,0.5      c-1.4,1.5-1.4,2.2,0,3.6c1.4,1.4,2.1,1.4,3.6,0C64.3,62.4,64.4,61.6,63,60.2z"/>
				<path class="st0" d="M58.5,64.7C58.5,64.7,58.4,64.7,58.5,64.7c-0.1-0.1-0.1-0.1-0.1-0.1c-1.4-1.3-2.2-1.2-3.9,0.5      c-1.4,1.5-1.4,2.2,0,3.6c1.4,1.4,2.1,1.4,3.6,0C59.7,67,59.8,66.1,58.5,64.7z"/>
				<path class="st0" d="M53.9,69.3C53.9,69.3,53.9,69.2,53.9,69.3c-0.1-0.1-0.1-0.1-0.1-0.1c-1.4-1.3-2.2-1.2-3.9,0.5      c-1.4,1.5-1.4,2.2,0,3.6c1.4,1.4,2.1,1.4,3.6,0C55.2,71.5,55.3,70.7,53.9,69.3z"/>
				<path class="st0" d="M49.5,73.7C49.5,73.7,49.4,73.7,49.5,73.7c-0.1-0.1-0.1-0.1-0.1-0.1c-1.4-1.3-2.2-1.2-3.9,0.5      c-1.4,1.5-1.4,2.2,0,3.6c1.4,1.4,2.1,1.4,3.6,0C50.7,75.9,50.8,75.1,49.5,73.7z"/>
				<path class="st0" d="M58.1,73.4c-1.4-1.4-2.2-1.3-3.8,0.2c-1.6,1.6-1.6,2.3-0.2,3.7c1.5,1.5,2.2,1.4,3.7-0.1      C59.5,75.7,59.5,74.9,58.1,73.4z"/>
				<path class="st0" d="M53.6,77.9c-1.4-1.4-2.2-1.3-3.8,0.2c-1.6,1.6-1.6,2.3-0.2,3.7c1.5,1.5,2.2,1.4,3.7-0.1      C55,80.1,55.1,79.3,53.6,77.9z"/>
				<path class="st0" d="M77.7,50.3c-1.6,1.6-1.6,2.4-0.3,3.8c1.5,1.5,2.3,1.4,3.9-0.2c1.6-1.6,1.6-2.3,0.1-3.7      C80,48.7,79.2,48.8,77.7,50.3z"/>
				<path class="st0" d="M58.6,72.9c1.4,1.4,2.2,1.4,3.8-0.1c1.7-1.7,1.7-2.4,0.2-3.9c-1.4-1.4-2.1-1.3-3.7,0.2      C57.3,70.7,57.3,71.5,58.6,72.9z"/>
				<path class="st0" d="M67.2,64.4c-1.4-1.4-2.2-1.4-3.7,0.2c-1.6,1.6-1.6,2.4-0.3,3.8c1.5,1.5,2.2,1.4,3.9-0.2      C68.6,66.5,68.7,65.8,67.2,64.4z"/>
				<path class="st0" d="M82.1,49.6c1.1,0.8,2.1,0.6,2.8-0.5c0.6-1,1.6-2.2,1-3.5c-0.8-1.6-2.2-2-3.5-0.6      C80.5,47.2,80.4,48.4,82.1,49.6z"/>
				<path class="st0" d="M49.2,82.9c-0.7-0.7-1.3-1.4-2.3-1.4c-1,0.9-2,1.8-3,2.7c0.4,1.1,1.4,1.7,2.5,2c1.2,0.3,1.8,0.2,3.1-1.1      C50.3,84.3,49.9,83.5,49.2,82.9z"/>
				<path class="st0" d="M74.8,62.9c-0.4-0.4-0.9-0.3-1.3,0.1c-0.4,0.4-0.8,0.8-1.2,1.2c0,0-1,0.9-1.4,1.4c-0.4,0.4-0.4,0.9,0.1,1.3      c0.4,0.3,0.9,0.3,1.2,0c0.9-0.9,1.8-1.7,2.7-2.7C75.3,63.8,75.3,63.3,74.8,62.9z"/>
				<path class="st0" d="M68.1,46.6c-1.4-1.4-2.2-1.4-3.8,0.1c-1.7,1.7-1.7,2.4-0.2,3.9c1.4,1.4,2.2,1.4,3.8-0.2      C69.4,48.8,69.5,47.9,68.1,46.6z"/>
				<path class="st0" d="M61,47.3c0.4,0.4,0.9,0.4,1.3,0.1c0.5-0.4,1.4-1.4,1.4-1.4c0.4-0.4,0.8-0.8,1.2-1.2      c0.4-0.4,0.4-0.9,0.1-1.3c-0.4-0.4-1-0.4-1.3-0.1c-0.9,0.9-1.8,1.8-2.7,2.7C60.6,46.4,60.6,46.9,61,47.3z"/>
				<path class="st0" d="M76.5,55c-1.4-1.4-2.2-1.3-3.8,0.2c-1.6,1.6-1.6,2.3-0.2,3.8c1.5,1.5,2.2,1.5,3.9-0.2      C77.9,57.2,78,56.4,76.5,55z"/>
				<path class="st0" d="M72.4,50.8C72.4,50.8,72.4,50.8,72.4,50.8c-0.1-0.1-0.1-0.1-0.1-0.1c-1.4-1.3-2.2-1.2-3.9,0.5      c-1.4,1.5-1.4,2.2,0,3.6c1.4,1.4,2.1,1.4,3.6,0C73.6,53,73.7,52.2,72.4,50.8z"/>
				<path class="st0" d="M79.6,58.1c-0.4-0.4-0.9-0.3-1.3,0.1c-0.4,0.4-0.8,0.8-1.2,1.2c0,0-1,0.9-1.4,1.4c-0.4,0.4-0.4,0.9,0.1,1.3      c0.4,0.3,0.9,0.3,1.2,0c0.9-0.9,1.8-1.7,2.7-2.7C80,59.1,80.1,58.5,79.6,58.1z"/>
				<path class="st0" d="M70.2,67.5c-0.5-0.5-1-0.2-1.5,0.2c-0.4,0.4-0.8,0.8-1.2,1.2l-1.2,1.2c-0.4,0.4-0.4,0.9,0,1.3      c0.4,0.4,0.9,0.4,1.4,0c0.8-0.7,1.6-1.5,2.4-2.3C70.6,68.6,70.8,68,70.2,67.5z"/>
				<path class="st0" d="M65.7,72c-0.5-0.5-1-0.2-1.5,0.2c-0.4,0.4-0.8,0.8-1.2,1.2l-1.2,1.2c-0.4,0.4-0.4,0.9,0,1.3      c0.4,0.4,0.9,0.4,1.4,0c0.8-0.7,1.6-1.5,2.4-2.3C66.1,73.1,66.3,72.5,65.7,72z"/>
				<path class="st0" d="M61.1,76.6c-0.5-0.5-1-0.2-1.5,0.2c-0.4,0.4-0.8,0.8-1.2,1.2l-1.2,1.2c-0.4,0.4-0.4,0.9,0,1.3      c0.4,0.4,0.9,0.4,1.4,0c0.8-0.7,1.6-1.5,2.4-2.3C61.5,77.7,61.7,77.1,61.1,76.6z"/>
				<path class="st0" d="M56.7,81c-0.5-0.5-1-0.2-1.5,0.2c-0.4,0.4-0.8,0.8-1.2,1.2l-1.2,1.2c-0.4,0.4-0.4,0.9,0,1.3      c0.4,0.4,0.9,0.4,1.4,0c0.8-0.7,1.6-1.5,2.4-2.3C57.1,82.1,57.3,81.5,56.7,81z"/>
				<path class="st0" d="M81.5,55c-0.8,0.8-1.3,1.1-1.1,1.7c0.1,0.2,0.4,0.5,0.6,0.7c0.6,0.3,1.3-0.8,1.8-1.4c0.5-0.6,1.1-1.5,0.5-2      C82.4,53.4,82,54.4,81.5,55z"/>
				<path class="st0" d="M51.8,85c-0.3-0.3-0.7-0.3-1,0s-0.3,0.7,0,1c0.3,0.3,0.7,0.3,1,0S52.1,85.3,51.8,85z"/>
			</g>
			<path class="st30" d="M84.9,63.1c0.3-0.1,0.2-0.5-0.1-0.5c-2.1-0.2-5.9-0.5-8.7-0.1c-4,0.5-8.3,1.2-12.9,2.4     c-4.6,1.2-12.7,4.9-17.5,7.7c-4.7,2.8-8.2,7.9-8.2,7.9l-0.5,0.8c-0.1-0.1-0.1-0.1-0.3-0.3c-2.7-3.3-2.6-7.7,0-12.2     c1.9-3.1,4.4-5.7,7.1-8.2c4.9-4.5,9.9-8.9,14.9-13.4c0.6-0.6,1.2-1.2,1.3-2.1c0.3-2,0-3.9-0.6-5.8c-0.1-0.3-0.5-0.3-0.5,0     c-1.8,5.9-6.2,9.7-10.8,13.4c-3.7,3.1-7.5,6.1-10.8,9.7c-6.2,6.8-7.3,13.2-3.5,21.6c0.4,0.9-1.6,3.8-2.6,4.5     c-1,0.7-0.7,1.3,0.1,2c0.4,0.3,0.8,0.8,1.2,1.2c0.5,0.6,1,0.6,1.5,0c0.8-1.1,3.8-3.2,4.9-2.6c0.5,0.2,1,0.5,1.5,0.7c0,0,0,0,0,0     C48,93,55.1,92,61,85.6c5-5.5,10.8-14.2,17.7-19.4C80.9,64.5,83.4,63.5,84.9,63.1z"/>
		</g>
	</g>
	<path class="st1" d="M44.9,37.8c-0.6-2-1.2-3.9-2-5.9c-0.7-1.8-1.4-3.6-2.3-5.4c-0.4,0.8-0.8,1.6-1,2c-1.2,2.6-1.9,4.7-1,7.5l0,0   c0,0,0.5,1.5,1.2,5.1c0.1,0.8,0.2,1.5,0.3,2.3c0.3,3.9,0,8.9,0,8.9c2.4-3.5,3.8-7.3,4.6-11.4C44.8,39.8,45.2,38.8,44.9,37.8z"/>
</g>
<g id="INFOS">
</g>
</svg>