<?xml version="1.0" standalone="no"?>
<!DOCTYPE svg PUBLIC "-//W3C//DTD SVG 1.1//EN" "http://www.w3.org/Graphics/SVG/1.1/DTD/svg11.dtd">
<svg xmlns="http://www.w3.org/2000/svg" xmlns:xlink="http://www.w3.org/1999/xlink" version="1.1" x="0px" y="0px" viewBox="0 0 113.4 113.4" style="enable-background:new 0 0 113.4 113.4;" xml:space="preserve" width="113.4000015258789" height="113.4000015258789">
<style type="text/css">
	.st0{fill:#E64F2D;}
	.st1{fill:#B9B9B9;}
	.st2{fill:#7C7C7C;}
	.st3{fill:#3C3C3C;}
	.st4{fill:#FFFFFF;}
	.st5{fill:none;}
	.st6{fill:#E6E7E8;}
	.st7{fill:#ED5C38;}
	.st8{fill:none;stroke:#FFFFFF;stroke-width:2;stroke-miterlimit:10;}
	.st9{fill:#B88337;}
	.st10{fill:#E4E4E3;}
	.st11{fill:#F15B38;}
	.st12{fill:none;stroke:#414042;stroke-width:0.6124;stroke-miterlimit:10;}
	.st13{fill:#D6D7D6;}
	.st14{fill:#CFD0D1;}
	.st15{fill:#424143;}
	.st16{fill:#E5E3E2;}
	.st17{fill:#646565;}
	.st18{fill:#DFDFDE;}
	.st19{fill:#D5D6D5;}
	.st20{fill:none;stroke:#E6E7E8;stroke-width:1.2332;stroke-linecap:round;stroke-miterlimit:10;}
	.st21{fill:none;stroke:#E64F2D;stroke-width:6.1658;stroke-miterlimit:10;}
	.st22{fill-rule:evenodd;clip-rule:evenodd;fill:#E64F2D;}
	.st23{fill:#414042;}
	.st24{fill:#828080;}
	.st25{fill:#44423D;}
	.st26{fill:#B1B3B6;}
	.st27{fill:#77787B;}
	.st28{clip-path:url(#SVGID_00000178891078661025997390000002266141719784580225_);}
	.st29{fill:none;stroke:#414042;stroke-width:1.4339;stroke-linecap:round;stroke-miterlimit:10;}
	.st30{fill:#494949;}
	.st31{fill:#F86767;}
	.st32{clip-path:url(#SVGID_00000084526354284784561190000002225050655590144156_);fill:#3C3C3C;}
	.st33{fill:none;stroke:#B1B3B6;stroke-width:2.1048;stroke-miterlimit:10;}
	.st34{fill:none;stroke:#FFFFFF;stroke-width:2.1048;stroke-miterlimit:10;}
	.st35{fill:#F15A38;}
	.st36{fill:none;stroke:#414042;stroke-width:1.0386;stroke-linecap:round;stroke-miterlimit:10;}
	.st37{fill-rule:evenodd;clip-rule:evenodd;fill:#B9B9B9;}
	.st38{fill:#E7512C;}
	.st39{fill:#E2E2E1;}
	.st40{fill:#D1D3D4;}
	.st41{fill:#646464;}
	.st42{fill:#BCBCBC;}
	.st43{fill:#E94F2D;}
	.st44{fill-rule:evenodd;clip-rule:evenodd;fill:#414042;}
	.st45{fill-rule:evenodd;clip-rule:evenodd;fill:#77787B;}
	.st46{fill:#E7E6E6;}
</style>
<g id="ICONS">
</g>
<g id="INFOS">
	<g id="ICONS_00000115498703147510713390000005647577875345141421_">
		<path class="st35" d="M28.8,48.6c0.3,1.7,0.9,3.1,1.8,4.6c0.9,1.4,2.8,1.5,4.3,1.1c3.6-1.1,3.4-4.3,5.9-5.3    c1.6-0.5,1.7,0.9,1.6,1.7c-0.5,1.5-1.4,2.6-2.6,3.5c-2.6,1.8-5.5,2.3-8.3,2.9c0.3,2,1.4,3.6,3,4.4c2.9,1.4,5-1.2,7.3-2.7    c0.5-0.3,1.1-0.3,1.4,0.3c0.2,0.6-0.2,1.1-0.5,1.5c-2.4,2.7-6.4,3.2-9.6,4.6c0.2,1.8,1.2,3.6,2.9,4.6c0.6,0.3,1.4,0.3,2.1,0.2    c1.7-0.6,2.3-2.4,3.3-3.8c0.5-0.6,1.7-1.5,1.7,0.4c0.4,4.9,0.2,20.6-0.4,24.7h4.4c-0.3-2.6-0.6-6.7-0.7-9.9    c-0.1-4.8-0.2-9.1-0.3-14.1c-0.1-0.8,0.7-1.3,1.4-0.2c1.1,1.8,1.3,3.1,3.5,3.7c1.5,0.3,3.2-0.6,3.2-2.3c-2.9-1.7-5.3-2.7-7.6-5.5    c-0.9-1.3-0.1-2.6,1.5-1.7c2.7,1.8,3.8,5.8,7.3,5.5c2-0.2,2.9-2.4,3.2-4.3c-4.3-0.9-10.7-2-11.5-5.5c-0.3-0.9,0.1-2.6,1.9-1.2    c1.5,1.2,2.3,3.2,4.1,3.9c2.4,1.1,4.3-1.7,4.6-3.8c-3-1.1-7.3-1.7-8.8-4.2c-0.4-0.8-0.2-1.5,0.7-1.4c1.9,0.2,4.7,3.6,7.4,4.7    c3,1.4,4.9-2.4,5.3-5c-4.9-0.6-9.7-0.9-14-3.9c-0.8-0.6-0.7-1-0.4-2c0.5-0.8,0.7-0.6,1.3-0.3c2.6,1.4,4.9,4.1,8,3.6    c2.9-0.3,3.6-3.8,3.9-6.4c-3.6-0.5-7.3-0.3-10.9-1.4c-1.7-0.5-3.2-0.4-4-2.3c-0.3-0.9,0.2-1.6,1.1-1.4c2.2,0.8,3.7,3.2,6.2,2.8    c2.3-0.3,2.4-3,2.6-4.9c-3-0.6-6.4,0.2-9.3-1.4c-0.5-0.3-0.8-0.6-0.9-1.1c-0.2-0.6,0.2-1.4,0.9-1.2c1.7,0.6,3.3,2.1,5.2,1.2    c1.2-0.5,2-1.7,2.3-3c-3.8-0.9-7.5-1.6-9.5-5.5c0.1-0.5-0.6-1.3-0.9-0.1c-0.8,5.2-5.4,7.9-9.6,9.7c0.8,2.9,2.6,4.6,5.3,3.2    c1.3-0.7,1.4-1.8,2.3-2.4c0.7-0.4,1.1,0.2,1,0.9c-0.3,1.7-1.4,2.7-2.7,3.6c-3.2,1.8-6.7,1.7-10,2.4c0.3,1.7,0.8,3.6,2.3,4.7    c3.2,2.1,7.4-2.5,8.3-3.5c0.9-1,2.7-0.4,1.7,1.5C39.1,47.3,33.5,47.6,28.8,48.6z"/>
		<polygon class="st23" points="41.3,44.4 50,64.1 60.9,51 65.8,57.3 65.9,91.1 23.3,91.1   "/>
		<path class="st27" d="M22.6,80.9l-5.7,10.2h27L38.2,81l2.7-0.2l-4.3-6.7l2.7-0.2l-4.8-6.2c-0.4-0.6-0.1-1.4,0.6-1.5l0,0    c0.4,0,0.6-0.5,0.4-0.8l-5.2-8.9l-5.6,9.6h0.2c1,0.1,1.5,1.3,0.9,2.1l-4.3,5.7l2.7,0.2l-4.3,6.6L22.6,80.9z"/>
		<line class="st5" x1="59.2" y1="78" x2="59.3" y2="71.7"/>
		<line class="st5" x1="59" y1="84.3" x2="59.2" y2="78"/>
		<rect x="77.1" y="79.2" class="st23" width="2.8" height="11.8"/>
		<polygon class="st4" points="54.9,86.3 52.2,78.4 51,87.5 47.8,82.2 47.8,91.1 58.9,91.1 59.3,72.7   "/>
		<polygon class="st23" points="68.3,88.1 69.9,83.2 70.7,88.9 72.7,85.5 72.7,91.1 65.8,91.1 65.5,79.6   "/>
		<path class="st27" d="M60,91.1h-4.2c1.5-4.7,0.7-9.9,0.5-14.8c-0.1-1.3-0.4-2.8-1.7-3.3c-0.8-0.3-1.5,0.5-2.4,0.3    c-0.6-0.1-1.1-0.5-1.6-0.8c-0.2-0.1-0.4-0.1-0.6,0c-0.7,0.3-1.4,0.5-2.2,0.3s-1.4-0.9-1.4-1.6c0.1-1.1-0.1-2.1-1.2-2.6    c-0.7-0.3-1-1.1-0.8-1.8c0.3-1.1,1.4-1.2,2-2.1c0.3-0.4,0.3-0.9,0.1-1.4c-0.1-0.4-0.4-0.7-0.7-1c-0.7-0.7-1.8-0.9-2-1.9    c-0.1-0.5,0.1-1.1,0.1-1.6s-0.5-1-0.7-1.5c-0.3-0.8,0.1-1.4,0.8-1.9c2.5-2.2,0.2-3.9,1-5.8c0.3-0.8,1.5-0.4,2.2-0.7    c1.6-0.7,0-2.4-0.4-3.6c-0.4-1-0.7-2-0.2-3.1c0.1-0.3,0.4-0.5,0.7-0.6c0.9-0.3,1.3-1.3,1.2-2.3c-0.2-0.9,0-1.8,1-2.2    c0.7-0.3,1.2,0.5,1.9,0.5c0.4,0,0.6-0.4,0.6-0.7c0.1-1-0.5-2-0.1-3.1c0.2-0.6,1-1.1,1.6-0.7c0.2,0.1,0.4,0.4,0.6,0.3    c0.2-0.1,0.4-0.3,0.5-0.5c0.2-0.6,0.1-1.3,0.4-2c0.3-0.9,1.4-1.6,2.3-1.2c1,0.4,1.7,1.3,2.1,2.3c0.1,0.3,0.4,0.4,0.6,0.5    c1.2,0.5,2.6,0.6,3.4,1.7c1,1.4,0,2.8-0.8,4.1c-0.2,0.3-0.2,0.7,0,1.1c0.2,0.4,0.6,0.6,1,0.5c0.7-0.1,1.3-0.3,2-0.6    c0.4-0.1,0.8,0,1.1,0.3c0.7,0.6,0.7,1.6,0.4,2.4c-0.3,0.7-0.2,1.5,0.5,1.9c0.4,0.2,0.8,0.4,1.3,0.7c0.5,0.2,0.7,0.7,0.9,1.2    c0.3,1.3-0.3,2.4-1,3.5c-0.5,0.7,1,0.9,1.6,1.3c1.2,0.7,0.8,2,0,2.8c0.5,1.9-1.4,2.7-2.6,3.9c-0.5,0.5-0.4,1.4,0.2,1.6    c0.8,0.3,1.7,0.3,2.3,0.9c0.4,0.4,0,1.1,0.1,1.6c0.1,0.6,0.9,0.8,1.1,1.4c0.1,0.6,0.2,1.1,0,1.7c-0.5,1.4-2.2,1.3-3,2.4    c-0.1,0.2-0.2,0.5-0.2,0.7c0.1,1.1,1.1,2.2,0.1,3.1c-0.8,0.7-1.6,1.4-2.8,1.7c-1.3,0.3-2.5-0.1-3.8,0.3c-2.1,0.7-2.4,3-2.4,4.8    C59.1,81.5,59.5,89.5,60,91.1z"/>
		<path class="st35" d="M85.1,81.6c0.2,3.2,0.2,6.4-0.8,9.4h4.2c-0.4-1.1-0.7-5.6-0.8-9.4H85.1z"/>
		<path class="st23" d="M95.7,76h-3c0,6-0.2,12.6-0.6,15.1h4.4c-0.3-2.6-0.6-6.7-0.7-9.9C95.8,79.4,95.8,77.7,95.7,76z"/>
	</g>
</g>
</svg>