<?xml version="1.0" standalone="no"?>
<!DOCTYPE svg PUBLIC "-//W3C//DTD SVG 1.1//EN" "http://www.w3.org/Graphics/SVG/1.1/DTD/svg11.dtd">
<svg xmlns="http://www.w3.org/2000/svg" xmlns:xlink="http://www.w3.org/1999/xlink" version="1.1" x="0px" y="0px" viewBox="0 0 113.4 113.4" style="enable-background:new 0 0 113.4 113.4;" xml:space="preserve" width="113.4000015258789" height="113.4000015258789">
<style type="text/css">
	.st0{fill:#E64F2D;}
	.st1{fill:#B9B9B9;}
	.st2{fill:#7C7C7C;}
	.st3{fill:#3C3C3C;}
	.st4{fill:#FFFFFF;}
	.st5{fill:none;}
	.st6{fill:#E6E7E8;}
	.st7{fill:#ED5C38;}
	.st8{fill:none;stroke:#FFFFFF;stroke-width:2;stroke-miterlimit:10;}
	.st9{fill:#B88337;}
	.st10{fill:#E4E4E3;}
	.st11{fill:#F15B38;}
	.st12{fill:none;stroke:#414042;stroke-width:0.6124;stroke-miterlimit:10;}
	.st13{fill:#D6D7D6;}
	.st14{fill:#CFD0D1;}
	.st15{fill:#424143;}
	.st16{fill:#E5E3E2;}
	.st17{fill:#646565;}
	.st18{fill:#DFDFDE;}
	.st19{fill:#D5D6D5;}
	.st20{fill:none;stroke:#E6E7E8;stroke-width:1.2332;stroke-linecap:round;stroke-miterlimit:10;}
	.st21{fill:none;stroke:#E64F2D;stroke-width:6.1658;stroke-miterlimit:10;}
	.st22{fill-rule:evenodd;clip-rule:evenodd;fill:#E64F2D;}
	.st23{fill:#414042;}
	.st24{fill:#828080;}
	.st25{fill:#44423D;}
	.st26{fill:#B1B3B6;}
	.st27{fill:#77787B;}
	.st28{clip-path:url(#SVGID_00000011020855495076181350000000425570576746710148_);}
	.st29{fill:none;stroke:#414042;stroke-width:1.4339;stroke-linecap:round;stroke-miterlimit:10;}
	.st30{fill:#494949;}
	.st31{fill:#F86767;}
	.st32{clip-path:url(#SVGID_00000016787502458689300760000011740475931607943581_);fill:#3C3C3C;}
	.st33{fill:none;stroke:#B1B3B6;stroke-width:2.1048;stroke-miterlimit:10;}
	.st34{fill:none;stroke:#FFFFFF;stroke-width:2.1048;stroke-miterlimit:10;}
	.st35{fill:#F15A38;}
	.st36{fill:none;stroke:#414042;stroke-width:1.0386;stroke-linecap:round;stroke-miterlimit:10;}
	.st37{fill-rule:evenodd;clip-rule:evenodd;fill:#B9B9B9;}
	.st38{fill:#E7512C;}
	.st39{fill:#E2E2E1;}
	.st40{fill:#D1D3D4;}
	.st41{fill:#646464;}
	.st42{fill:#BCBCBC;}
	.st43{fill:#E94F2D;}
	.st44{fill-rule:evenodd;clip-rule:evenodd;fill:#414042;}
	.st45{fill-rule:evenodd;clip-rule:evenodd;fill:#77787B;}
	.st46{fill:#E7E6E6;}
</style>
<g id="ICONS">
	<g>
		<polygon class="st3" points="83.8,49.5 29.7,49.5 29.7,75.2 56.8,84.8 83.8,74.5   "/>
		<path class="st0" d="M29.8,68.9c0.4,3,2.5,4.6,4.9,5.9c7.9,4.4,16.3,6.2,25.3,5.6c7.1-0.5,13.8-2.5,19.9-6.2    c2.1-1.2,3.4-2.9,3.8-5.3c0,2.7,0.2,5.5-0.1,8.2c-0.2,1.9-1.2,3.4-2.8,4.5c-5.1,3.3-10.7,5.4-16.7,6.3c-6.2,1-12.4,0.8-18.5-0.8    c-4.6-1.1-8.9-3-12.9-5.6c-1.9-1.2-2.9-3.1-2.9-5.3C29.7,73.8,29.8,71.3,29.8,68.9z"/>
		<g>
			<path class="st5" d="M71.6,53.7c-4.6,2.2-9.2,4.4-13.8,6.5c2-0.9,8.3-3.9,15.2-7.1C72.5,53.3,72.1,53.5,71.6,53.7z"/>
			<path class="st5" d="M55.8,60.3c-0.2-0.1-0.4-0.2-0.6-0.3C55.5,60.1,55.7,60.2,55.8,60.3C55.8,60.3,55.8,60.3,55.8,60.3z"/>
			<path class="st5" d="M37.9,51.8c-3.6-1.7-7.1-3.4-10.6-5.1c-1.1-0.5-2.3-1-3.4-1.6c-0.3-0.1-0.6-0.3-0.9-0.4     c5,2.4,12.8,6.1,19.6,9.3C41,53.3,39.4,52.6,37.9,51.8z"/>
			<path class="st5" d="M17.8,42.2c0.1,0,0.2,0.1,0.3,0.2C18,42.3,17.9,42.3,17.8,42.2z"/>
			<path class="st3" d="M95.1,41.9c-10.8-5.1-21.7-10.2-32.5-15.4c-3.9-1.9-7.7-1.9-11.7,0c-6.8,3.2-13.5,6.4-20.3,9.6     c-4.3,2-8.6,4.1-12.9,6.1l0,0l0,0c0,0,0,0,0,0c0.1,0.1,0.2,0.1,0.3,0.2c0.7,0.4,2.5,1.2,4.8,2.3c0.3,0.1,0.6,0.3,0.9,0.4     c1.1,0.6,2.2,1.5,3.3,2c3.6,1.7,7.2,3,10.8,4.7c1.5,0.7,3.1,1.5,4.6,2.2c5.9,2.8,11,5.2,12.7,6c0.2,0.1,0.4,0.2,0.6,0.3     c0.6,0.3,1.3,0.3,1.9,0c0,0,0.1,0,0.1,0c4.6-2.2,9.2-4.4,13.8-6.5c0.4-0.2,0.9-0.4,1.4-0.6c4.4-2.1,9.1-4.3,13-6.1     c0.3,0.2,0.6,0.4,0.8,0.6c0.1-0.1,0.2-0.1,0.4-0.2c-1.1-0.8-3.7-1.6-5.1-1.7c-6.3-0.6-12.7-1.2-19-1.8c-0.8-0.1-1.6-0.2-2.4-0.2     c-1.7,1.8-3.8,2.2-6.1,1.3c-0.3-0.1-0.6-0.3-0.9-0.5c-1.6-1.2-1.6-3.2,0.1-4.4c1.9-1.3,5.6-1.3,7.1,1.2     c5.5,0.5,11.1,1.1,16.6,1.6c1.5,0.1,2.9,0.3,4.4,0.4c2.4,0.2,4.6,1.9,6.6,3.4c2.2-0.9,7.5-3.7,7.4-4.2     C95.8,42.2,95.3,42,95.1,41.9z"/>
			<path class="st2" d="M73,53.1c-6.9,3.2-13.2,6.2-15.2,7.1c-0.4,0.2-0.7,0.3-1.1,0.5c-0.3-0.2-0.6-0.3-1-0.5c0,0,0,0,0,0     c-0.1,0-0.3-0.1-0.6-0.3c-1.8-0.8-3.6-1.7-5.3-2.5c-2.5-1.2-4.9-2.3-7.4-3.5c-6.8-3.2-14.6-6.9-19.6-9.3     c-1.6-0.8-3.2-1.5-4.8-2.3c-0.1-0.1-0.2-0.1-0.3-0.2c0,0,0,0,0,0v0c0,0,0,4.7,0,7.4c0,0.2,0.3,0.4,0.5,0.5     C21.9,51.8,52,66,55.8,67.8c0.6,0.3,1.3,0.3,2,0c4.1-1.9,19.5-9.3,23.1-10.9c0.6-0.3,5.1-2.4,9.1-4.3c-0.4-2-1.4-3.7-3.1-5     c-1.8,0.8-3.7,1.7-5.4,2.5C79,51.2,75.7,52.1,73,53.1z"/>
			<path class="st2" d="M18.1,42.4c1.6,0.9,3.2,1.6,4.8,2.3C20.6,43.6,18.8,42.7,18.1,42.4z"/>
			<path class="st2" d="M73,53.1c2.7-1.1,6-1.9,8.4-3c1.8-0.8,3.6-1.7,5.4-2.5c-0.3-0.2-0.5-0.4-0.8-0.6C82.1,48.9,77.4,51,73,53.1z     "/>
			<path class="st2" d="M17.8,42.2L17.8,42.2C17.8,42.2,17.8,42.2,17.8,42.2C17.8,42.2,17.8,42.2,17.8,42.2z"/>
			<path class="st2" d="M55.2,60c-1.7-0.8-6.8-3.2-12.7-6c2.5,1.2,4.9,2.3,7.4,3.5C51.7,58.4,53.4,59.2,55.2,60z"/>
			<path class="st2" d="M57.8,60.2C57.8,60.3,57.8,60.3,57.8,60.2c-0.7,0.3-1.4,0.3-2,0c0.3,0.2,0.6,0.3,1,0.5     C57.1,60.6,57.5,60.4,57.8,60.2z"/>
		</g>
		<g>
			<path class="st2" d="M95.9,42.4c-0.5,0.2-3.4,1.6-7.3,3.4c1.8,1.6,3,3.5,3.6,5.7c1.3-0.6,2.5-1.2,3.4-1.6     c0.2-0.1,0.3-0.3,0.3-0.5L95.9,42.4C95.9,42.4,95.9,42.4,95.9,42.4z"/>
			<path class="st0" d="M95.4,70.6c0-0.6-0.1-1.1-0.1-1.7c-0.2-1.8-0.4-3.7-1.2-5.4c0.3-1.5-0.2-2.7-1.5-3.5c-0.2,0-0.4-0.1-0.6-0.1     c0.2,0,0.4,0.1,0.6,0.1c0-2.2,0-4.4,0-6.6c-0.1-0.7-0.2-1.3-0.4-1.9c-0.6-2.2-1.8-4.1-3.6-5.7c-0.1,0-0.1-0.1-0.2-0.1     c-1.9-1.5-4.1-2.2-6.6-2.4c-1.5-0.1-2.9-0.2-4.4-0.4c-5.5-0.5-11.1-1.1-16.6-1.6c-1.5-2.5-5.2-2.6-7.1-1.2     c-1.7,1.2-1.8,3.2-0.1,4.4c0.3,0.2,0.6,0.4,0.9,0.5c2.3,0.9,4.4,0.5,6.1-1.3c0.8,0.1,1.6,0.2,2.4,0.2c6.3,0.6,12.7,1.2,19,1.8     c1.4,0.1,2.7,0.5,3.8,1.3c0,0,0,0,0.1,0c2.2,1.4,3.5,3.2,3.9,5.6c0.1,0.6,0.2,1.3,0.2,2c0,1.8,0,3.6,0,5.4     c0.4-0.1,0.8-0.2,1.2-0.2c-0.4,0-0.8,0-1.2,0.2c-1.4,0.8-1.8,2-1.5,3.5c-1,2.5-1.2,5.2-1.3,7.8c0,0.8,0.3,1.6,1,2.1     c1.4,1,3,1.4,4.7,0.7C94.9,73.4,95.5,72.5,95.4,70.6z"/>
		</g>
	</g>
</g>
<g id="INFOS">
</g>
</svg>