<?xml version="1.0" standalone="no"?>
<!DOCTYPE svg PUBLIC "-//W3C//DTD SVG 1.1//EN" "http://www.w3.org/Graphics/SVG/1.1/DTD/svg11.dtd">
<svg xmlns="http://www.w3.org/2000/svg" xmlns:xlink="http://www.w3.org/1999/xlink" version="1.1" x="0px" y="0px" viewBox="0 0 113.4 113.4" style="enable-background:new 0 0 113.4 113.4;" xml:space="preserve" width="113.4000015258789" height="113.4000015258789">
<style type="text/css">
	.st0{fill:#E64F2D;}
	.st1{fill:#B9B9B9;}
	.st2{fill:#7C7C7C;}
	.st3{fill:#3C3C3C;}
	.st4{fill:#FFFFFF;}
	.st5{fill:none;}
	.st6{fill:#E6E7E8;}
	.st7{fill:#ED5C38;}
	.st8{fill:none;stroke:#FFFFFF;stroke-width:2;stroke-miterlimit:10;}
	.st9{fill:#B88337;}
	.st10{fill:#E4E4E3;}
	.st11{fill:#F15B38;}
	.st12{fill:none;stroke:#414042;stroke-width:0.6124;stroke-miterlimit:10;}
	.st13{fill:#D6D7D6;}
	.st14{fill:#CFD0D1;}
	.st15{fill:#424143;}
	.st16{fill:#E5E3E2;}
	.st17{fill:#646565;}
	.st18{fill:#DFDFDE;}
	.st19{fill:#D5D6D5;}
	.st20{fill:none;stroke:#E6E7E8;stroke-width:1.2332;stroke-linecap:round;stroke-miterlimit:10;}
	.st21{fill:none;stroke:#E64F2D;stroke-width:6.1658;stroke-miterlimit:10;}
	.st22{fill-rule:evenodd;clip-rule:evenodd;fill:#E64F2D;}
	.st23{fill:#414042;}
	.st24{fill:#828080;}
	.st25{fill:#44423D;}
	.st26{fill:#B1B3B6;}
	.st27{fill:#77787B;}
	.st28{clip-path:url(#SVGID_00000070814027945904827940000000235657648579035327_);}
	.st29{fill:none;stroke:#414042;stroke-width:1.4339;stroke-linecap:round;stroke-miterlimit:10;}
	.st30{fill:#494949;}
	.st31{fill:#F86767;}
	.st32{clip-path:url(#SVGID_00000094612917534316931080000016066445537862473366_);fill:#3C3C3C;}
	.st33{fill:none;stroke:#B1B3B6;stroke-width:2.1048;stroke-miterlimit:10;}
	.st34{fill:none;stroke:#FFFFFF;stroke-width:2.1048;stroke-miterlimit:10;}
	.st35{fill:#F15A38;}
	.st36{fill:none;stroke:#414042;stroke-width:1.0386;stroke-linecap:round;stroke-miterlimit:10;}
	.st37{fill-rule:evenodd;clip-rule:evenodd;fill:#B9B9B9;}
	.st38{fill:#E7512C;}
	.st39{fill:#E2E2E1;}
	.st40{fill:#D1D3D4;}
	.st41{fill:#646464;}
	.st42{fill:#BCBCBC;}
	.st43{fill:#E94F2D;}
	.st44{fill-rule:evenodd;clip-rule:evenodd;fill:#414042;}
	.st45{fill-rule:evenodd;clip-rule:evenodd;fill:#77787B;}
	.st46{fill:#E7E6E6;}
</style>
<g id="ICONS">
</g>
<g id="INFOS">
	<g>
		<rect x="21.4" y="39.3" class="st23" width="70.7" height="53"/>
		<rect x="30.2" y="21.6" class="st35" width="53" height="70.7"/>
		<polygon class="st27" points="92,92.3 21.4,92.3 21.4,39.3   "/>
		<polygon class="st27" points="21.4,92.3 92,92.3 92,39.3   "/>
		<polygon class="st27" points="92,92.3 21.4,92.3 56.7,56.9   "/>
		<polygon class="st23" points="92,92.3 63.5,60.6 61.8,62   "/>
		<polygon class="st23" points="21.4,92.3 49.8,60.6 51.6,62   "/>
		<g>
			<rect x="35.9" y="27.1" class="st4" width="6.6" height="2.2"/>
			<polygon class="st4" points="42.8,35.9 35.9,35.9 35.9,33.9 43.2,33.9    "/>
			<path class="st4" d="M40.4,30c-0.2,0.7-0.4,0.9-0.7,1.1c0,0-0.2,0-0.2,0.2c-0.4,0.2-0.9,0-1.1-0.2c-0.7-0.7-1.5-1.1-2.4-0.9V32     l0,0c0.4-0.2,0.9,0.2,1.1,0.4c0.9,0.9,2.2,1.3,3.3,0.9c1.1-0.4,2-1.5,2-2.7v-0.2L40.4,30z"/>
		</g>
	</g>
</g>
</svg>