<?xml version="1.0" standalone="no"?>
<!DOCTYPE svg PUBLIC "-//W3C//DTD SVG 1.1//EN" "http://www.w3.org/Graphics/SVG/1.1/DTD/svg11.dtd">
<svg xmlns="http://www.w3.org/2000/svg" xmlns:xlink="http://www.w3.org/1999/xlink" version="1.1" x="0px" y="0px" viewBox="0 0 113.4 113.4" style="enable-background:new 0 0 113.4 113.4;" xml:space="preserve" width="113.4000015258789" height="113.4000015258789">
<style type="text/css">
	.st0{fill:#E64F2D;}
	.st1{fill:#B9B9B9;}
	.st2{fill:#7C7C7C;}
	.st3{fill:#3C3C3C;}
	.st4{fill:#FFFFFF;}
	.st5{fill:none;}
	.st6{fill:#E6E7E8;}
	.st7{fill:#ED5C38;}
	.st8{fill:none;stroke:#FFFFFF;stroke-width:2;stroke-miterlimit:10;}
	.st9{fill:#B88337;}
	.st10{fill:#E4E4E3;}
	.st11{fill:#F15B38;}
	.st12{fill:none;stroke:#414042;stroke-width:0.6124;stroke-miterlimit:10;}
	.st13{fill:#D6D7D6;}
	.st14{fill:#CFD0D1;}
	.st15{fill:#424143;}
	.st16{fill:#E5E3E2;}
	.st17{fill:#646565;}
	.st18{fill:#DFDFDE;}
	.st19{fill:#D5D6D5;}
	.st20{fill:none;stroke:#E6E7E8;stroke-width:1.2332;stroke-linecap:round;stroke-miterlimit:10;}
	.st21{fill:none;stroke:#E64F2D;stroke-width:6.1658;stroke-miterlimit:10;}
	.st22{fill-rule:evenodd;clip-rule:evenodd;fill:#E64F2D;}
	.st23{fill:#414042;}
	.st24{fill:#828080;}
	.st25{fill:#44423D;}
	.st26{fill:#B1B3B6;}
	.st27{fill:#77787B;}
	.st28{clip-path:url(#SVGID_00000124860518251602855670000007894003767521865914_);}
	.st29{fill:none;stroke:#414042;stroke-width:1.4339;stroke-linecap:round;stroke-miterlimit:10;}
	.st30{fill:#494949;}
	.st31{fill:#F86767;}
	.st32{clip-path:url(#SVGID_00000005948495543731225690000007281677467818915239_);fill:#3C3C3C;}
	.st33{fill:none;stroke:#B1B3B6;stroke-width:2.1048;stroke-miterlimit:10;}
	.st34{fill:none;stroke:#FFFFFF;stroke-width:2.1048;stroke-miterlimit:10;}
	.st35{fill:#F15A38;}
	.st36{fill:none;stroke:#414042;stroke-width:1.0386;stroke-linecap:round;stroke-miterlimit:10;}
	.st37{fill-rule:evenodd;clip-rule:evenodd;fill:#B9B9B9;}
	.st38{fill:#E7512C;}
	.st39{fill:#E2E2E1;}
	.st40{fill:#D1D3D4;}
	.st41{fill:#646464;}
	.st42{fill:#BCBCBC;}
	.st43{fill:#E94F2D;}
	.st44{fill-rule:evenodd;clip-rule:evenodd;fill:#414042;}
	.st45{fill-rule:evenodd;clip-rule:evenodd;fill:#77787B;}
	.st46{fill:#E7E6E6;}
</style>
<g id="ICONS">
	<g>
		<g>
			<path class="st30" d="M57.3,29.6c-0.9-0.5-2-0.7-3-1.1c0.4-1.5,0.8-2.9,1.3-4.4c0.5-1.8,2.1-2.3,3.6-1.2c0.2,0.2,0.4,0.3,0.6,0.5     c1,0.9,1.1,2.1,0.2,3.2C59.1,27.6,58.1,28.5,57.3,29.6z"/>
			<path class="st0" d="M70.4,61.9c-2,4.5-4.4,8.8-7.4,12.7c-7.1,9.4-16.3,15.2-28.1,16.6c-2.3,0.3-4.1,0.7-7,0.2     c-1.8-0.3-3.7-1-4.8-1.7c-3.3-2.1-5-6.1-4.1-9.9c0.5-2,1.3-3.8,2.4-5.5c3.1-4.5,4.3-9.5,4.3-14.9c0-3.3,0-6.7,0.3-10     c0.9-7.8,4-14.4,10.4-19.1c5.1-3.8,10.9-5.2,17.2-4.2c0.8,0.1,1.5,0.2,2.3,0.4c1,0.3,2,0.6,3,1.1c0,0,0,0,0,0     c-0.1,0.1-0.2,0.2-0.2,0.3c-1.7,4-2.9,8.2-3.1,12.6c-0.2,3.6,0.4,7,2.5,10c1.5,2.1,3.2,3.8,5.1,5.5     C65.6,58.1,68.1,59.9,70.4,61.9z"/>
			<path class="st30" d="M70.4,61.9c-2.3-2-4.8-3.8-7.1-5.9c-1.9-1.7-3.6-3.5-5.1-5.5c-2.1-3-2.7-6.4-2.5-10     c0.2-4.4,1.4-8.5,3.1-12.6c0-0.1,0.1-0.2,0.2-0.3c3.1,0.6,6,1.5,8.8,3.1c5.9,3.3,9.1,8.6,10.2,15.2c0.7,4.4,0.4,8.7-0.4,13     c-0.2,1.1-0.5,2.2-0.7,3.3c-0.5,2.1-2.7,2.9-4.4,1.4C71.8,63.1,71.1,62.4,70.4,61.9z"/>
		</g>
		<g>
			<path class="st0" d="M102.6,72.6c-5,4.8-18.7,16.5-34.6,17.1c-16.2,0.6-28.2-12.3-32.1-17.3c-0.5,0.3-0.6,1-0.3,1.5     c3.7,4.7,15.8,18.3,32.4,17.6c15.9-0.6,29.7-12.4,34.7-17.2C103.2,73.9,103.1,73.1,102.6,72.6z"/>
			<path class="st1" d="M36.3,72.4c-0.2,0-0.3,0-0.4,0.1c4,5,15.9,17.9,32.1,17.3c15.9-0.6,29.6-12.3,34.6-17.1     c-0.2-0.2-0.4-0.3-0.7-0.3"/>
		</g>
	</g>
</g>
<g id="INFOS">
</g>
</svg>