<?xml version="1.0" standalone="no"?>
<!DOCTYPE svg PUBLIC "-//W3C//DTD SVG 1.1//EN" "http://www.w3.org/Graphics/SVG/1.1/DTD/svg11.dtd">
<svg xmlns="http://www.w3.org/2000/svg" id="ICONS" viewBox="0 0 113.39 113.39" width="113.38999938964844" height="113.38999938964844">
  <defs>
    <style>
      .cls-1 {
        fill: #e64f2d;
      }

      .cls-2 {
        fill: #b9b9b9;
      }

      .cls-3, .cls-4 {
        fill: #414042;
      }

      .cls-5 {
        fill: #3c3c3c;
      }

      .cls-6 {
        fill: none;
        stroke: #b9b9b9;
        stroke-linecap: round;
      }

      .cls-6, .cls-4, .cls-7 {
        stroke-miterlimit: 10;
      }

      .cls-4 {
        stroke: #414042;
      }

      .cls-4, .cls-7 {
        stroke-width: .1px;
      }

      .cls-7 {
        fill: #7c7c7c;
        stroke: #7c7c7c;
      }
    </style>
  </defs>
  <path class="cls-7" d="M98.71,83.45H18.23v-10.74l4.1-.86c.94-.2,1.9-.19,2.84,.02l1.92,.43c1.23,.27,2.5,.25,3.72-.07l.52-.14c1.34-.35,2.74-.41,4.1-.18l1.98,.34c1.77,.31,3.57,.35,5.35,.14l6.12-.72c.7-.08,1.41-.09,2.11-.02l7.76,.79c1.73,.18,3.49,.11,5.2-.2l1.03-.19c1.86-.34,3.76-.43,5.64-.27l8.7,.73c1.52,.13,3.04,.07,4.54-.17l2.91-.47c1.32-.21,2.67-.15,3.96,.18l.48,.12c1.35,.35,2.75,.53,4.14,.53h3.37v10.74Z"/>
  <rect class="cls-4" x="18.23" y="83.45" width="80.49" height="8.74"/>
  <g>
    <path class="cls-2" d="M76.89,62.02c0,.21,0,.44,0,.69,0,.01,0,.03,.01,.04v-.74h0Z"/>
    <path class="cls-2" d="M75.18,65.02v3.41h.03v-3.42s-.02,0-.03,.01Z"/>
    <path class="cls-2" d="M76.88,68.43h.02v-3.45s-.01,0-.02-.01v3.46Z"/>
    <path class="cls-2" d="M75.21,62.02h-.03v.8s.02-.04,.02-.06c.01-.25,0-.5,0-.74Z"/>
    <path class="cls-2" d="M80.19,55.05c-.19-.36-.64-.5-1-.31l-2.32,1.21v-2.43c0-.47-.38-.85-.85-.85s-.81,.36-.81,.81v6.18l-2.27-1.19c-.4-.21-.89-.06-1.1,.34l-.4,.75c.1,.06,2.46,1.31,3.55,1.88,.13,.07,.2,.2,.2,.35,0,.08,0,.15,0,.23,0,.25,0,.5,0,.74,0,.02-.01,.04-.02,.06v2.19s.02,0,.03-.01v7.88h1.67v-7.92s.02,0,.02,.01v-2.22s0-.03,0-.04c0-.26,0-.48,0-.69,0-.79,0-1.37,0-2.19,0-1.93-.17-1.91,.18-2.09,1.08-.56,3.42-1.8,3.55-1.87l-.43-.82Z"/>
  </g>
  <g>
    <path class="cls-5" d="M84,51.15c-.19-.09-.32-.26-.36-.47-1.05-5.86-8.75-9.07-13.9-3.32-.82,.91-1.2,2.11-1.36,3.33-.03,.21-.11,.33-.27,.42-2.37,1.36-4.23,3.54-4.43,6.27-.44,5.88,4.96,9.7,9.91,8.23,.53-.16,1.04-.38,1.57-.59v-2.11s.04-.1,.04-.14c.02-.32,0-.65,0-.97,0-.15-.07-.28-.2-.35-1.09-.57-3.45-1.82-3.55-1.88l.39-.75c.21-.4,.7-.55,1.1-.34l2.27,1.19v-6.18c0-.45,.36-.81,.81-.81s.85,.38,.85,.85v2.43l2.32-1.21c.36-.19,.81-.05,1,.31l.43,.82c-.13,.07-2.47,1.31-3.55,1.87-.35,.18-.18,.16-.18,2.09,0,1.04,0,1.68,0,2.88,0,.12,0,.16-.01,.04v2.22c.1,.05,.16,.08,.22,.11,1.58,.79,3.24,1.02,4.98,.69,3.3-.62,5.85-3.38,6.25-6.73,.39-3.27-1.36-6.47-4.33-7.89Z"/>
    <path class="cls-7" d="M84,51.15c-.19-.09-.32-.26-.36-.47-1.05-5.86-8.75-9.07-13.9-3.32-.82,.91-1.2,2.11-1.36,3.33-.03,.21-.11,.33-.27,.42-2.37,1.36-4.23,3.54-4.43,6.27-.44,5.88,4.96,9.7,9.91,8.23,.53-.16,1.04-.38,1.57-.59v-2.11s.04-.1,.04-.14c.02-.32,0-.65,0-.97,0-.15-.07-.28-.2-.35-1.09-.57-3.45-1.82-3.55-1.88l.39-.75c.21-.4,.7-.55,1.1-.34l2.27,1.19v-6.18c0-.45,.36-.81,.81-.81s.85,.38,.85,.85v2.43l2.32-1.21c.36-.19,.81-.05,1,.31l.43,.82c-.13,.07-2.47,1.31-3.55,1.87-.35,.18-.18,.16-.18,2.09,0,1.04,0,1.68,0,2.88,0,.12,0,.16-.01,.04v2.22c.1,.05,.16,.08,.22,.11,1.58,.79,3.24,1.02,4.98,.69,3.3-.62,5.85-3.38,6.25-6.73,.39-3.27-1.36-6.47-4.33-7.89Z"/>
  </g>
  <g>
    <path class="cls-3" d="M50.23,42.74c.2-.7,.31-1.43,.31-2.18,0-4.68-4-8.48-8.93-8.48s-8.93,3.8-8.93,8.48c0,.76,.11,1.49,.31,2.18-2.72,2.27-4.44,5.59-4.44,9.3,0,6.85,5.85,11.01,13.06,11.01s13.06-4.16,13.06-11.01c0-3.71-1.72-7.03-4.44-9.3Z"/>
    <path class="cls-3" d="M50.47,42.81c1.63-6.39-4.19-11.92-10.51-10.84-2.91,.5-5.52,2.39-6.76,5.09-.63,1.37-.88,2.9-.72,4.4,.04,.36,.21,.79,.1,1.15-.13,.4-.58,.69-.87,1-.57,.61-1.09,1.27-1.54,1.98-3.33,5.28-2.1,12.34,3.33,15.63,5.02,3.05,12.5,2.89,17.23-.69,6.01-4.55,5.06-13.32-.33-17.96-.24-.21-.6,.14-.35,.35,3.25,2.8,5.03,7.07,4.15,11.35-.71,3.42-3.23,6.02-6.39,7.36-6.29,2.66-15.98,1.04-18.46-6.15-1.57-4.55,.27-9.49,3.82-12.55,.07-.06,.09-.16,.06-.24-1.37-5.4,2.92-10.35,8.38-10.35s9.75,4.95,8.38,10.35c-.08,.31,.4,.45,.48,.13Z"/>
  </g>
  <path class="cls-6" d="M41.64,47.5v24.15s3.4,.75,3.1,8.61"/>
  <line class="cls-6" x1="38.5" y1="57.38" x2="41.64" y2="60.95"/>
  <line class="cls-6" x1="38.5" y1="48.38" x2="41.64" y2="51.95"/>
  <line class="cls-6" x1="44.74" y1="53.33" x2="41.64" y2="56.74"/>
  <path class="cls-1" d="M69.65,50.55c0,10.57-5,10.7-11.18,10.7s-11.18-.13-11.18-10.7,7.76-27.58,11.18-27.58c2.79,0,11.18,17.01,11.18,27.58Z"/>
  <g>
    <path class="cls-2" d="M58.54,47.75c0,7.05,0,14.1,0,21.14,0,1,0,2.01,0,3.01l.46-.6c-3.65,1.17-4.77,5.61-4.64,8.97,.03,.8,1.28,.81,1.25,0-.11-2.8,.75-6.81,3.73-7.77,.26-.08,.46-.32,.46-.6,0-7.05,0-14.1,0-21.14,0-1,0-2.01,0-3.01,0-.8-1.25-.81-1.25,0h0Z"/>
    <path class="cls-2" d="M54.23,53.93c1.31,1.5,2.63,2.99,3.94,4.49,.19,.21,.37,.42,.56,.63,.22,.25,.66,.23,.88,0,.25-.25,.22-.63,0-.88-1.31-1.5-2.63-2.99-3.94-4.49-.19-.21-.37-.42-.56-.63-.22-.25-.66-.23-.88,0-.25,.25-.22,.63,0,.88h0Z"/>
    <path class="cls-2" d="M61.83,49.73c-.9,1-1.81,1.99-2.71,2.99-.13,.14-.26,.29-.39,.43-.22,.24-.26,.65,0,.88,.24,.22,.65,.26,.88,0,.9-1,1.81-1.99,2.71-2.99,.13-.14,.26-.29,.39-.43,.22-.24,.26-.65,0-.88-.24-.22-.65-.26-.88,0h0Z"/>
  </g>
  <path class="cls-6" d="M59.17,68.43s-8.37-.28-8.37,12.24"/>
  <path class="cls-6" d="M59.17,70.13s7.21-.91,7.21,9.53"/>
  <path class="cls-6" d="M41.61,70.11s-7-.43-6.85,10.16"/>
  <path class="cls-6" d="M41.64,68.39s7.35-.83,7.04,11.88"/>
  <path class="cls-6" d="M80.26,80.27c0-7.87-4.6-7.39-4.6-7.39,0,0-3.98,.61-3.38,7.78"/>
  <path class="cls-6" d="M75.66,70.11s-6.01,0-6.01,10.55"/>
  <path class="cls-6" d="M78.6,74.13s5.16,0,5.16,5.28"/>
</svg>