<?xml version="1.0" standalone="no"?>
<!DOCTYPE svg PUBLIC "-//W3C//DTD SVG 1.1//EN" "http://www.w3.org/Graphics/SVG/1.1/DTD/svg11.dtd">
<svg xmlns="http://www.w3.org/2000/svg" xmlns:xlink="http://www.w3.org/1999/xlink" version="1.1" x="0px" y="0px" viewBox="0 0 113.4 113.4" style="enable-background:new 0 0 113.4 113.4;" xml:space="preserve" width="113.4000015258789" height="113.4000015258789">
<style type="text/css">
	.st0{fill:#E64F2D;}
	.st1{fill:#B9B9B9;}
	.st2{fill:#7C7C7C;}
	.st3{fill:#3C3C3C;}
	.st4{fill:#FFFFFF;}
	.st5{fill:none;}
	.st6{fill:#E6E7E8;}
	.st7{fill:#ED5C38;}
	.st8{fill:none;stroke:#FFFFFF;stroke-width:2;stroke-miterlimit:10;}
	.st9{fill:#B88337;}
	.st10{fill:#E4E4E3;}
	.st11{fill:#F15B38;}
	.st12{fill:none;stroke:#414042;stroke-width:0.6124;stroke-miterlimit:10;}
	.st13{fill:#D6D7D6;}
	.st14{fill:#CFD0D1;}
	.st15{fill:#424143;}
	.st16{fill:#E5E3E2;}
	.st17{fill:#646565;}
	.st18{fill:#DFDFDE;}
	.st19{fill:#D5D6D5;}
	.st20{fill:none;stroke:#E6E7E8;stroke-width:1.2332;stroke-linecap:round;stroke-miterlimit:10;}
	.st21{fill:none;stroke:#E64F2D;stroke-width:6.1658;stroke-miterlimit:10;}
	.st22{fill-rule:evenodd;clip-rule:evenodd;fill:#E64F2D;}
	.st23{fill:#414042;}
	.st24{fill:#828080;}
	.st25{fill:#44423D;}
	.st26{fill:#B1B3B6;}
	.st27{fill:#77787B;}
	.st28{clip-path:url(#SVGID_00000003072115814031043770000009410939640405604005_);}
	.st29{fill:none;stroke:#414042;stroke-width:1.4339;stroke-linecap:round;stroke-miterlimit:10;}
	.st30{fill:#494949;}
	.st31{fill:#F86767;}
	.st32{clip-path:url(#SVGID_00000147932858890741003240000003337727390250858918_);fill:#3C3C3C;}
	.st33{fill:none;stroke:#B1B3B6;stroke-width:2.1048;stroke-miterlimit:10;}
	.st34{fill:none;stroke:#FFFFFF;stroke-width:2.1048;stroke-miterlimit:10;}
	.st35{fill:#F15A38;}
	.st36{fill:none;stroke:#414042;stroke-width:1.0386;stroke-linecap:round;stroke-miterlimit:10;}
	.st37{fill-rule:evenodd;clip-rule:evenodd;fill:#B9B9B9;}
	.st38{fill:#E7512C;}
	.st39{fill:#E2E2E1;}
	.st40{fill:#D1D3D4;}
	.st41{fill:#646464;}
	.st42{fill:#BCBCBC;}
	.st43{fill:#E94F2D;}
	.st44{fill-rule:evenodd;clip-rule:evenodd;fill:#414042;}
	.st45{fill-rule:evenodd;clip-rule:evenodd;fill:#77787B;}
	.st46{fill:#E7E6E6;}
</style>
<g id="ICONS">
	<polygon class="st1" points="23.1,92.2 8.4,92.2 8.4,81 12.4,87.7 14,76.2 17.3,86.2 23.1,68.4  "/>
	<polygon class="st1" points="90,92.2 104.8,92.2 104.8,81 100.8,87.7 99.2,76.2 95.9,86.2 90,68.4  "/>
	<g>
		<path class="st3" d="M61.6,48.7h-0.1H15.4v43.4H98V48.7H61.6z"/>
		<g>
			<rect x="23.7" y="88" class="st1" width="17.2" height="4.2"/>
			<rect x="23.7" y="78.7" class="st1" width="17.2" height="7.2"/>
		</g>
		<polygon class="st2" points="62.8,80.5 62.8,78.7 50.5,78.7 50.5,80.5 51.9,80.5 51.9,86.7 50.5,86.7 50.5,88.4 62.8,88.4     62.8,86.7 61.5,86.7 61.5,80.5   "/>
		<polygon class="st0" points="77.2,20.9 56.6,39 56.6,39 56.6,39 36,20.9 15.4,49 56.6,49 56.7,49 98,49   "/>
		<g>
			<path class="st1" d="M91.4,62.6c0-1.8-1.5-3.3-3.3-3.3l0,0c-1.8,0-3.3,1.5-3.3,3.3V69h6.6L91.4,62.6z"/>
		</g>
		<path class="st4" d="M65.1,92.2H45.5v-4h19.6c6.7,0,7.8-4.3,7.8-7.6c0-5.5,2.1-11.6,10.2-11.6H98v4H83.1c-5.4,0-6.2,4.4-6.2,7.6    C76.8,86.1,74.5,92.2,65.1,92.2z"/>
		<g>
			<rect x="23.7" y="59.3" class="st4" width="17.2" height="9.6"/>
			<rect x="45.4" y="59.3" class="st4" width="17.2" height="9.6"/>
		</g>
	</g>
</g>
<g id="INFOS">
</g>
</svg>