<?xml version="1.0" standalone="no"?>
<!DOCTYPE svg PUBLIC "-//W3C//DTD SVG 1.1//EN" "http://www.w3.org/Graphics/SVG/1.1/DTD/svg11.dtd">
<svg xmlns="http://www.w3.org/2000/svg" xmlns:xlink="http://www.w3.org/1999/xlink" version="1.1" x="0px" y="0px" viewBox="0 0 113.4 113.4" style="enable-background:new 0 0 113.4 113.4;" xml:space="preserve" width="113.4000015258789" height="113.4000015258789">
<style type="text/css">
	.st0{fill:#E64F2D;}
	.st1{fill:#B9B9B9;}
	.st2{fill:#7C7C7C;}
	.st3{fill:#3C3C3C;}
	.st4{fill:#FFFFFF;}
	.st5{fill:none;}
	.st6{fill:#E6E7E8;}
	.st7{fill:#ED5C38;}
	.st8{fill:none;stroke:#FFFFFF;stroke-width:2;stroke-miterlimit:10;}
	.st9{fill:#B88337;}
	.st10{fill:#E4E4E3;}
	.st11{fill:#F15B38;}
	.st12{fill:none;stroke:#414042;stroke-width:0.6124;stroke-miterlimit:10;}
	.st13{fill:#D6D7D6;}
	.st14{fill:#CFD0D1;}
	.st15{fill:#424143;}
	.st16{fill:#E5E3E2;}
	.st17{fill:#646565;}
	.st18{fill:#DFDFDE;}
	.st19{fill:#D5D6D5;}
	.st20{fill:none;stroke:#E6E7E8;stroke-width:1.2332;stroke-linecap:round;stroke-miterlimit:10;}
	.st21{fill:none;stroke:#E64F2D;stroke-width:6.1658;stroke-miterlimit:10;}
	.st22{fill-rule:evenodd;clip-rule:evenodd;fill:#E64F2D;}
	.st23{fill:#414042;}
	.st24{fill:#828080;}
	.st25{fill:#44423D;}
	.st26{fill:#B1B3B6;}
	.st27{fill:#77787B;}
	.st28{clip-path:url(#SVGID_00000131357667921783067730000003813585491063184281_);}
	.st29{fill:none;stroke:#414042;stroke-width:1.4339;stroke-linecap:round;stroke-miterlimit:10;}
	.st30{fill:#494949;}
	.st31{fill:#F86767;}
	.st32{clip-path:url(#SVGID_00000078739878452832178600000002322543974532972464_);fill:#3C3C3C;}
	.st33{fill:none;stroke:#B1B3B6;stroke-width:2.1048;stroke-miterlimit:10;}
	.st34{fill:none;stroke:#FFFFFF;stroke-width:2.1048;stroke-miterlimit:10;}
	.st35{fill:#F15A38;}
	.st36{fill:none;stroke:#414042;stroke-width:1.0386;stroke-linecap:round;stroke-miterlimit:10;}
	.st37{fill-rule:evenodd;clip-rule:evenodd;fill:#B9B9B9;}
	.st38{fill:#E7512C;}
	.st39{fill:#E2E2E1;}
	.st40{fill:#D1D3D4;}
	.st41{fill:#646464;}
	.st42{fill:#BCBCBC;}
	.st43{fill:#E94F2D;}
	.st44{fill-rule:evenodd;clip-rule:evenodd;fill:#414042;}
	.st45{fill-rule:evenodd;clip-rule:evenodd;fill:#77787B;}
	.st46{fill:#E7E6E6;}
</style>
<g id="ICONS">
	<g>
		<path class="st1" d="M51,43.9c-1,1.1-1.2,2.8-0.4,4.2c0.3,0.6,0.8,1,1.4,1.3c1.5,0.9,0.3,0.2,6.7,4.3c1.3,0.8,1.4,1.7,3.2,6    L52.5,54l-2-0.8L37.8,79.7l5.6,4.9c4.2,3.6,7.7,1,11.5,4.8c6.1,6.1,22.1,1.4,18.9-10.9L71,76c-1.7-1.5-0.8-7.3-0.4-9.6    c0.8-4.7,0.9-3-3.2-14.2c-0.5-1.3-1.4-2.5-2.6-3.2c-8.2-5.2-6.1-4-9.3-5.8C54.1,42.3,52.2,42.6,51,43.9"/>
		<path class="st2" d="M27.4,80c-1.6,1.8-1.6,4.4-0.1,5.7c1.5,1.3,4.1,0.9,5.7-0.9l35.5-41.2L63,38.8L27.4,80z"/>
		<path class="st3" d="M55.6,34l19.6,16.9c0.8,0.7,1.7,1,2.7,1c0.4,0,1-0.2,1.6-0.6c3-2,3.6-6.2,1.4-9L66.1,22.9    c-1.4-1.8-4-2.2-5.6-0.6c-0.1,0.1-0.2,0.2-0.3,0.4l-5,5.8C53.7,30.1,53.9,32.6,55.6,34"/>
		<path class="st1" d="M28.4,66.8c0.5-0.7,1.4-1,2.3-1.1c0.6-0.1,1-0.7,0.7-1.3c-0.6-1.2-0.4-2.7,0.6-3.9c0.8-1,2-1.4,3.1-1.3    c0.4,0,0.7-0.3,0.6-0.7c-0.3-1.1,0-2.4,0.8-3.3c1-1.1,2.5-1.6,3.8-1.2c0.6,0.2,1.1-0.2,1.1-0.8c0-0.9,0.2-2,0.8-2.6    c1.3-1.2,3.4-1.2,4.8,0l8,6.9c1.4,1.2,1.8,3.2,0.7,4.7c-0.4,0.6-1,1.1-1.6,1.5c-0.6,0.4-0.7,1.2-0.4,1.8c0.6,1.2,0.4,2.8-0.6,3.9    c-0.7,0.8-1.7,1.3-2.7,1.3c-0.6,0-1.1,0.5-1,1.1c0.1,1-0.1,2-0.9,2.9c-0.9,1.1-2.4,1.5-3.7,1.2c-0.8-0.2-1.6,0.2-2,0.9    c-0.3,0.5-0.7,1.1-1.1,1.5c-1.3,1.3-3.4,1.2-4.8,0l-8-6.9C27.7,70.4,27.4,68.3,28.4,66.8z"/>
	</g>
	<path class="st0" d="M81,80.5L32.9,36.9L27.3,43l48.1,43.6L81,80.5z"/>
</g>
<g id="INFOS">
</g>
</svg>