<?xml version="1.0" standalone="no"?>
<!DOCTYPE svg PUBLIC "-//W3C//DTD SVG 1.1//EN" "http://www.w3.org/Graphics/SVG/1.1/DTD/svg11.dtd">
<svg xmlns="http://www.w3.org/2000/svg" id="ICONS" viewBox="0 0 113.39 113.39" width="113.38999938964844" height="113.38999938964844">
  <defs>
    <style>
      .cls-1 {
        fill: #e64f2d;
      }

      .cls-2 {
        fill: #7c7c7c;
      }

      .cls-3 {
        fill: #b9b9b9;
      }

      .cls-4 {
        fill: #3c3c3c;
      }
    </style>
  </defs>
  <circle class="cls-1" cx="43.13" cy="28.89" r="4.27"/>
  <g>
    <g>
      <path class="cls-4" d="M51.59,76.82l.76-.07c.22-.02,.34-.32,.22-.54l-2.2-4.06c-.12-.22,0-.52,.22-.54l.68-.06c.23-.02,.35-.34,.21-.56l-3-4.66c-.14-.22-.02-.54,.21-.56l.6-.06c.21-.02,.34-.3,.23-.52l-3.09-6.31c-.11-.23-.39-.23-.51,0l-3.05,6.25c-.11,.22,.01,.5,.23,.52l.6,.06c.23,.02,.35,.34,.21,.56l-3,4.66c-.14,.22-.02,.54,.21,.56l.68,.06c.22,.02,.34,.32,.22,.54l-2.2,4.06c-.12,.22,0,.52,.22,.54l.76,.07c.21,.02,.34,.3,.23,.52l-3.18,6.73c-.11,.23,.03,.52,.25,.52l16.15,.05c.22,0,.37-.29,.26-.52l-3.18-6.72c-.11-.22,.02-.5,.23-.52Z"/>
      <rect class="cls-3" x="32.68" y="77.96" width="3.68" height="13.25"/>
      <rect class="cls-4" x="55.52" y="66.09" width="3.68" height="13.25"/>
      <path class="cls-1" d="M43.54,68.95l1.28-.12c.37-.03,.58-.53,.37-.9l-3.69-6.79c-.2-.37,0-.87,.37-.9l1.14-.11c.39-.04,.59-.57,.35-.94l-5.02-7.79c-.24-.37-.04-.9,.35-.94l1-.1c.36-.04,.57-.51,.38-.88l-5.17-10.56c-.19-.39-.66-.39-.85,0l-5.11,10.47c-.18,.37,.02,.84,.38,.88l1,.1c.39,.04,.59,.57,.35,.94l-5.02,7.79c-.24,.37-.04,.9,.35,.94l1.14,.1c.37,.03,.58,.53,.37,.9l-3.69,6.8c-.2,.37,0,.87,.37,.9l1.28,.12c.36,.03,.57,.5,.39,.87l-5.33,11.26c-.18,.39,.05,.87,.43,.87l27.05,.08c.38,0,.61-.48,.43-.87l-5.32-11.26c-.18-.37,.03-.84,.39-.87Z"/>
      <path class="cls-2" d="M66.93,59.72l1.28-.12c.37-.03,.58-.53,.37-.9l-3.69-6.79c-.2-.37,0-.87,.37-.9l1.14-.11c.39-.04,.59-.57,.35-.94l-5.02-7.79c-.24-.37-.04-.9,.35-.94l1-.1c.36-.04,.57-.51,.38-.88l-5.17-10.56c-.19-.39-.66-.39-.85,0l-5.11,10.47c-.18,.37,.02,.84,.38,.88l1,.1c.39,.04,.59,.57,.35,.94l-5.02,7.79c-.24,.37-.04,.9,.35,.94l1.14,.1c.37,.03,.58,.53,.37,.9l-3.69,6.8c-.2,.37,0,.87,.37,.9l1.28,.12c.36,.03,.57,.5,.39,.87l-5.33,11.26c-.18,.39,.05,.87,.43,.87l27.05,.08c.38,0,.61-.48,.43-.87l-5.32-11.26c-.18-.37,.03-.84,.39-.87Z"/>
    </g>
    <g>
      <rect class="cls-3" x="76.35" y="61.39" width="8.51" height="9.65"/>
      <path class="cls-4" d="M93.25,64.72l4.23-.36-6.47-10.88c-.14-.23,.01-.52,.28-.55l2.61-.22c.46-.04,.71-.56,.44-.94l-7.97-11.31c-.2-.28-.02-.67,.33-.7l2.16-.19c.48-.04,.76-.56,.53-.99l-7.62-14.21c-.31-.58-1.15-.58-1.46,0l-7.53,14.09c-.23,.43,.05,.94,.53,.99l2.16,.19c.34,.03,.52,.42,.33,.7l-8.57,12.17,4.23,.36-6.76,11.38,4.23,.35"/>
    </g>
    <g>
      <rect class="cls-3" x="64.8" y="68.18" width="2.88" height="8.73"/>
      <path class="cls-1" d="M74.57,62.4l1-.08c.29-.02,.45-.35,.29-.59l-2.89-4.48c-.16-.25,0-.57,.29-.59l.89-.07c.3-.02,.46-.38,.28-.62l-3.93-5.13c-.19-.24-.03-.59,.27-.62l.79-.07c.28-.02,.44-.33,.3-.58l-4.05-6.96c-.15-.26-.52-.25-.67,0l-4,6.9c-.14,.24,.02,.55,.3,.58l.79,.07c.3,.03,.46,.38,.27,.62l-3.93,5.13c-.19,.24-.03,.59,.28,.62l.89,.07c.29,.02,.45,.35,.29,.59l-2.89,4.48c-.16,.25,0,.57,.29,.59l1,.08c.28,.02,.44,.33,.31,.57l-4.17,7.42c-.14,.26,.04,.57,.33,.57l21.2,.06c.29,0,.48-.32,.34-.57l-4.17-7.42c-.14-.25,.03-.55,.31-.57Z"/>
    </g>
    <g>
      <g>
        <path class="cls-2" d="M80.32,70.21c-.12-.1-.25-.18-.37-.27,0,.01,0,.03,.01,.04l.36,.23Z"/>
        <path class="cls-2" d="M80.5,70.04c-.13-.11-.28-.21-.42-.31l-.06-.03h-.07s-.04,0-.07,0c-.03,0-.06,.02-.09,.04-.02,.01-.03,.03-.04,.04-.02,.02-.03,.03-.03,.06-.01,.02-.02,.04-.02,.06,0,.03,0,.07,0,.1,.02,.05,.03,.11,.08,.15,.02,.01,.04,.03,.05,.04,0,0,.01,0,.02,.01l.08,.05,.21,.13,.05,.03s.06,.03,.09,.03c.03,0,.07,0,.1,0,.06-.02,.12-.06,.15-.11,.03-.06,.05-.13,.03-.19s-.06-.11-.11-.15c-.1-.07-.21-.13-.31-.2l-.05-.03,.11,.15s0-.03-.01-.04l-.37,.28c.1,.07,.21,.14,.31,.22l-.05-.04s.04,.03,.06,.05c.02,.02,.05,.04,.08,.05,.03,.02,.06,.02,.1,.02,.06,0,.13-.03,.18-.07s.08-.11,.07-.18c0-.06-.02-.13-.07-.18Z"/>
      </g>
      <path class="cls-2" d="M92.54,60.13c-1.21,.62-2.21,1.71-2.39,3.02-2.67-.75-5.79-.52-8.03,1.07-2.11,1.5-3.19,4.33-2.17,6.63,.12,.09,.26,.17,.37,.27l-.36-.23s0-.03-.01-.04c-1.74-1.23-5.53-1.4-7.56-.64-2.18,.82-2.51,2.57-3.42,4.61-.17,.4-.3,.91,.04,1.2l28.47-1.87v-14.85c-.48-.02-.96-.03-1.44,0-1.21,.07-2.43,.29-3.49,.83Z"/>
    </g>
    <path class="cls-3" d="M97.48,73.07c-7.85,.12-54.25,1.53-70.3,18.49H97.48v-18.49Z"/>
  </g>
  <path class="cls-1" d="M86.84,76.25l.5-.04c.15-.01,.23-.17,.15-.3l-1.45-2.24c-.08-.12,0-.29,.15-.3l.45-.03c.15-.01,.23-.19,.14-.31l-1.97-2.57c-.09-.12-.01-.3,.14-.31l.39-.03c.14-.01,.22-.17,.15-.29l-2.03-3.48c-.07-.13-.26-.13-.33,0l-2,3.45c-.07,.12,0,.28,.15,.29l.39,.03c.15,.01,.23,.19,.14,.31l-1.97,2.57c-.09,.12-.01,.3,.14,.31l.45,.03c.15,.01,.23,.17,.15,.3l-1.45,2.24c-.08,.12,0,.29,.15,.3l.5,.04c.14,.01,.22,.16,.15,.29l-2.09,3.71c-.07,.13,.02,.29,.17,.29l10.6,.03c.15,0,.24-.16,.17-.29l-2.09-3.71c-.07-.12,.01-.28,.15-.29Z"/>
  <rect class="cls-4" x="82.61" y="80.51" width="1.4" height=".92"/>
</svg>