<?xml version="1.0" standalone="no"?>
<!DOCTYPE svg PUBLIC "-//W3C//DTD SVG 1.1//EN" "http://www.w3.org/Graphics/SVG/1.1/DTD/svg11.dtd">
<svg xmlns="http://www.w3.org/2000/svg" xmlns:xlink="http://www.w3.org/1999/xlink" version="1.1" x="0px" y="0px" viewBox="0 0 113.4 113.4" style="enable-background:new 0 0 113.4 113.4;" xml:space="preserve" width="113.4000015258789" height="113.4000015258789">
<style type="text/css">
	.st0{fill:#E64F2D;}
	.st1{fill:#B9B9B9;}
	.st2{fill:#7C7C7C;}
	.st3{fill:#3C3C3C;}
	.st4{fill:#FFFFFF;}
	.st5{fill:none;}
	.st6{fill:#E6E7E8;}
	.st7{fill:#ED5C38;}
	.st8{fill:none;stroke:#FFFFFF;stroke-width:2;stroke-miterlimit:10;}
	.st9{fill:#B88337;}
	.st10{fill:#E4E4E3;}
	.st11{fill:#F15B38;}
	.st12{fill:none;stroke:#414042;stroke-width:0.6124;stroke-miterlimit:10;}
	.st13{fill:#D6D7D6;}
	.st14{fill:#CFD0D1;}
	.st15{fill:#424143;}
	.st16{fill:#E5E3E2;}
	.st17{fill:#646565;}
	.st18{fill:#DFDFDE;}
	.st19{fill:#D5D6D5;}
	.st20{fill:none;stroke:#E6E7E8;stroke-width:1.2332;stroke-linecap:round;stroke-miterlimit:10;}
	.st21{fill:none;stroke:#E64F2D;stroke-width:6.1658;stroke-miterlimit:10;}
	.st22{fill-rule:evenodd;clip-rule:evenodd;fill:#E64F2D;}
	.st23{fill:#414042;}
	.st24{fill:#828080;}
	.st25{fill:#44423D;}
	.st26{fill:#B1B3B6;}
	.st27{fill:#77787B;}
	.st28{clip-path:url(#SVGID_00000046335111840100783250000015035751148635110560_);}
	.st29{fill:none;stroke:#414042;stroke-width:1.4339;stroke-linecap:round;stroke-miterlimit:10;}
	.st30{fill:#494949;}
	.st31{fill:#F86767;}
	.st32{clip-path:url(#SVGID_00000036941174051495393940000015908389126922184614_);fill:#3C3C3C;}
	.st33{fill:none;stroke:#B1B3B6;stroke-width:2.1048;stroke-miterlimit:10;}
	.st34{fill:none;stroke:#FFFFFF;stroke-width:2.1048;stroke-miterlimit:10;}
	.st35{fill:#F15A38;}
	.st36{fill:none;stroke:#414042;stroke-width:1.0386;stroke-linecap:round;stroke-miterlimit:10;}
	.st37{fill-rule:evenodd;clip-rule:evenodd;fill:#B9B9B9;}
	.st38{fill:#E7512C;}
	.st39{fill:#E2E2E1;}
	.st40{fill:#D1D3D4;}
	.st41{fill:#646464;}
	.st42{fill:#BCBCBC;}
	.st43{fill:#E94F2D;}
	.st44{fill-rule:evenodd;clip-rule:evenodd;fill:#414042;}
	.st45{fill-rule:evenodd;clip-rule:evenodd;fill:#77787B;}
	.st46{fill:#E7E6E6;}
</style>
<g id="ICONS">
	<g>
		<polygon class="st27" points="72.5,68.4 88.2,86.5 69,81.3 71.3,91.2 53.8,83 36.8,90.6 38,81.8 18.7,86.5 34.5,68.4 34.5,22.2     72.5,38.6   "/>
		<polygon class="st11" points="71.6,22.2 83.6,25 76.2,31.4   "/>
		<polygon class="st11" points="79.9,38.8 87.3,30.5 94.6,39.7   "/>
		<polygon class="st11" points="79,45.3 89.1,50.8 80.8,56.4   "/>
		<path class="st11" d="M47.2,34L34.5,22.2l38,16.4l-6.7,0.8C59.1,40.7,52.2,38.7,47.2,34z"/>
	</g>
	<path class="st3" d="M39,55.2V40.1c0-0.5,0.4-0.9,0.9-0.9s0.9,0.4,0.9,0.9v15.1c0,0.5-0.4,0.9-0.9,0.9S39,55.7,39,55.2z"/>
	<path class="st3" d="M64.5,70.4l0-25.4c0-0.5,0.4-1,1-1s1,0.4,1,1l0,25.4c0,0.5-0.4,1-1,1S64.5,70.9,64.5,70.4z"/>
	<path class="st3" d="M58.9,58.9V48.6c0-0.5,0.4-0.9,0.9-0.9s0.9,0.4,0.9,0.9l0,10.3c0,0.5-0.4,0.9-0.9,0.9S58.9,59.4,58.9,58.9z"/>
	<path class="st3" d="M44,69.6V59.4c0-0.5,0.4-0.9,0.9-0.9s0.9,0.4,0.9,0.9l0,10.3c0,0.5-0.4,0.9-0.9,0.9C44.4,70.6,44,70.1,44,69.6   z"/>
</g>
<g id="INFOS">
</g>
</svg>