<?xml version="1.0" standalone="no"?>
<!DOCTYPE svg PUBLIC "-//W3C//DTD SVG 1.1//EN" "http://www.w3.org/Graphics/SVG/1.1/DTD/svg11.dtd">
<svg xmlns="http://www.w3.org/2000/svg" xmlns:xlink="http://www.w3.org/1999/xlink" version="1.1" x="0px" y="0px" viewBox="0 0 113.4 113.4" style="enable-background:new 0 0 113.4 113.4;" xml:space="preserve" width="113.4000015258789" height="113.4000015258789">
<style type="text/css">
	.st0{fill:#E64F2D;}
	.st1{fill:#B9B9B9;}
	.st2{fill:#7C7C7C;}
	.st3{fill:#3C3C3C;}
	.st4{fill:#FFFFFF;}
	.st5{fill:none;}
	.st6{fill:#E6E7E8;}
	.st7{fill:#ED5C38;}
	.st8{fill:none;stroke:#FFFFFF;stroke-width:2;stroke-miterlimit:10;}
	.st9{fill:#B88337;}
	.st10{fill:#E4E4E3;}
	.st11{fill:#F15B38;}
	.st12{fill:none;stroke:#414042;stroke-width:0.6124;stroke-miterlimit:10;}
	.st13{fill:#D6D7D6;}
	.st14{fill:#CFD0D1;}
	.st15{fill:#424143;}
	.st16{fill:#E5E3E2;}
	.st17{fill:#646565;}
	.st18{fill:#DFDFDE;}
	.st19{fill:#D5D6D5;}
	.st20{fill:none;stroke:#E6E7E8;stroke-width:1.2332;stroke-linecap:round;stroke-miterlimit:10;}
	.st21{fill:none;stroke:#E64F2D;stroke-width:6.1658;stroke-miterlimit:10;}
	.st22{fill-rule:evenodd;clip-rule:evenodd;fill:#E64F2D;}
	.st23{fill:#414042;}
	.st24{fill:#828080;}
	.st25{fill:#44423D;}
	.st26{fill:#B1B3B6;}
	.st27{fill:#77787B;}
	.st28{clip-path:url(#SVGID_00000075867841452985275040000001775790869560134314_);}
	.st29{fill:none;stroke:#414042;stroke-width:1.4339;stroke-linecap:round;stroke-miterlimit:10;}
	.st30{fill:#494949;}
	.st31{fill:#F86767;}
	.st32{clip-path:url(#SVGID_00000016057187442164027350000013542139629107097218_);fill:#3C3C3C;}
	.st33{fill:none;stroke:#B1B3B6;stroke-width:2.1048;stroke-miterlimit:10;}
	.st34{fill:none;stroke:#FFFFFF;stroke-width:2.1048;stroke-miterlimit:10;}
	.st35{fill:#F15A38;}
	.st36{fill:none;stroke:#414042;stroke-width:1.0386;stroke-linecap:round;stroke-miterlimit:10;}
	.st37{fill-rule:evenodd;clip-rule:evenodd;fill:#B9B9B9;}
	.st38{fill:#E7512C;}
	.st39{fill:#E2E2E1;}
	.st40{fill:#D1D3D4;}
	.st41{fill:#646464;}
	.st42{fill:#BCBCBC;}
	.st43{fill:#E94F2D;}
	.st44{fill-rule:evenodd;clip-rule:evenodd;fill:#414042;}
	.st45{fill-rule:evenodd;clip-rule:evenodd;fill:#77787B;}
	.st46{fill:#E7E6E6;}
</style>
<g id="ICONS">
</g>
<g id="INFOS">
	<g>
		<polygon class="st41" points="41,32.3 41,55.9 31.2,62.5 31.2,32.3   "/>
		<polygon class="st41" points="31.2,74.5 41,67.9 41,92.3 31.2,92.3   "/>
		<path class="st42" d="M53.2,62.9l2.9,2v27.4h-9.9V64.6l2.6-1.8C50.4,63.3,51.8,63.3,53.2,62.9z"/>
		<polygon class="st3" points="71.2,21.6 71.2,63.1 61.3,56.2 61.3,21.6   "/>
		<polygon class="st3" points="61.3,68.5 71.2,75.4 71.2,92.3 61.3,92.3   "/>
		<g>
			<g>
				<path class="st43" d="M87.3,57.3l4.7,2.1L81.3,70c-0.7-0.3-1.3-0.5-2.1-0.5c-1.2,0-2.2,0.4-3,1L55.7,56.2c0-0.3,0.1-0.7,0.1-0.9      c0-2.6-2.1-4.7-4.7-4.7c-2.6,0-4.7,2.1-4.7,4.7c0,0.3,0,0.7,0.1,0.9L25.7,70c-0.8-0.7-1.7-0.9-2.7-0.9c-2.6,0-4.7,2.1-4.7,4.7      s2.1,4.7,4.7,4.7s4.7-2.1,4.7-4.7c0-0.3,0-0.4,0-0.5l21-13.8c0.8,0.5,1.6,0.8,2.6,0.8c0.9,0,1.7-0.3,2.5-0.8l20.9,14.7      c0,0.1,0,0.1,0,0.3c0,2.6,2.1,4.7,4.7,4.7s4.7-2.1,4.7-4.7c0-0.5-0.1-0.9-0.3-1.4l11-11l2.2,5l2.6-12.1L87.3,57.3z"/>
			</g>
		</g>
	</g>
</g>
</svg>