<?xml version="1.0" standalone="no"?>
<!DOCTYPE svg PUBLIC "-//W3C//DTD SVG 1.1//EN" "http://www.w3.org/Graphics/SVG/1.1/DTD/svg11.dtd">
<svg xmlns="http://www.w3.org/2000/svg" xmlns:xlink="http://www.w3.org/1999/xlink" version="1.1" x="0px" y="0px" viewBox="0 0 113.4 113.4" style="enable-background:new 0 0 113.4 113.4;" xml:space="preserve" width="113.4000015258789" height="113.4000015258789">
<style type="text/css">
	.st0{fill:#E64F2D;}
	.st1{fill:#B9B9B9;}
	.st2{fill:#7C7C7C;}
	.st3{fill:#3C3C3C;}
	.st4{fill:#FFFFFF;}
	.st5{fill:none;}
	.st6{fill:#E6E7E8;}
	.st7{fill:#ED5C38;}
	.st8{fill:none;stroke:#FFFFFF;stroke-width:2;stroke-miterlimit:10;}
	.st9{fill:#B88337;}
	.st10{fill:#E4E4E3;}
	.st11{fill:#F15B38;}
	.st12{fill:none;stroke:#414042;stroke-width:0.6124;stroke-miterlimit:10;}
	.st13{fill:#D6D7D6;}
	.st14{fill:#CFD0D1;}
	.st15{fill:#424143;}
	.st16{fill:#E5E3E2;}
	.st17{fill:#646565;}
	.st18{fill:#DFDFDE;}
	.st19{fill:#D5D6D5;}
	.st20{fill:none;stroke:#E6E7E8;stroke-width:1.2332;stroke-linecap:round;stroke-miterlimit:10;}
	.st21{fill:none;stroke:#E64F2D;stroke-width:6.1658;stroke-miterlimit:10;}
	.st22{fill-rule:evenodd;clip-rule:evenodd;fill:#E64F2D;}
	.st23{fill:#414042;}
	.st24{fill:#828080;}
	.st25{fill:#44423D;}
	.st26{fill:#B1B3B6;}
	.st27{fill:#77787B;}
	.st28{clip-path:url(#SVGID_00000019652107860517521480000016325707529834737310_);}
	.st29{fill:none;stroke:#414042;stroke-width:1.4339;stroke-linecap:round;stroke-miterlimit:10;}
	.st30{fill:#494949;}
	.st31{fill:#F86767;}
	.st32{clip-path:url(#SVGID_00000126282102458732257760000002628214060352699567_);fill:#3C3C3C;}
	.st33{fill:none;stroke:#B1B3B6;stroke-width:2.1048;stroke-miterlimit:10;}
	.st34{fill:none;stroke:#FFFFFF;stroke-width:2.1048;stroke-miterlimit:10;}
	.st35{fill:#F15A38;}
	.st36{fill:none;stroke:#414042;stroke-width:1.0386;stroke-linecap:round;stroke-miterlimit:10;}
	.st37{fill-rule:evenodd;clip-rule:evenodd;fill:#B9B9B9;}
	.st38{fill:#E7512C;}
	.st39{fill:#E2E2E1;}
	.st40{fill:#D1D3D4;}
	.st41{fill:#646464;}
	.st42{fill:#BCBCBC;}
	.st43{fill:#E94F2D;}
	.st44{fill-rule:evenodd;clip-rule:evenodd;fill:#414042;}
	.st45{fill-rule:evenodd;clip-rule:evenodd;fill:#77787B;}
	.st46{fill:#E7E6E6;}
</style>
<g id="ICONS">
	<g>
		<g>
			<path class="st1" d="M45.1,29.8h32.6c3.3,0,6,2.7,6,6v32.6c0,3.3-2.7,6-6,6H45.1c-3.3,0-6-2.7-6-6V35.8     C39.1,32.5,41.8,29.8,45.1,29.8z"/>
			<path class="st2" d="M49,29.8h24.8c5.5,0,9.9,4.4,9.9,9.9v0H39.1v0C39.1,34.2,43.5,29.8,49,29.8z"/>
			<path class="st0" d="M53.6,74.4c1,0,1.8-0.7,2.1-1.6c0.7-2.5,3-4.3,5.7-4.3c2.7,0,5,1.8,5.7,4.3c0.3,1,1.1,1.6,2.1,1.6h10.2     c1.2,0,2.2-1,2.2-2.2v0c0-1-0.7-1.9-1.7-2.1l-2.6-0.6c-0.6-0.1-1.1-0.5-1.4-1l-2-3.5c-0.3-0.5-0.4-1.1-0.2-1.7l0.8-2.6     c0.3-1-0.1-2-1-2.5l-3.9-2.2c-0.9-0.5-2-0.3-2.7,0.4l-1.9,2c-0.4,0.4-1,0.7-1.6,0.7h-4.1c-0.6,0-1.2-0.2-1.6-0.7l-1.8-2     c-0.7-0.7-1.8-0.9-2.7-0.4L49.3,58c-0.9,0.5-1.3,1.6-1,2.5l0.8,2.6c0.2,0.6,0.1,1.2-0.2,1.7l-2,3.5c-0.3,0.5-0.8,0.9-1.4,1     L42.9,70c-1,0.2-1.7,1.1-1.7,2.1v0c0,1.2,1,2.2,2.2,2.2H53.6z"/>
			<circle class="st4" cx="47.2" cy="34.8" r="1.5"/>
			<circle class="st4" cx="51.6" cy="34.8" r="1.5"/>
			<circle class="st4" cx="56.1" cy="34.8" r="1.5"/>
		</g>
		<path class="st3" d="M32.9,73.1L22.6,83.4c-2,2-2,5.3,0,7.3c1,1,2.3,1.5,3.7,1.5c1.3,0,2.6-0.5,3.7-1.5l10.3-10.3    C37.3,78.5,34.8,76,32.9,73.1z"/>
		<path class="st3" d="M61.6,21.3c-17,0-30.7,13.7-30.7,30.7c0,17,13.7,30.7,30.7,30.7c17,0,30.7-13.7,30.7-30.7    C92.3,35,78.5,21.3,61.6,21.3z M61.6,74.1c-12.2,0-22.1-9.9-22.1-22.1s9.9-22.1,22.1-22.1c12.2,0,22.1,9.9,22.1,22.1    S73.8,74.1,61.6,74.1z"/>
	</g>
</g>
<g id="INFOS">
</g>
</svg>