<?xml version="1.0" standalone="no"?>
<!DOCTYPE svg PUBLIC "-//W3C//DTD SVG 1.1//EN" "http://www.w3.org/Graphics/SVG/1.1/DTD/svg11.dtd">
<svg xmlns="http://www.w3.org/2000/svg" xmlns:xlink="http://www.w3.org/1999/xlink" version="1.1" x="0px" y="0px" viewBox="0 0 113.4 113.4" style="enable-background:new 0 0 113.4 113.4;" xml:space="preserve" width="113.4000015258789" height="113.4000015258789">
<style type="text/css">
	.st0{fill:#E64F2D;}
	.st1{fill:#B9B9B9;}
	.st2{fill:#7C7C7C;}
	.st3{fill:#3C3C3C;}
	.st4{fill:#FFFFFF;}
	.st5{fill:none;}
	.st6{fill:#E6E7E8;}
	.st7{fill:#ED5C38;}
	.st8{fill:none;stroke:#FFFFFF;stroke-width:2;stroke-miterlimit:10;}
	.st9{fill:#B88337;}
	.st10{fill:#E4E4E3;}
	.st11{fill:#F15B38;}
	.st12{fill:none;stroke:#414042;stroke-width:0.6124;stroke-miterlimit:10;}
	.st13{fill:#D6D7D6;}
	.st14{fill:#CFD0D1;}
	.st15{fill:#424143;}
	.st16{fill:#E5E3E2;}
	.st17{fill:#646565;}
	.st18{fill:#DFDFDE;}
	.st19{fill:#D5D6D5;}
	.st20{fill:none;stroke:#E6E7E8;stroke-width:1.2332;stroke-linecap:round;stroke-miterlimit:10;}
	.st21{fill:none;stroke:#E64F2D;stroke-width:6.1658;stroke-miterlimit:10;}
	.st22{fill-rule:evenodd;clip-rule:evenodd;fill:#E64F2D;}
	.st23{fill:#414042;}
	.st24{fill:#828080;}
	.st25{fill:#44423D;}
	.st26{fill:#B1B3B6;}
	.st27{fill:#77787B;}
	.st28{clip-path:url(#SVGID_00000168822166739914674040000013197389098727793792_);}
	.st29{fill:none;stroke:#414042;stroke-width:1.4339;stroke-linecap:round;stroke-miterlimit:10;}
	.st30{fill:#494949;}
	.st31{fill:#F86767;}
	.st32{clip-path:url(#SVGID_00000078028581774998775130000010688677499906864795_);fill:#3C3C3C;}
	.st33{fill:none;stroke:#B1B3B6;stroke-width:2.1048;stroke-miterlimit:10;}
	.st34{fill:none;stroke:#FFFFFF;stroke-width:2.1048;stroke-miterlimit:10;}
	.st35{fill:#F15A38;}
	.st36{fill:none;stroke:#414042;stroke-width:1.0386;stroke-linecap:round;stroke-miterlimit:10;}
	.st37{fill-rule:evenodd;clip-rule:evenodd;fill:#B9B9B9;}
	.st38{fill:#E7512C;}
	.st39{fill:#E2E2E1;}
	.st40{fill:#D1D3D4;}
	.st41{fill:#646464;}
	.st42{fill:#BCBCBC;}
	.st43{fill:#E94F2D;}
	.st44{fill-rule:evenodd;clip-rule:evenodd;fill:#414042;}
	.st45{fill-rule:evenodd;clip-rule:evenodd;fill:#77787B;}
	.st46{fill:#E7E6E6;}
</style>
<g id="ICONS">
	<g>
		<path class="st3" d="M34.8,76.2c0,0-10.5,7.3-3.6,12.5c6.9,5.2,22.9,4.2,26.8,0.7c3.9-3.5,3.2-15-3.7-14.9S42.7,72.2,34.8,76.2z"/>
		<path class="st3" d="M81.1,77c0,0,9.1,7.1,4.7,12c-4.3,5-22.4,3.1-22.8-1c-0.5-4.1,0-15.2,6.8-13.7C76.6,75.8,78.8,74.7,81.1,77z"/>
		<path class="st2" d="M84.5,58.3c0,0-11.7-1.3-9,6.6c2.7,7.9,12.6,16.5,18.4,11.3c5.8-5.2,6.8-13.6,2.7-14.5    C92.5,60.7,90.4,57.8,84.5,58.3z"/>
		<path class="st2" d="M66.1,57.3c0,0-15.1-6.2-19.8,2.4s1.5,11.8,6,11.8c4.5,0,21.1,5.1,21.2-2.9C73.6,60.6,66.1,57.3,66.1,57.3z"/>
		<path class="st3" d="M23.1,54.9c0,0-12.9,5.3-7.3,12.7c5.6,7.4,10.4,10.5,14.5,8.4c4.2-2.2,11.4-7.3,11.3-10.2s-1.3-11.2-6.9-10.9    C29.1,55.3,30.9,52.8,23.1,54.9z"/>
		<path class="st2" d="M33.1,49.6c0,0,10.7,10.1,17.3,3.4s2.6-11.6-1.2-12.9s-16-10.8-18.7-3.3S33.1,49.6,33.1,49.6z"/>
		<path class="st3" d="M77.8,56.2c0,0,12.7-0.1,8.6-7.6s-16-14.8-21.4-9c-5.4,5.9-5.1,14.3-0.6,14.8C68.8,54.8,71.5,57.3,77.8,56.2z    "/>
		<path class="st3" d="M66.9,30c0,0-4.2-11-13.3-8.5s-8,10.8-6.2,12.4c1.8,1.6,10.5,8.8,13,6.3C62.9,37.8,69.7,34.8,66.9,30z"/>
	</g>
</g>
<g id="INFOS">
</g>
</svg>