<?xml version="1.0" standalone="no"?>
<!DOCTYPE svg PUBLIC "-//W3C//DTD SVG 1.1//EN" "http://www.w3.org/Graphics/SVG/1.1/DTD/svg11.dtd">
<svg xmlns="http://www.w3.org/2000/svg" xmlns:xlink="http://www.w3.org/1999/xlink" version="1.1" x="0px" y="0px" viewBox="0 0 113.4 113.4" style="enable-background:new 0 0 113.4 113.4;" xml:space="preserve" width="113.4000015258789" height="113.4000015258789">
<style type="text/css">
	.st0{fill:#E64F2D;}
	.st1{fill:#B9B9B9;}
	.st2{fill:#7C7C7C;}
	.st3{fill:#3C3C3C;}
	.st4{fill:#FFFFFF;}
	.st5{fill:none;}
	.st6{fill:#E6E7E8;}
	.st7{fill:#ED5C38;}
	.st8{fill:none;stroke:#FFFFFF;stroke-width:2;stroke-miterlimit:10;}
	.st9{fill:#B88337;}
	.st10{fill:#E4E4E3;}
	.st11{fill:#F15B38;}
	.st12{fill:none;stroke:#414042;stroke-width:0.6124;stroke-miterlimit:10;}
	.st13{fill:#D6D7D6;}
	.st14{fill:#CFD0D1;}
	.st15{fill:#424143;}
	.st16{fill:#E5E3E2;}
	.st17{fill:#646565;}
	.st18{fill:#DFDFDE;}
	.st19{fill:#D5D6D5;}
	.st20{fill:none;stroke:#E6E7E8;stroke-width:1.2332;stroke-linecap:round;stroke-miterlimit:10;}
	.st21{fill:none;stroke:#E64F2D;stroke-width:6.1658;stroke-miterlimit:10;}
	.st22{fill-rule:evenodd;clip-rule:evenodd;fill:#E64F2D;}
	.st23{fill:#414042;}
	.st24{fill:#828080;}
	.st25{fill:#44423D;}
	.st26{fill:#B1B3B6;}
	.st27{fill:#77787B;}
	.st28{clip-path:url(#SVGID_00000023249874783693545110000018011452218402349967_);}
	.st29{fill:none;stroke:#414042;stroke-width:1.4339;stroke-linecap:round;stroke-miterlimit:10;}
	.st30{fill:#494949;}
	.st31{fill:#F86767;}
	.st32{clip-path:url(#SVGID_00000165196871182882929270000012175352309080493196_);fill:#3C3C3C;}
	.st33{fill:none;stroke:#B1B3B6;stroke-width:2.1048;stroke-miterlimit:10;}
	.st34{fill:none;stroke:#FFFFFF;stroke-width:2.1048;stroke-miterlimit:10;}
	.st35{fill:#F15A38;}
	.st36{fill:none;stroke:#414042;stroke-width:1.0386;stroke-linecap:round;stroke-miterlimit:10;}
	.st37{fill-rule:evenodd;clip-rule:evenodd;fill:#B9B9B9;}
	.st38{fill:#E7512C;}
	.st39{fill:#E2E2E1;}
	.st40{fill:#D1D3D4;}
	.st41{fill:#646464;}
	.st42{fill:#BCBCBC;}
	.st43{fill:#E94F2D;}
	.st44{fill-rule:evenodd;clip-rule:evenodd;fill:#414042;}
	.st45{fill-rule:evenodd;clip-rule:evenodd;fill:#77787B;}
	.st46{fill:#E7E6E6;}
</style>
<g id="ICONS">
</g>
<g id="INFOS">
	<g>
		<path class="st3" d="M92.1,21.3H40c0.1,1.2,0.1,3,0,4.2h49.7v39.6H43.4l0,3.8c0,0.7,0,1.5-0.1,2.3h48.8c1,0,1.7-0.8,1.7-1.7V23    C93.8,22.1,93,21.3,92.1,21.3z"/>
		<g>
			<path class="st3" d="M19.9,40.7c0.6-3.9,1.6-6.1,2.7-7.5c0,0,0,0,0,0c1.4-2.7,5.8-4.8,6.3-5.1c0.5-0.3,1.9-0.9,3-0.9     c1.2,0,3.1,0.8,4.5,1.9h0c0.9,0.6,2.6,1.9,3.6,3.8c1,1.9,1.7,5.3,2.2,8.7c0.1,0.9,0.2,1.9,0.3,2.9c0.3,2.7,1.8,1.4,6.7-1.1     l0.9,1.4c0,0-8.2,9.6-11.2,5.1v0c-0.1-0.1-0.1-0.2-0.2-0.3l-0.2,2.5H26.1c0,0,0.2-1.4-0.6-6.9c-0.1,0.3-0.1,0.6-0.2,0.9     c-0.7,3-1.3,6.5-1.1,12.5L22.5,59c0,0-2.8-7.1-2.9-13.8C19.6,43.6,19.7,42.1,19.9,40.7"/>
			<path class="st35" d="M38.5,52.1l0.1,17.6c0,1.4-0.2,3-0.5,4.3c-0.8,3.3-1,15.5-1,15.5s-3.7,0.5-3.7,0.5     C32,81,32.9,76.5,33.4,73.5c0.3-1.6,0.4-3.4,0.1-5c-0.3-1.2-1.4-7-1.4-7l-1.8,6.7c-0.3,1.1-0.6,2.1-0.7,3.2     c-0.2,1.1-0.3,2.2-0.6,3.5c-0.4,1.3-1.4,14.6-1.4,14.6l-3.7,0.5c0,0-0.5-14.3,0.3-16.4c0.5-1.4,0.7-2.8,0.6-4.3     c-0.2-3.6,1-13.5,1.3-17.2H38.5z"/>
			<path class="st6" d="M24.2,58.5c0,0,0.7,1.1,0.9,1.8c0.2,0.7,0.2,1.1,0,1.2c-0.3,0.1-0.3-1-0.5-0.9c-0.3,0.1-0.3,0.5,0,1.6     c0.1,0.5-0.6,0.9-1.1,0.5c-0.5-0.4-1.1-2.3-0.8-3.7L24.2,58.5z"/>
			<path class="st6" d="M49.2,43.4c0,0,0.9-1,1.5-1.4c0.6-0.3,1-0.5,1.2-0.3c0.2,0.3-0.9,0.5-0.7,0.8c0.2,0.2,0.6,0.2,1.5-0.4     c0.4-0.2,1,0.3,0.8,1c-0.2,0.6-1.9,1.6-3.3,1.8L49.2,43.4z"/>
			<path class="st4" d="M32.8,29.5c-0.1-0.7,0.1-1.5,0.1-1.5l0-0.7l-1.3,0.1l0,0.7c0,0,0.2,0.8,0.2,1.4c-0.1,0.9,0.5,19.3,0.5,19.3     l1,0.9l0.9-1C33,31.1,32.9,30.4,32.8,29.5z"/>
			<path class="st23" d="M37.1,89.5c0,0,1.2,1.2,2,1.4c0.8,0.2,2.2,0.6,2.3,1.6h-8.5c0-0.4,0.1-1.7,0.4-2.5L37.1,89.5z"/>
			<path class="st23" d="M27.6,89.5c0,0,1.2,1.2,2,1.4c0.8,0.2,2.2,0.6,2.3,1.6h-8.5c0-0.4,0.1-1.7,0.4-2.5L27.6,89.5z"/>
			<path class="st46" d="M27.9,23.8c0.4,2.9,2.4,5,4.5,4.7c2.1-0.3,3.5-2.9,3.1-5.7c-0.4-2.9-2.4-5-4.5-4.7S27.5,21,27.9,23.8z"/>
			<path class="st23" d="M30.4,18.2c0.4-0.1,0.8-0.1,1.1-0.1c0.3,0,0.9,0,1.7,0c1.8,0,1.5,2.4,1.5,2.4c-0.7,0.5-2.4,1.3-5,1     c0,0,0,3.1-1.3,4.2c-0.2-0.5-0.4-1.1-0.5-1.7C27.5,21,28.2,18.7,30.4,18.2z"/>
		</g>
		<g>
			<path class="st35" d="M55.2,48.7h-4.1c-0.2,0-0.5,0.2-0.5,0.5v3.3c0,0.2,0.2,0.5,0.5,0.5h4.1c0.2,0,0.5-0.2,0.5-0.5v-3.3     C55.7,48.9,55.5,48.7,55.2,48.7z"/>
			<path class="st35" d="M62.5,45.6h-4.1c-0.2,0-0.5,0.2-0.5,0.5v6.5c0,0.2,0.2,0.5,0.5,0.5h4.1c0.2,0,0.5-0.2,0.5-0.5V46     C63,45.8,62.8,45.6,62.5,45.6z"/>
			<path class="st35" d="M69.8,42.4h-4.1c-0.2,0-0.5,0.2-0.5,0.5v9.6c0,0.2,0.2,0.5,0.5,0.5h4.1c0.2,0,0.5-0.2,0.5-0.5v-9.6     C70.3,42.6,70.1,42.4,69.8,42.4z"/>
			<path class="st35" d="M77.1,39.3H73c-0.2,0-0.5,0.2-0.5,0.5v12.8c0,0.2,0.2,0.5,0.5,0.5h4.1c0.2,0,0.5-0.2,0.5-0.5V39.7     C77.6,39.5,77.4,39.3,77.1,39.3z"/>
		</g>
		<path class="st3" d="M58.7,70.2h-4.1c-0.2,0-0.5,0.2-0.5,0.5V92c0,0.2,0.2,0.5,0.5,0.5h4.1c0.2,0,0.5-0.2,0.5-0.5V70.7    C59.1,70.4,58.9,70.2,58.7,70.2z"/>
	</g>
</g>
</svg>