<?xml version="1.0" standalone="no"?>
<!DOCTYPE svg PUBLIC "-//W3C//DTD SVG 1.1//EN" "http://www.w3.org/Graphics/SVG/1.1/DTD/svg11.dtd">
<svg xmlns="http://www.w3.org/2000/svg" xmlns:xlink="http://www.w3.org/1999/xlink" version="1.1" x="0px" y="0px" viewBox="0 0 113.4 113.4" style="enable-background:new 0 0 113.4 113.4;" xml:space="preserve" width="113.4000015258789" height="113.4000015258789">
<style type="text/css">
	.st0{fill:#E64F2D;}
	.st1{fill:#B9B9B9;}
	.st2{fill:#7C7C7C;}
	.st3{fill:#3C3C3C;}
	.st4{fill:#FFFFFF;}
	.st5{fill:none;}
	.st6{fill:#E6E7E8;}
	.st7{fill:#ED5C38;}
	.st8{fill:none;stroke:#FFFFFF;stroke-width:2;stroke-miterlimit:10;}
	.st9{fill:#B88337;}
	.st10{fill:#E4E4E3;}
	.st11{fill:#F15B38;}
	.st12{fill:none;stroke:#414042;stroke-width:0.6124;stroke-miterlimit:10;}
	.st13{fill:#D6D7D6;}
	.st14{fill:#CFD0D1;}
	.st15{fill:#424143;}
	.st16{fill:#E5E3E2;}
	.st17{fill:#646565;}
	.st18{fill:#DFDFDE;}
	.st19{fill:#D5D6D5;}
	.st20{fill:none;stroke:#E6E7E8;stroke-width:1.2332;stroke-linecap:round;stroke-miterlimit:10;}
	.st21{fill:none;stroke:#E64F2D;stroke-width:6.1658;stroke-miterlimit:10;}
	.st22{fill-rule:evenodd;clip-rule:evenodd;fill:#E64F2D;}
	.st23{fill:#414042;}
	.st24{fill:#828080;}
	.st25{fill:#44423D;}
	.st26{fill:#B1B3B6;}
	.st27{fill:#77787B;}
	.st28{clip-path:url(#SVGID_00000031183395135132584830000001301382892962152340_);}
	.st29{fill:none;stroke:#414042;stroke-width:1.4339;stroke-linecap:round;stroke-miterlimit:10;}
	.st30{fill:#494949;}
	.st31{fill:#F86767;}
	.st32{clip-path:url(#SVGID_00000021823308268446793680000005396017513398844571_);fill:#3C3C3C;}
	.st33{fill:none;stroke:#B1B3B6;stroke-width:2.1048;stroke-miterlimit:10;}
	.st34{fill:none;stroke:#FFFFFF;stroke-width:2.1048;stroke-miterlimit:10;}
	.st35{fill:#F15A38;}
	.st36{fill:none;stroke:#414042;stroke-width:1.0386;stroke-linecap:round;stroke-miterlimit:10;}
	.st37{fill-rule:evenodd;clip-rule:evenodd;fill:#B9B9B9;}
	.st38{fill:#E7512C;}
	.st39{fill:#E2E2E1;}
	.st40{fill:#D1D3D4;}
	.st41{fill:#646464;}
	.st42{fill:#BCBCBC;}
	.st43{fill:#E94F2D;}
	.st44{fill-rule:evenodd;clip-rule:evenodd;fill:#414042;}
	.st45{fill-rule:evenodd;clip-rule:evenodd;fill:#77787B;}
	.st46{fill:#E7E6E6;}
</style>
<g id="ICONS">
	<path class="st0" d="M75.5,52.7C75.5,52.7,75.5,52.7,75.5,52.7c0-0.1,0-0.1,0-0.2c0-1,0-2.1-0.2-3.1c-0.6-4-2.1-7.6-4.6-10.8   c-3.2-4.2-7.8-7.4-13.4-8.6c-1.1-0.2-2.2-0.4-3.3-0.5c-2-0.4-5-0.4-7.9-0.4c-3-0.1-5.9,0-7.9,0.4c-1.1,0.1-2.2,0.3-3.3,0.5   c-5.6,1.2-10.2,4.3-13.4,8.6c-2.5,3.2-3.9,6.8-4.6,10.8c-0.2,1-0.2,2.1-0.2,3.1c0,0,0,0.1,0,0.1c0,0,0,0,0,0.1c0,0,0,0,0,0   c0,4.1,1.1,8.3,3.5,12.2c4.3,6.8,10.5,10.5,18.5,11c2.4,0.2,4.9,0.1,7.3,0.1c2.4,0,4.9,0.1,7.3-0.1c8-0.5,14.2-4.1,18.5-11   C74.4,61.1,75.5,56.9,75.5,52.7C75.5,52.7,75.5,52.7,75.5,52.7z"/>
	<path class="st0" d="M68.7,50.1c2.5,0,4.9,0,7.4,0c9.9,0.1,18.5,7.5,20.2,17.3c2,11.8-5.7,22.5-17.5,24.4C77.9,91.9,77,92,76.1,92   c-3.9,0-7.8,0-11.7,0c-10.7-0.1-19.5-8.1-20.7-18.7c-0.1-0.8-0.1-1.5-0.2-2.3c-0.1-1,0-2,0.2-3c0.9-5.5,3.4-10,7.8-13.4   c3.8-3,8.1-4.5,13-4.5C65.9,50.1,67.3,50.1,68.7,50.1z M79.3,73.9c1.1,2,0.6,3.9-1,4.9c-1,0.6-2,0.7-3.1,0.4   c-1.1-0.4-1.7-1.2-2.3-2.4c0,2.5,0,4.8,0,7.1c0,1.3,1.1,2.4,2.4,2.5c1.1,0.1,2.1-0.1,3.2-0.3c3.6-0.7,6.7-2.5,9.1-5.4   c2.7-3.3,3.8-7,3.4-11.2c-0.4-4.5-2.7-8.2-6.3-10.9c-2.7-2-5.9-3-9.3-3c-1.3,0-2.5,1-2.5,2.3c-0.1,1.9,0,3.8,0,5.9   c0.4-0.8,0.7-1.4,1.3-1.8c1.4-1.1,2.9-1.1,4.4-0.1c1.2,0.9,1.7,2.5,1.1,4.1c-0.2,0.6-0.1,0.7,0.4,0.8c1.7,0.5,2.6,1.8,2.6,3.4   C82.7,72.2,81.6,73.3,79.3,73.9z M60.9,73.9c-2.1-0.4-3.3-1.6-3.4-3.5c0-0.9,0.3-1.7,0.8-2.3c0.6-0.8,1.5-1.2,2.6-1.3   c-1-2.1-0.6-4,1.1-5c1-0.6,2-0.7,3.1-0.2c1,0.4,1.7,1.2,2.1,2.2c0.1-1.8,0.1-3.7,0-5.5c0-1.3-0.9-2.4-2.2-2.5   c-0.7-0.1-1.4-0.1-2.1,0c-4.3,0.6-7.9,2.4-10.6,5.9c-2.5,3.2-3.6,6.9-3.2,11c0.4,3.8,2.1,7.1,5,9.8c3,2.7,6.6,4.1,10.6,4.1   c0.9,0,1.7-0.4,2.2-1.4c0.2-0.5,0.4-1,0.4-1.5c0-2.2,0-4.4,0-6.8c-1.1,2.4-3.1,3.3-5,2.3C60.4,78.1,59.8,76,60.9,73.9z"/>
	<path class="st1" d="M79.3,73.9c2.3-0.6,3.4-1.7,3.4-3.6c0-1.6-1-2.9-2.6-3.4c-0.5-0.2-0.7-0.2-0.4-0.8c0.6-1.6,0.1-3.3-1.1-4.1   c-1.4-1-3-1-4.4,0.1c-0.6,0.4-0.9,1.1-1.3,1.8c0-2.1,0-4,0-5.9c0-1.3,1.2-2.3,2.5-2.3c3.4,0,6.5,1,9.3,3c3.7,2.7,5.9,6.4,6.3,10.9   c0.4,4.1-0.8,7.9-3.4,11.2c-2.4,2.9-5.4,4.7-9.1,5.4c-1.1,0.2-2.1,0.3-3.2,0.3c-1.3-0.1-2.4-1.2-2.4-2.5c0-2.3,0-4.6,0-7.1   c0.5,1.2,1.2,2.1,2.3,2.4c1.1,0.4,2.1,0.2,3.1-0.4C79.9,77.9,80.3,75.9,79.3,73.9z"/>
	<path class="st1" d="M60.9,73.9c-1.1,2.1-0.5,4.2,1.4,5.2c1.9,0.9,3.9,0.1,5-2.3c0,2.4,0,4.6,0,6.8c0,0.5-0.1,1-0.4,1.5   c-0.5,0.9-1.2,1.4-2.2,1.4c-4.1,0-7.6-1.3-10.6-4.1c-2.9-2.6-4.6-5.9-5-9.8c-0.4-4,0.7-7.8,3.2-11c2.7-3.4,6.3-5.3,10.6-5.9   c0.7-0.1,1.4-0.1,2.1,0c1.2,0.1,2.2,1.3,2.2,2.5c0,1.8,0,3.6,0,5.5c-0.5-1-1.1-1.8-2.1-2.2c-1.1-0.4-2.1-0.3-3.1,0.2   c-1.8,1.1-2.2,2.9-1.1,5c-1,0.1-1.9,0.5-2.6,1.3c-0.5,0.7-0.9,1.4-0.8,2.3C57.6,72.3,58.8,73.5,60.9,73.9z"/>
	<g>
		<path class="st30" d="M59.6,39.3l-6.1-6.2c-0.4-0.5-0.5-1.1-0.2-1.7l2.7-4.7c0.2-0.4-0.1-0.8-0.6-0.7l-9.3,2.7c0,0-0.1,0-0.1,0    l-9.3-2.7c-0.4-0.1-0.8,0.3-0.6,0.7l2.7,4.7c0.3,0.5,0.2,1.2-0.2,1.7l-6.1,6.2c-0.4,0.4-0.1,1.2,0.5,1.1l8.7-0.7    c0.6-0.1,1.2,0.3,1.4,0.9l2.3,6.4c0.2,0.5,1,0.5,1.2,0l2.3-6.4c0.2-0.6,0.8-1,1.4-0.9l8.7,0.7C59.7,40.5,60,39.8,59.6,39.3z"/>
		<g>
			<path class="st30" d="M45.2,36.7c-0.6,0-1.1-0.5-1.2-1.1c0-0.3-0.1-6.6,2.1-9.9c2-3.1,4.4-4.3,4.5-4.3c0.6-0.3,1.3-0.1,1.6,0.5     c0.3,0.6,0.1,1.3-0.5,1.6c0,0-1.9,1-3.6,3.5c-1.8,2.7-1.7,8.5-1.7,8.6C46.4,36.2,45.9,36.7,45.2,36.7     C45.2,36.7,45.2,36.7,45.2,36.7z"/>
		</g>
	</g>
</g>
<g id="INFOS">
</g>
</svg>