<?xml version="1.0" standalone="no"?>
<!DOCTYPE svg PUBLIC "-//W3C//DTD SVG 1.1//EN" "http://www.w3.org/Graphics/SVG/1.1/DTD/svg11.dtd">
<svg xmlns="http://www.w3.org/2000/svg" id="INFOS" viewBox="0 0 113.39 113.39" width="113.38999938964844" height="113.38999938964844">
  <defs>
    <style>
      .cls-1 {
        fill: #e64f2d;
      }

      .cls-2 {
        fill: #b9b9b9;
      }

      .cls-3 {
        fill: #646565;
      }

      .cls-4 {
        fill: #3c3c3c;
      }
    </style>
  </defs>
  <g>
    <path class="cls-2" d="m81.16,36.42c2.36.62,4.73,1.23,7.1,1.78.66.15,1.32.31,1.98.47.15.04.3.07.48.12-.05.2-.22.26-.37.33-.45.15-.89.34-1.35.48-2.58.83-5.27,1.17-8.04,1.17-2.2,0-4.38-.26-6.56-.64-2.12-.37-4.12-1-5.98-2.05-1.73-.98-3.15-2.24-4.04-3.94-.23-.43-.34-.89-.4-1.35q.02-.47.55-.34c1.99.48,3.98.97,5.97,1.45,1.95.47,3.94.77,5.88,1.28,1.59.41,3.18.83,4.77,1.25Z"/>
    <path class="cls-1" d="m63.99,32.79c.23.62.42,1.25.78,1.82,1.09,1.69,2.66,2.9,4.52,3.82,1.45.72,2.99,1.21,4.59,1.52,2.09.4,4.19.69,6.31.73,3.31.07,6.51-.35,9.57-1.41.19-.06.32-.34.6-.14-2.89,2.08-6.21,3.31-9.91,3.77-2.63.33-5.27.21-7.9-.36-2.89-.63-5.17-2.13-6.83-4.42-.1-.13-.2-.26-.3-.39-.88-1.5-1.4-3.08-1.46-4.76,0-.06.01-.13.02-.19Z"/>
  </g>
  <g>
    <path class="cls-1" d="m35.56,49.77c1.91-4.61,1.96-9.41,1.39-14.26-.22-1.91-.87-3.73-1.42-5.56.45-.8,1.18-1.33,1.86-1.89.72-.57,1.51-1.03,2.34-1.42.27-.13.52-.36.87-.26.44-.13.87-.25,1.31-.38h0c1.21-.42,2.47-.54,3.73-.49,3.65.13,6.6,1.72,8.88,4.54,2.66,3.29,3.94,7.17,4.74,11.24.62,3.14,2.01,5.71,4.69,7.63,4.7,3.36,4.5,10.23-.31,13.47h0s0,0,0,0c-.43.38-.94.63-1.46.85-3.74,1.58-7.62,1.99-11.61,1.36-4.91-.78-8.98-3.06-12.21-6.82-1.53-1.78-2.64-3.83-3.8-5.85.33-.72.69-1.42.99-2.15Z"/>
    <path class="cls-3" d="m37.49,28.18c.98-.7,2.02-1.29,3.12-1.79-.74-1.48-1.61-2.87-2.88-3.95-.96-.82-1.83-.63-2.34.45,0,.26,0,.53,0,.79-.07.33.1.56.3.78.9.94,1.51,2.02,1.58,3.35,0,.15.03.32.22.38Z"/>
    <path class="cls-2" d="m35.39,22.87c-2.98,3.33-5.35,7.03-6.96,11.21-1.35,3.49-2.03,7.11-1.84,10.86.22,4.37,1.55,8.36,4.09,11.93.26.37.58.67,1.06.6.53-.07.8-.45.94-.95.46-1.61,1.02-3.17,1.89-4.61.28-.11.38-.38.5-.62,1.49-2.86,2.15-5.92,2.33-9.13.13-2.34.05-4.65-.28-6.96-.26-1.82-.84-3.57-1.42-5.3-.6-2.06-.63-4.13-.15-6.22.04-.29.09-.58-.16-.81Z"/>
    <path class="cls-3" d="m31.65,52.6c.02-7.56.98-15.04,1.9-22.52-2.69,7.34-3.61,14.82-1.9,22.52Z"/>
  </g>
  <g>
    <path class="cls-4" d="m38.13,91.03c.8-.04,1.6-.04,2.42.08,5.36.77,10.74-2.52,12.6-7.59.45-1.22.65-2.5.63-3.8-1.09-1.27-2.19-2.54-3.28-3.8-.25-.28-.06-.44.13-.62.77-.72,1.69-1.22,2.62-1.68-.29-1.06-.57-2.13-.86-3.19-1.35-.67-2.7-1.35-4.07-1.99-.5-.23-.46-.43-.13-.78.68-.73,1.51-1.28,2.32-1.85-1.03-1.8-2.27-3.43-3.76-4.89-1.01-.99-1.45-2.34-1.96-3.63-.2-.5-.39-1.02-.66-1.49-1.04-1.84-3.48-1.85-4.55-.02-.46.79-.72,1.66-1.06,2.5-.5,1.26-1.2,2.37-2.21,3.31-1.29,1.21-2.26,2.66-3.07,4.22.81.61,1.66,1.16,2.35,1.93.25.28.32.43-.09.62-1.4.67-2.79,1.38-4.18,2.07-.24.87-.86,2.2-1.19,3-6.86,17,7.98,17.6,7.98,17.6Zm5.73-20.06c-.66-.01-1.32,0-1.98,0-.68,0-1.36,0-2.04,0-.23,0-.43-.03-.37-.33.28-1.49.51-3.01,1.41-4.29.63-.9,1.41-.87,2.01.05.82,1.26,1.09,2.72,1.34,4.17.05.3-.08.4-.37.4Z"/>
    <path class="cls-3" d="m53.25,73.62c-.93.47-1.85.97-2.62,1.68-.19.18-.38.33-.13.62,1.1,1.26,2.19,2.53,3.28,3.8.8-1.89,1.94-3.48,3.75-4.53.34-.2.7-.51.6-.99-.1-.48-.52-.65-.95-.78-1.34-.4-2.64-.18-3.94.2Z"/>
    <path class="cls-3" d="m30.16,73.62c.93.47,1.85.97,2.62,1.68.19.18.38.33.13.62-1.1,1.26-2.19,2.53-3.28,3.8-.8-1.89-1.94-3.48-3.75-4.53-.34-.2-.7-.51-.6-.99.1-.48.52-.65.95-.78,1.34-.4,2.64-.18,3.94.2Z"/>
    <path class="cls-3" d="m39.14,81.61c1.56-.01,3.13-.02,4.69-.03.82,0,.81,0,.68-.8-.21-1.3-.53-2.57-1.1-3.77-.14-.3-.31-.61-.53-.87-.67-.81-1.55-.77-2.16.09-.79,1.14-1.11,2.47-1.41,3.79-.11.48-.19.97-.29,1.46.04.04.07.08.11.12Z"/>
    <path class="cls-3" d="m50.51,65.8c-.81.57-1.63,1.12-2.32,1.85-.32.34-.36.55.13.78,1.37.64,2.71,1.32,4.07,1.99.3-1.71,1.34-2.93,2.62-4,.33-.27.78-.52.6-1.02-.17-.49-.7-.54-1.14-.57-1.32-.08-2.54.29-3.71.88-.08.04-.17.06-.25.09Z"/>
    <path class="cls-3" d="m31.33,70.43c1.39-.69,2.78-1.39,4.18-2.07.41-.2.33-.35.09-.62-.68-.77-1.54-1.32-2.35-1.93-1.23-.54-2.45-1.07-3.84-.99-.16,0-.33,0-.47.04-.34.11-.74.15-.85.58-.1.4.2.64.46.85.79.65,1.54,1.34,2.05,2.25.34.6.59,1.22.73,1.89Z"/>
    <g>
      <path class="cls-2" d="m19.06,68.67l6.6,6.5,6.89,6.35,5.2,5.36-4.35,3.7s-9.84-.95-9.99-1.05-6.15-7.63-6.35-7.79-.55-7.21-.55-7.21l2.55-5.87Z"/>
      <path class="cls-4" d="m37.06,87.15c-.06.07-.13.14-.23.22-2.33,1.87-4.98,2.62-7.9,2.11-6.06-1.06-9.79-4.71-11.22-10.63-.75-3.1-.07-5.99,1.95-8.52.16-.2.59-.38.38-.68-.25-.36-.55-.74-.99-.9-.29-.11-.45.17-.6.35-3.11,3.73-4.04,7.98-2.71,12.63,1.8,6.33,7.81,10.55,14.37,10.16.58-.03,1.16-.08,1.73-.1,3.14-.58,7.4-2.96,5.22-4.62Z"/>
      <path class="cls-4" d="m19.88,78.26c.55-.01,1.01-.48.99-1-.02-.52-.5-.99-1.02-1-.54,0-1.05.53-1.03,1.06.03.53.5.95,1.06.94Z"/>
      <path class="cls-4" d="m22.08,78.01c.02.54.48.99,1.01.97.57-.01.99-.48.96-1.08-.03-.53-.52-.99-1.03-.95-.52.04-.96.53-.94,1.06Z"/>
      <path class="cls-4" d="m20.84,81.53c.01.56.44,1,.98,1,.57,0,1.01-.47.99-1.05-.01-.52-.5-.99-1.01-.97-.52.02-.98.5-.97,1.02Z"/>
      <path class="cls-4" d="m28.73,87.14c0,.53.47,1.04.96,1.04.53,0,1.04-.53,1.03-1.07-.02-.52-.5-.99-1.02-1-.51,0-.97.48-.97,1.02Z"/>
      <path class="cls-4" d="m33.17,86.41c.53,0,.98-.46.98-.99,0-.6-.42-1-1.03-.99-.58.01-.96.41-.95,1,0,.53.47.98,1,.98Z"/>
      <path class="cls-4" d="m26.18,79.41c-.01.54.44,1,.98,1.01.58.01.99-.39,1-.97,0-.58-.38-1-.96-1.01-.54-.01-1.01.44-1.02.97Z"/>
      <path class="cls-4" d="m24.5,85.16c0,.59.39.99.98.99.53,0,1.01-.48,1-1,0-.52-.48-.99-1.02-.98-.59,0-.97.4-.97.99Z"/>
      <path class="cls-4" d="m21.57,72.84c-.53.02-.99.49-.99,1.02,0,.53.48.98,1.03.97.58-.01.97-.42.96-1.01-.01-.59-.43-1-.99-.98Z"/>
      <path class="cls-4" d="m29.02,82.94c-.6,0-.98.38-.97.98,0,.58.42,1,.98.99.53,0,1.02-.49,1.01-1,0-.52-.48-.97-1.03-.97Z"/>
      <path class="cls-4" d="m24.86,80.75c-.52,0-1.01.48-1,1,0,.52.49.99,1.02.99.57,0,.96-.4.96-1,0-.6-.38-.99-.97-.99Z"/>
    </g>
    <path class="cls-3" d="m41.88,70.97c.66,0,1.32,0,1.98,0,.29,0,.42-.1.37-.4-.25-1.45-.52-2.91-1.34-4.17-.6-.92-1.38-.95-2.01-.05-.89,1.28-1.12,2.8-1.41,4.29-.06.29.15.33.37.33.68,0,1.36,0,2.04,0Z"/>
  </g>
  <g>
    <g>
      <path class="cls-2" d="m68.27,83.62c-1.3,0-2.47-.18-3.59-.63-3.09-1.24-4.48-3.98-3.53-7.18,1.34-4.54,4.38-7.53,8.75-9.22,1.72-.67,3.5-1.05,5.36-.95,1.64.09,3.12.6,4.43,1.6,1.61,1.23,1.91,2.96,1.67,4.82-.84,6.52-6.82,10.79-11.4,11.4-.59.08-1.18.12-1.68.15Zm4.41-13.52c.62.02,1.23-.66,1.24-1.39.01-.59-.45-1.14-.97-1.14-.63,0-1.19.6-1.22,1.31-.03.66.39,1.2.95,1.21Zm-.43,4.08c0-.54-.44-1-.95-1.01-.67-.01-1.35.72-1.35,1.45,0,.57.4.98.95.99.69,0,1.36-.69,1.35-1.43Zm6.31-1.42c.01-.58-.39-1-.99-1-.71,0-1.37.62-1.39,1.31-.01.58.41,1.01.99,1.01.7,0,1.37-.64,1.39-1.32Zm-11.64,5.91c0-.62-.38-1.06-.93-1.06-.66,0-1.29.68-1.3,1.4,0,.62.39,1.06.94,1.05.69-.01,1.28-.65,1.29-1.39Zm4.4.89c0,.66.33,1.04.93,1.03.68,0,1.29-.65,1.31-1.39.02-.6-.4-1.06-.95-1.06-.68.01-1.28.66-1.29,1.41Zm-6.65-5.94c-.02.71.37,1.21.93,1.21.6,0,1.19-.69,1.2-1.41,0-.6-.45-1.15-.95-1.15-.6,0-1.15.64-1.17,1.35Z"/>
      <path class="cls-4" d="m72.68,70.09c-.56-.02-.98-.56-.95-1.21.03-.72.6-1.32,1.22-1.31.52,0,.98.55.97,1.14-.01.72-.62,1.4-1.24,1.39Z"/>
      <path class="cls-4" d="m72.25,74.17c0,.73-.65,1.43-1.35,1.43-.55,0-.94-.42-.95-.99,0-.73.68-1.46,1.35-1.45.5,0,.94.48.95,1.01Z"/>
      <path class="cls-4" d="m78.55,72.75c-.02.68-.69,1.32-1.39,1.32-.58,0-1-.43-.99-1.01.02-.69.68-1.32,1.39-1.31.59,0,1,.42.99,1Z"/>
      <path class="cls-4" d="m66.91,78.67c0,.75-.6,1.38-1.29,1.39-.55,0-.95-.43-.94-1.05.01-.72.64-1.4,1.3-1.4.55,0,.93.44.93,1.06Z"/>
      <path class="cls-4" d="m71.32,79.56c.01-.75.61-1.4,1.29-1.41.55,0,.96.45.95,1.06-.02.74-.63,1.38-1.31,1.39-.6,0-.94-.37-.93-1.03Z"/>
      <path class="cls-4" d="m64.67,73.62c.02-.72.57-1.35,1.17-1.35.5,0,.96.55.95,1.15,0,.72-.59,1.41-1.2,1.41-.56,0-.94-.5-.93-1.21Z"/>
      <path class="cls-1" d="m99.89,67.57c-.96-4.88-3.59-8.53-8.16-10.65-2.57-1.19-5.32-1.58-8.13-1.65-3.26-.08-6.16.88-8.74,2.83-1.25.95-2.22,2.1-2.85,3.48.29-.02,1.14-.03.89-.03-.3,0-.59.01-.89.03-.24.53-.43,1.08-.57,1.68-.09.38-.06.53.42.44,2.11-.41,4.22-.46,6.34-.06,2.04.39,3.69,1.33,4.85,2.67h0c-.16-.19-.32-.37-.48-.54,2.54,2.66,4.11,6.36,4.11,10.45,0,2.65-.66,5.13-1.81,7.27.13-.15.29-.2.52-.19,2.59.13,5.02-.48,7.33-1.61,2.1-1.02,4.11-2.18,5.42-4.22,1.97-3.06,2.45-6.4,1.76-9.92Zm-25.53-5.93c-.23-.03-.46-.05-.69-.06.23.01.46.03.69.06Zm.14.02c.19.02.38.05.57.08-.19-.03-.38-.06-.57-.08Zm3.49.94c.15.06.3.13.45.2-.15-.07-.3-.13-.45-.2Zm-2.74-.82c.17.03.34.06.51.1-.17-.04-.34-.07-.51-.1Zm.72.15c.16.04.32.08.48.13-.16-.05-.32-.09-.48-.13Zm.69.19c.16.05.31.1.46.15-.15-.05-.31-.1-.46-.15Zm.67.22c.15.06.3.11.45.17-.15-.06-.3-.12-.45-.17Zm4.72,2.94c.16.15.32.31.47.47-.15-.16-.31-.32-.47-.47Zm-3.43-2.39c.15.07.29.15.44.22-.15-.08-.29-.15-.44-.22Zm.62.32c.15.08.29.17.44.25-.14-.09-.29-.17-.44-.25Zm.6.35c.15.09.29.19.43.28-.14-.1-.29-.19-.43-.28Zm.58.39c.15.1.29.21.44.32-.14-.11-.29-.21-.44-.32Zm.56.41c.15.12.3.24.44.36-.14-.12-.29-.24-.44-.36Zm.54.44c.15.13.3.27.45.41-.15-.14-.3-.27-.45-.41Z"/>
    </g>
    <path class="cls-1" d="m86.68,76.22c0-3.83-1.38-7.31-3.63-9.92h0c1.24,1.46,1.9,3.37,1.78,5.56-.12,2.29-.93,4.36-2.22,6.23-2.9,4.19-7,6.47-11.93,7.4-1.75.33-3.51.38-5.27.08-1.6-.27-3.06-.81-4.33-1.79,0,0,0,0,0,0-.56-.44-1.08-.95-1.56-1.58.12.56.32.92.52,1.26,1.18,1.94,2.69,3.38,4.47,4.41,0,0,0,0,0,0,0,0,0,0,0,0,2.32,1.9,5.23,3.03,8.38,3.03,5.12,0,9.59-2.98,11.96-7.39,0,0,0,0,0,0,1.15-2.14,1.81-4.63,1.81-7.27Z"/>
  </g>
  <g>
    <path class="cls-2" d="m85.55,41.47c3.22.06,6.44.11,9.66.08.9,0,1.79-.01,2.69-.01.21,0,.41,0,.65,0,0,.27-.2.4-.37.53-.53.33-1.04.7-1.58,1.02-3.05,1.84-6.4,3.09-9.94,3.94-2.82.68-5.7,1.01-8.61,1.2-2.83.18-5.6,0-8.3-.75-2.53-.71-4.73-1.86-6.4-3.74-.43-.48-.71-1.02-.93-1.59q-.11-.6.59-.6c2.7,0,5.4,0,8.1,0,2.65,0,5.29-.23,7.94-.19,2.17.03,4.33.07,6.5.11Z"/>
    <path class="cls-1" d="m62.41,42.15c.49.71.92,1.44,1.57,2.06,1.92,1.8,4.31,2.85,6.98,3.44,2.09.46,4.21.62,6.35.51,2.8-.14,5.58-.42,8.31-1.01,4.26-.93,8.24-2.43,11.83-4.71.22-.14.31-.53.73-.36-3.06,3.51-6.93,6.08-11.53,7.8-3.27,1.23-6.69,1.88-10.23,1.97-3.9.1-7.28-1.1-10.13-3.48-.16-.14-.33-.27-.5-.4-1.59-1.63-2.76-3.45-3.35-5.56-.02-.08-.02-.16-.03-.25Z"/>
  </g>
</svg>