<?xml version="1.0" standalone="no"?>
<!DOCTYPE svg PUBLIC "-//W3C//DTD SVG 1.1//EN" "http://www.w3.org/Graphics/SVG/1.1/DTD/svg11.dtd">
<svg xmlns="http://www.w3.org/2000/svg" xmlns:xlink="http://www.w3.org/1999/xlink" version="1.1" x="0px" y="0px" viewBox="0 0 113.4 113.4" style="enable-background:new 0 0 113.4 113.4;" xml:space="preserve" width="113.4000015258789" height="113.4000015258789">
<style type="text/css">
	.st0{fill:#E64F2D;}
	.st1{fill:#B9B9B9;}
	.st2{fill:#7C7C7C;}
	.st3{fill:#3C3C3C;}
	.st4{fill:#FFFFFF;}
	.st5{fill:none;}
	.st6{fill:#E6E7E8;}
	.st7{fill:#ED5C38;}
	.st8{fill:none;stroke:#FFFFFF;stroke-width:2;stroke-miterlimit:10;}
	.st9{fill:#B88337;}
	.st10{fill:#E4E4E3;}
	.st11{fill:#F15B38;}
	.st12{fill:none;stroke:#414042;stroke-width:0.6124;stroke-miterlimit:10;}
	.st13{fill:#D6D7D6;}
	.st14{fill:#CFD0D1;}
	.st15{fill:#424143;}
	.st16{fill:#E5E3E2;}
	.st17{fill:#646565;}
	.st18{fill:#DFDFDE;}
	.st19{fill:#D5D6D5;}
	.st20{fill:none;stroke:#E6E7E8;stroke-width:1.2332;stroke-linecap:round;stroke-miterlimit:10;}
	.st21{fill:none;stroke:#E64F2D;stroke-width:6.1658;stroke-miterlimit:10;}
	.st22{fill-rule:evenodd;clip-rule:evenodd;fill:#E64F2D;}
	.st23{fill:#414042;}
	.st24{fill:#828080;}
	.st25{fill:#44423D;}
	.st26{fill:#B1B3B6;}
	.st27{fill:#77787B;}
	.st28{clip-path:url(#SVGID_00000008140893491074305090000002217031533877203845_);}
	.st29{fill:none;stroke:#414042;stroke-width:1.4339;stroke-linecap:round;stroke-miterlimit:10;}
	.st30{fill:#494949;}
	.st31{fill:#F86767;}
	.st32{clip-path:url(#SVGID_00000044866137837130482070000011891869174923602312_);fill:#3C3C3C;}
	.st33{fill:none;stroke:#B1B3B6;stroke-width:2.1048;stroke-miterlimit:10;}
	.st34{fill:none;stroke:#FFFFFF;stroke-width:2.1048;stroke-miterlimit:10;}
	.st35{fill:#F15A38;}
	.st36{fill:none;stroke:#414042;stroke-width:1.0386;stroke-linecap:round;stroke-miterlimit:10;}
	.st37{fill-rule:evenodd;clip-rule:evenodd;fill:#B9B9B9;}
	.st38{fill:#E7512C;}
	.st39{fill:#E2E2E1;}
	.st40{fill:#D1D3D4;}
	.st41{fill:#646464;}
	.st42{fill:#BCBCBC;}
	.st43{fill:#E94F2D;}
	.st44{fill-rule:evenodd;clip-rule:evenodd;fill:#414042;}
	.st45{fill-rule:evenodd;clip-rule:evenodd;fill:#77787B;}
	.st46{fill:#E7E6E6;}
</style>
<g id="ICONS">
	<g>
		<g>
			<ellipse transform="matrix(0.2782 -0.9605 0.9605 0.2782 -40.434 88.9436)" class="st17" cx="39" cy="71.4" rx="6.1" ry="11.4"/>
			
				<rect x="34.2" y="24.9" transform="matrix(0.9605 0.2782 -0.2782 0.9605 15.35 -10.7338)" class="st17" width="22.6" height="47.6"/>
			
				<ellipse transform="matrix(0.2782 -0.9605 0.9605 0.2782 12.5354 68.8522)" class="st3" cx="52.1" cy="26.1" rx="4.4" ry="11.4"/>
			<path class="st0" d="M57.6,68.4l6.9-23.9c0.5-1.7,0.3-3.4-0.4-5l-2.6-5.4c-3.2,0.9-7.3,0.8-11.7-0.5c-4.3-1.3-7.9-3.4-10.1-5.9     L34.7,31c-1.5,0.9-2.5,2.3-3,4l-7,24.2l0,0c-1.5,5.3,4.6,11.7,13.7,14.3c9.1,2.6,17.7,0.5,19.2-4.8     C57.6,68.6,57.6,68.5,57.6,68.4z"/>
		</g>
		<g>
			
				<ellipse transform="matrix(0.9739 -0.2269 0.2269 0.9739 -9.7884 18.3467)" class="st17" cx="74.9" cy="51.8" rx="8.6" ry="7.2"/>
			<polygon class="st17" points="83.3,49.8 66.5,53.7 72.2,87.2 93,82.3    "/>
			<path class="st3" d="M92.9,82c0.9,3.9-3.2,7.5-8.9,8.8c-5.7,1.3-11-0.1-11.9-3.9c-0.9-3.9,3-8.1,8.8-9.4S92,78.2,92.9,82z"/>
			<path class="st0" d="M71.3,80.6c1.9-2.7,4-4.8,9-5.9c5.2-1.2,7.8-0.3,10.7,1.3l0.1,0l0.8-1.3c0.8-1.4,1-3.1,0.5-4.7l-5.5-17.5     l-22.1,5.2l2.8,18.2c0.3,1.6,1.2,3,2.5,3.9L71.3,80.6L71.3,80.6z"/>
			
				<ellipse transform="matrix(0.9739 -0.2269 0.2269 0.9739 -10.6838 18.6667)" class="st0" cx="75.9" cy="55.8" rx="11.4" ry="9.6"/>
		</g>
	</g>
</g>
<g id="INFOS">
</g>
</svg>