<?xml version="1.0" standalone="no"?>
<!DOCTYPE svg PUBLIC "-//W3C//DTD SVG 1.1//EN" "http://www.w3.org/Graphics/SVG/1.1/DTD/svg11.dtd">
<svg xmlns="http://www.w3.org/2000/svg" xmlns:xlink="http://www.w3.org/1999/xlink" version="1.1" x="0px" y="0px" viewBox="0 0 113.4 113.4" style="enable-background:new 0 0 113.4 113.4;" xml:space="preserve" width="113.4000015258789" height="113.4000015258789">
<style type="text/css">
	.st0{fill:#E64F2D;}
	.st1{fill:#B9B9B9;}
	.st2{fill:#7C7C7C;}
	.st3{fill:#3C3C3C;}
	.st4{fill:#FFFFFF;}
	.st5{fill:none;}
	.st6{fill:#E6E7E8;}
	.st7{fill:#ED5C38;}
	.st8{fill:none;stroke:#FFFFFF;stroke-width:2;stroke-miterlimit:10;}
	.st9{fill:#B88337;}
	.st10{fill:#E4E4E3;}
	.st11{fill:#F15B38;}
	.st12{fill:none;stroke:#414042;stroke-width:0.6124;stroke-miterlimit:10;}
	.st13{fill:#D6D7D6;}
	.st14{fill:#CFD0D1;}
	.st15{fill:#424143;}
	.st16{fill:#E5E3E2;}
	.st17{fill:#646565;}
	.st18{fill:#DFDFDE;}
	.st19{fill:#D5D6D5;}
	.st20{fill:none;stroke:#E6E7E8;stroke-width:1.2332;stroke-linecap:round;stroke-miterlimit:10;}
	.st21{fill:none;stroke:#E64F2D;stroke-width:6.1658;stroke-miterlimit:10;}
	.st22{fill-rule:evenodd;clip-rule:evenodd;fill:#E64F2D;}
	.st23{fill:#414042;}
	.st24{fill:#828080;}
	.st25{fill:#44423D;}
	.st26{fill:#B1B3B6;}
	.st27{fill:#77787B;}
	.st28{clip-path:url(#SVGID_00000035504390615382608870000011293846756577402246_);}
	.st29{fill:none;stroke:#414042;stroke-width:1.4339;stroke-linecap:round;stroke-miterlimit:10;}
	.st30{fill:#494949;}
	.st31{fill:#F86767;}
	.st32{clip-path:url(#SVGID_00000000909080562906587690000004339439700913635767_);fill:#3C3C3C;}
	.st33{fill:none;stroke:#B1B3B6;stroke-width:2.1048;stroke-miterlimit:10;}
	.st34{fill:none;stroke:#FFFFFF;stroke-width:2.1048;stroke-miterlimit:10;}
	.st35{fill:#F15A38;}
	.st36{fill:none;stroke:#414042;stroke-width:1.0386;stroke-linecap:round;stroke-miterlimit:10;}
	.st37{fill-rule:evenodd;clip-rule:evenodd;fill:#B9B9B9;}
	.st38{fill:#E7512C;}
	.st39{fill:#E2E2E1;}
	.st40{fill:#D1D3D4;}
	.st41{fill:#646464;}
	.st42{fill:#BCBCBC;}
	.st43{fill:#E94F2D;}
	.st44{fill-rule:evenodd;clip-rule:evenodd;fill:#414042;}
	.st45{fill-rule:evenodd;clip-rule:evenodd;fill:#77787B;}
	.st46{fill:#E7E6E6;}
</style>
<g id="ICONS">
</g>
<g id="INFOS">
	<g>
		<g>
			<path class="st11" d="M37.3,71.5c0,0,0.5,4.8,3.4,8.3c2.6,3.1,6.4,5,6.4,5l1.1-1.2c0,0-0.6-0.3-1-2.4     C46.6,79,46.8,71.6,37.3,71.5z"/>
			<path class="st27" d="M49.1,92.4c-0.1-1.2-0.5-5-0.2-6.3c0.2-0.8,4.1-8,4.6-8.5L47,84.8c0,0-0.2,5.9-0.6,7.7H49.1z"/>
		</g>
		<g>
			<polygon class="st27" points="61.6,92.4 62.4,77.6 64.6,77.6 65.4,92.4    "/>
			<path class="st11" d="M63.7,78.1c0,0,12.4-5,12.3-16.1c0,0-5.3,0-8.8,4.3C63.9,70.6,63.7,78.1,63.7,78.1z"/>
			<path class="st11" d="M63.7,78.1c0,0,1.9-7.8-4.2-13.3c0,0-2.5,3.4-1.5,7.9C59.1,77.2,63.7,78.1,63.7,78.1z"/>
		</g>
		<g>
			<polygon class="st27" points="77.9,92.4 78.4,79.9 79.8,79.9 80.3,92.4    "/>
			<path class="st11" d="M78.3,81.2c0,0-0.6-8,6.3-12.4c0,0,1.9,3.8,0.2,8C83,81.1,78.3,81.2,78.3,81.2z"/>
		</g>
		<g>
			<polygon class="st27" points="33.2,92.4 33.6,85 35.1,85 35.5,92.4    "/>
			<path class="st11" d="M35.1,86.2c0,0,0.6-4.9-6.3-7.7c0,0-1.9,2.3-0.2,4.9C30.3,86.1,35.1,86.2,35.1,86.2z"/>
		</g>
		<path class="st44" d="M81.5,67.4c0.5,0.9,0.1,2.4-0.9,2.9s-2.1-0.1-2.6-1s0.1-3.6,0.1-3.6S81,66.5,81.5,67.4L81.5,67.4z"/>
		<path class="st44" d="M78.4,56.9c0.5,0.9,0.1,2.4-0.9,2.9c-0.9,0.5-2.1-0.1-2.6-1s0.1-3.6,0.1-3.6S77.9,56,78.4,56.9L78.4,56.9z"/>
		<path class="st44" d="M81.1,62.3c0.3,0.6,0.2,1.1-0.4,1.4c-0.6,0.4-1.1,0.2-1.4-0.4c-0.3-0.6,0.1-2,0.1-2S80.8,61.7,81.1,62.3    L81.1,62.3z"/>
		<path class="st44" d="M50.9,66.9c-0.3,0.6-0.2,1.1,0.4,1.4c0.6,0.4,1.1,0.2,1.4-0.4s-0.1-2-0.1-2S51.3,66.3,50.9,66.9L50.9,66.9z"/>
		<path class="st44" d="M52.5,70.4c0,0-2.5,1-2.9,1.7c-0.5,0.9-0.4,2.2,0.6,2.7c0.9,0.5,2-0.1,2.6-1C53,73.1,52.5,70.4,52.5,70.4    L52.5,70.4z"/>
		<path class="st44" d="M63.7,58.4c0,0-2.5,1-2.9,1.7c-0.5,0.9-0.4,2.2,0.6,2.7c0.9,0.5,2-0.1,2.6-1C64.2,61.1,63.7,58.4,63.7,58.4    L63.7,58.4z"/>
		<g>
			<path class="st45" d="M52.2,24.6c-0.6,0.1-1.3,0.4-1.8,0.9L49.9,26c-3.7-2.3-9.7-1-14.1,3.4c-3.8,3.8-5.3,8.9-4.1,12.5l-2.7,2.4     c-1.2,1.1-1.3,2.8-0.4,3.7l15.3,15.2c0.9,0.9,2.7,0.8,3.7-0.4l6.4-7.3l16.8,0.4c-0.3,1.1-0.2,1.9,0.1,2c0.5,0.2,1.6-1.2,2.5-3.1     c0.8-1.9,1-3.7,0.5-3.9c-0.5-0.2-1.4,0.8-2.1,2.4l-12.7-3.6l7.4-8.4c0.6-0.6,0.9-1.4,1-2.1L52.2,24.6z M47.8,27.8L33.9,40     c-0.3-2.6,1-6.1,3.7-8.8C40.8,28,45.1,26.7,47.8,27.8L47.8,27.8z"/>
			<path class="st44" d="M58.8,26.4l0.1-0.1l1.1-1.1c0.2-0.2,0.6-0.2,0.8,0l5.7,5.7c0.2,0.2,0.2,0.6,0,0.8l-1.1,1.1L65.3,33l4.3,4.3     c0.3,0.3,0.3,0.9,0,1.2L68,40.1c-0.2,0.2-0.5,0.3-0.7,0.2L55.7,29.1l-4.2-4.1c-0.3-0.3-0.3-0.9,0-1.2l1.6-1.6     c0.3-0.3,0.9-0.3,1.2,0L58.8,26.4z"/>
		</g>
	</g>
</g>
</svg>