<?xml version="1.0" standalone="no"?>
<!DOCTYPE svg PUBLIC "-//W3C//DTD SVG 1.1//EN" "http://www.w3.org/Graphics/SVG/1.1/DTD/svg11.dtd">
<svg xmlns="http://www.w3.org/2000/svg" xmlns:xlink="http://www.w3.org/1999/xlink" version="1.1" x="0px" y="0px" viewBox="0 0 113.4 113.4" style="enable-background:new 0 0 113.4 113.4;" xml:space="preserve" width="113.4000015258789" height="113.4000015258789">
<style type="text/css">
	.st0{fill:#E64F2D;}
	.st1{fill:#B9B9B9;}
	.st2{fill:#7C7C7C;}
	.st3{fill:#3C3C3C;}
	.st4{fill:#FFFFFF;}
	.st5{fill:none;}
	.st6{fill:#E6E7E8;}
	.st7{fill:#ED5C38;}
	.st8{fill:none;stroke:#FFFFFF;stroke-width:2;stroke-miterlimit:10;}
	.st9{fill:#B88337;}
	.st10{fill:#E4E4E3;}
	.st11{fill:#F15B38;}
	.st12{fill:none;stroke:#414042;stroke-width:0.6124;stroke-miterlimit:10;}
	.st13{fill:#D6D7D6;}
	.st14{fill:#CFD0D1;}
	.st15{fill:#424143;}
	.st16{fill:#E5E3E2;}
	.st17{fill:#646565;}
	.st18{fill:#DFDFDE;}
	.st19{fill:#D5D6D5;}
	.st20{fill:none;stroke:#E6E7E8;stroke-width:1.2332;stroke-linecap:round;stroke-miterlimit:10;}
	.st21{fill:none;stroke:#E64F2D;stroke-width:6.1658;stroke-miterlimit:10;}
	.st22{fill-rule:evenodd;clip-rule:evenodd;fill:#E64F2D;}
	.st23{fill:#414042;}
	.st24{fill:#828080;}
	.st25{fill:#44423D;}
	.st26{fill:#B1B3B6;}
	.st27{fill:#77787B;}
	.st28{clip-path:url(#SVGID_00000032616131286379609210000004514283145790965120_);}
	.st29{fill:none;stroke:#414042;stroke-width:1.4339;stroke-linecap:round;stroke-miterlimit:10;}
	.st30{fill:#494949;}
	.st31{fill:#F86767;}
	.st32{clip-path:url(#SVGID_00000005976456295852982500000007366449306458078394_);fill:#3C3C3C;}
	.st33{fill:none;stroke:#B1B3B6;stroke-width:2.1048;stroke-miterlimit:10;}
	.st34{fill:none;stroke:#FFFFFF;stroke-width:2.1048;stroke-miterlimit:10;}
	.st35{fill:#F15A38;}
	.st36{fill:none;stroke:#414042;stroke-width:1.0386;stroke-linecap:round;stroke-miterlimit:10;}
	.st37{fill-rule:evenodd;clip-rule:evenodd;fill:#B9B9B9;}
	.st38{fill:#E7512C;}
	.st39{fill:#E2E2E1;}
	.st40{fill:#D1D3D4;}
	.st41{fill:#646464;}
	.st42{fill:#BCBCBC;}
	.st43{fill:#E94F2D;}
	.st44{fill-rule:evenodd;clip-rule:evenodd;fill:#414042;}
	.st45{fill-rule:evenodd;clip-rule:evenodd;fill:#77787B;}
	.st46{fill:#E7E6E6;}
</style>
<g id="ICONS">
</g>
<g id="INFOS">
	<g>
		<rect x="16.8" y="21.9" class="st27" width="76.7" height="57.5"/>
		<rect x="23.2" y="28.3" class="st4" width="63.9" height="44.7"/>
		<rect x="23.2" y="39.8" class="st40" width="63.9" height="33.2"/>
		<rect x="59.7" y="44.2" class="st23" width="33.7" height="35.1"/>
		<rect x="59.7" y="44.2" class="st26" width="27.3" height="28.8"/>
		<rect x="40.7" y="81.8" class="st27" width="28.8" height="7.2"/>
		<rect x="59.7" y="81.8" class="st23" width="12.8" height="7.2"/>
		<rect x="63.1" y="47.4" class="st27" width="33.5" height="44.7"/>
		<rect x="66.3" y="53.8" class="st4" width="27.2" height="31.9"/>
		<g>
			<path class="st35" d="M32.3,34.5V34c0-0.3-0.1-0.5-0.2-0.6c-0.2-0.2-0.5-0.3-0.8-0.3s-0.6,0.1-1,0.2v0.6c0.2-0.2,0.5-0.2,0.6-0.2     c0.3,0,0.4,0.1,0.5,0.3c-0.3,0-0.4,0-0.5,0.1c-0.6,0.1-0.8,0.3-0.8,0.7s0.2,0.6,0.6,0.6c0.2,0,0.5-0.1,0.7-0.3     c0.1,0.2,0.2,0.2,0.5,0.3c0.2,0,0.2,0,0.5-0.1v-0.4C32.4,34.9,32.3,34.8,32.3,34.5 M31.6,34.7c-0.2,0.1-0.2,0.1-0.3,0.2     c-0.2,0-0.3-0.1-0.2-0.2c0-0.2,0.2-0.3,0.6-0.3V34.7z"/>
			<path class="st35" d="M50.4,33.4c-0.1-0.2-0.3-0.3-0.6-0.3c-0.2,0-0.3,0.1-0.5,0.2c-0.1,0.1-0.2,0.1-0.2,0.2     c-0.2-0.2-0.3-0.4-0.6-0.4s-0.6,0.2-0.7,0.4l0,0l-0.1-0.4L47,33.1v2.2h0.8l0,0l0,0c0,0,0-0.7,0-1v-0.4c0.2-0.2,0.2-0.2,0.3-0.2     c0.2,0,0.3,0.1,0.3,0.3v1.3h0.8v-1.4c0.2-0.2,0.2-0.2,0.3-0.2c0.2,0,0.3,0.1,0.3,0.3v1.3h0.8v-1.4C50.5,33.6,50.5,33.5,50.4,33.4     "/>
			<path class="st35" d="M37.3,32.2v1.3c0.2-0.2,0.5-0.3,0.7-0.3c0.5,0,0.7,0.3,0.7,0.8v1.4h-0.8v-1.2c0-0.2-0.1-0.4-0.3-0.4     c-0.2,0-0.2,0.1-0.4,0.2v1.4h-0.8v-3.2L37.3,32.2L37.3,32.2z"/>
			<path class="st35" d="M45,34.2c0.1,0.7-0.5,1.2-1.2,1.2c-0.4,0-0.7-0.2-1-0.3c-0.2-0.2-0.3-0.5-0.3-0.8c0-0.6,0.5-1.1,1.2-1.2     C44.4,33.1,44.9,33.5,45,34.2 M43.3,34.2c0,0.3,0.2,0.6,0.5,0.6s0.4-0.2,0.4-0.6c0-0.3-0.2-0.6-0.5-0.6     C43.4,33.7,43.3,33.9,43.3,34.2"/>
			<polygon class="st35" points="40.3,35.4 40.6,34.5 41,35.4 41.7,35.4 42.6,33.2 41.8,33.1 41.4,34.3 40.9,33.1 40.2,33.2      40.4,33.8 40.2,34.5 39.5,33.1 38.8,33.2 39.7,35.4    "/>
			<path class="st35" d="M34.2,33.1c-0.2,0-0.5,0.2-0.6,0.5l0,0l0,0l0,0c0-0.1,0-0.5,0-0.5l-0.6,0.1v2.2h0.8v-1.1l0,0     c0.2-0.2,0.3-0.3,0.5-0.3c0.1,0,0.1,0,0.2,0l0.2-0.8C34.3,33.1,34.3,33.1,34.2,33.1"/>
			<path class="st35" d="M46.6,33.1c-0.2,0-0.5,0.2-0.6,0.5l0,0l0,0l0,0c0-0.2-0.1-0.6-0.1-0.6l-0.6,0.1v2.2H46v-1.1l0,0     c0.2-0.2,0.3-0.3,0.5-0.3c0.1,0,0.1,0,0.2,0l0.2-0.8C46.6,33.1,46.6,33.1,46.6,33.1"/>
			<path class="st35" d="M35.9,34.7c-0.2,0-0.3-0.1-0.3-0.4v-0.6h0.6v-0.6h-0.6v-0.6h-0.4c-0.1,0.5-0.3,0.6-0.6,0.7v0.6h0.2v0.8     c0,0.2,0,0.4,0.1,0.6c0.1,0.2,0.3,0.3,0.6,0.3c0.2,0,0.5-0.1,0.7-0.2v-0.6C36.1,34.7,36,34.7,35.9,34.7"/>
			<rect x="27.5" y="32.2" class="st35" width="2.4" height="0.8"/>
			<polygon class="st35" points="29.9,35.4 27.5,35.4 27.5,34.6 30.1,34.6    "/>
			<path class="st35" d="M29.1,33.2c-0.1,0.2-0.2,0.3-0.2,0.4c0,0-0.1,0-0.1,0.1c-0.2,0.1-0.3,0-0.4-0.1c-0.2-0.2-0.6-0.4-0.9-0.3     v0.6l0,0c0.2-0.1,0.3,0.1,0.4,0.2c0.3,0.3,0.8,0.5,1.2,0.3c0.4-0.2,0.7-0.6,0.7-1v-0.1L29.1,33.2z"/>
		</g>
		<g>
			<rect x="68.5" y="56.4" class="st35" width="2.4" height="0.8"/>
			<polygon class="st35" points="71,59.6 68.5,59.6 68.5,58.9 71.2,58.9    "/>
			<path class="st35" d="M70.1,57.4c-0.1,0.2-0.2,0.3-0.2,0.4c0,0-0.1,0-0.1,0.1c-0.2,0.1-0.3,0-0.4-0.1c-0.2-0.2-0.6-0.4-0.9-0.3     v0.6l0,0c0.2-0.1,0.3,0.1,0.4,0.2c0.3,0.3,0.8,0.5,1.2,0.3c0.4-0.2,0.7-0.6,0.7-1v-0.1L70.1,57.4z"/>
		</g>
		<rect x="66.3" y="62.2" class="st40" width="27.2" height="23.6"/>
	</g>
</g>
</svg>