<?xml version="1.0" standalone="no"?>
<!DOCTYPE svg PUBLIC "-//W3C//DTD SVG 1.1//EN" "http://www.w3.org/Graphics/SVG/1.1/DTD/svg11.dtd">
<svg xmlns="http://www.w3.org/2000/svg" xmlns:xlink="http://www.w3.org/1999/xlink" version="1.1" x="0px" y="0px" viewBox="0 0 113.4 113.4" style="enable-background:new 0 0 113.4 113.4;" xml:space="preserve" width="113.4000015258789" height="113.4000015258789">
<style type="text/css">
	.st0{fill:#E64F2D;}
	.st1{fill:#B9B9B9;}
	.st2{fill:#7C7C7C;}
	.st3{fill:#3C3C3C;}
	.st4{fill:#FFFFFF;}
	.st5{fill:none;}
	.st6{fill:#E6E7E8;}
	.st7{fill:#ED5C38;}
	.st8{fill:none;stroke:#FFFFFF;stroke-width:2;stroke-miterlimit:10;}
	.st9{fill:#B88337;}
	.st10{fill:#E4E4E3;}
	.st11{fill:#F15B38;}
	.st12{fill:none;stroke:#414042;stroke-width:0.6124;stroke-miterlimit:10;}
	.st13{fill:#D6D7D6;}
	.st14{fill:#CFD0D1;}
	.st15{fill:#424143;}
	.st16{fill:#E5E3E2;}
	.st17{fill:#646565;}
	.st18{fill:#DFDFDE;}
	.st19{fill:#D5D6D5;}
	.st20{fill:none;stroke:#E6E7E8;stroke-width:1.2332;stroke-linecap:round;stroke-miterlimit:10;}
	.st21{fill:none;stroke:#E64F2D;stroke-width:6.1658;stroke-miterlimit:10;}
	.st22{fill-rule:evenodd;clip-rule:evenodd;fill:#E64F2D;}
	.st23{fill:#414042;}
	.st24{fill:#828080;}
	.st25{fill:#44423D;}
	.st26{fill:#B1B3B6;}
	.st27{fill:#77787B;}
	.st28{clip-path:url(#SVGID_00000103947509859432097040000005357303817692215680_);}
	.st29{fill:none;stroke:#414042;stroke-width:1.4339;stroke-linecap:round;stroke-miterlimit:10;}
	.st30{fill:#494949;}
	.st31{fill:#F86767;}
	.st32{clip-path:url(#SVGID_00000150086218684655804050000013790949017103601583_);fill:#3C3C3C;}
	.st33{fill:none;stroke:#B1B3B6;stroke-width:2.1048;stroke-miterlimit:10;}
	.st34{fill:none;stroke:#FFFFFF;stroke-width:2.1048;stroke-miterlimit:10;}
	.st35{fill:#F15A38;}
	.st36{fill:none;stroke:#414042;stroke-width:1.0386;stroke-linecap:round;stroke-miterlimit:10;}
	.st37{fill-rule:evenodd;clip-rule:evenodd;fill:#B9B9B9;}
	.st38{fill:#E7512C;}
	.st39{fill:#E2E2E1;}
	.st40{fill:#D1D3D4;}
	.st41{fill:#646464;}
	.st42{fill:#BCBCBC;}
	.st43{fill:#E94F2D;}
	.st44{fill-rule:evenodd;clip-rule:evenodd;fill:#414042;}
	.st45{fill-rule:evenodd;clip-rule:evenodd;fill:#77787B;}
	.st46{fill:#E7E6E6;}
</style>
<g id="ICONS">
	<g>
		<path class="st3" d="M66.3,83.7c0,0,0.9-6.1,5-10s6.9-4.7,9.5-6.8c2-1.6,4.3-4.5,4.3-4.5s2.7,9.1-12.5,17.7    c-2.6,1.5-4.9,4.5-5.1,8.1L66.3,83.7z"/>
		<path class="st3" d="M64.8,85c0,0-0.1-4.8-2.9-8.1c-2.8-3.3-4.8-4.3-6.7-6.1c-1.4-1.4-2.9-3.9-2.9-3.9s-2,6.6,7.2,13.9    c1.8,1.4,3.5,3.8,3.8,7.5L64.8,85z"/>
		<path class="st3" d="M63.5,92.1c0,0-2.4-18.2,1.7-27.8l2.2,0.2c0,0-0.7,17.5,1,27.5H63.5z"/>
		<path class="st0" d="M58.7,52.5c0,0-3.4,11.9,6.9,14.8c10.3,2.9,14.7-9.9,14.7-9.9s-8.2,0.4-13.5,5.6    C66.8,62.9,66.9,60.1,58.7,52.5z"/>
		<path class="st0" d="M69.4,57.7c0,0,0.2-4.5,3.8-6.7c3.4-2,7.9-2.4,7.9-2.4s-0.7,3.3-3.3,5.3C74.9,56.1,71.8,56.1,69.4,57.7z"/>
		<path class="st0" d="M71.3,49c0,0,0.2-4.5,3.8-6.7c3.4-2,7.9-2.4,7.9-2.4s-0.7,3.3-3.3,5.3C76.8,47.3,73.7,47.3,71.3,49z"/>
		<path class="st0" d="M73.8,40c0,0,0.2-4,3.4-5.9c3-1.8,6.9-2.1,6.9-2.1s-0.7,2.9-2.9,4.6C78.6,38.5,75.9,38.5,73.8,40z"/>
		<path class="st0" d="M67.4,57.8c0,0,0.7-7.4-1.7-10.5c-2.8-3.6-5.3-5-5.3-5s-1.2,3.3,0.2,6C62.1,50.9,65,52.8,67.4,57.8z"/>
		<path class="st0" d="M69.1,48.5c0,0,1.4-6.8-0.6-9.9c-2.2-3.6-4.4-5.1-4.4-5.1s-1.4,3-0.3,5.6S67.3,43.6,69.1,48.5z"/>
		<path class="st0" d="M71.5,40.1c0,0,1.8-6.4,0.3-9.5c-1.9-3.6-3.8-5.3-3.8-5.3s-1.6,2.7-0.8,5.3C68,33.1,70.2,35.3,71.5,40.1z"/>
		<path class="st0" d="M74.6,32.9c0,0,0-2.2-0.7-4.3s-1.2-5.5,3.3-7.2c0,0,2.6,2.4,2.4,5.5C79.4,30,74.6,32.9,74.6,32.9z"/>
		<path class="st3" d="M47.1,80.3c0,0-0.9-6.1-5-10s-6.9-4.7-9.5-6.8c-2-1.6-4.3-4.5-4.3-4.5s-2.7,9.1,12.5,17.7    c2.6,1.5,4.9,4.5,5.1,8.1L47.1,80.3z"/>
		<path class="st3" d="M49.7,92.1c0,0,2.4-18.2-1.7-27.8l-2.2,0.2c0,0,0.7,17.5-1,27.5H49.7z"/>
		<path class="st2" d="M54.6,54.7c0,0,2.2,10.2-6.6,12.1c-8.9,1.9-11.9-9.2-11.9-9.2s6.9,0.8,11.1,5.5    C47.2,63.1,47.3,60.8,54.6,54.7z"/>
		<path class="st2" d="M45.3,58.6c0,0,0-3.9-2.9-5.9c-2.8-1.9-6.5-2.5-6.5-2.5s0.5,2.8,2.5,4.6C40.7,56.9,43.3,57.1,45.3,58.6z"/>
		<path class="st2" d="M44.1,51.1c0,0,0-3.9-2.9-5.9c-2.8-1.9-6.5-2.5-6.5-2.5s0.5,2.8,2.5,4.6C39.6,49.4,42.2,49.5,44.1,51.1z"/>
		<path class="st2" d="M42.5,43.3c0,0,0-3.4-2.5-5.1c-2.4-1.7-5.7-2.1-5.7-2.1s0.4,2.5,2.2,4.1C38.5,41.8,40.8,42,42.5,43.3z"/>
		<path class="st2" d="M47,58.8c0,0-0.2-6.3,2-8.8c2.6-2.9,4.7-4,4.7-4s0.8,2.9-0.5,5C51.8,53.2,49.3,54.7,47,58.8z"/>
		<path class="st2" d="M46,50.8c0,0-0.8-5.8,1-8.3c2.1-2.9,4-4.1,4-4.1s1,2.6,0,4.7S47.8,46.8,46,50.8z"/>
		<path class="st2" d="M44.5,43.6c0,0-1.2-5.5,0.3-8.1c1.8-3,3.5-4.3,3.5-4.3s1.2,2.4,0.4,4.5C47.8,37.9,45.8,39.6,44.5,43.6z"/>
		<path class="st2" d="M42.2,37.3c0,0,0.1-1.8,0.8-3.6c0.7-1.8,1.3-4.6-2.4-6.3c0,0-2.4,1.9-2.3,4.5C38.3,34.6,42.2,37.3,42.2,37.3z    "/>
	</g>
</g>
<g id="INFOS">
</g>
</svg>