<?xml version="1.0" standalone="no"?>
<!DOCTYPE svg PUBLIC "-//W3C//DTD SVG 1.1//EN" "http://www.w3.org/Graphics/SVG/1.1/DTD/svg11.dtd">
<svg xmlns="http://www.w3.org/2000/svg" xmlns:xlink="http://www.w3.org/1999/xlink" version="1.1" x="0px" y="0px" viewBox="0 0 113.4 113.4" style="enable-background:new 0 0 113.4 113.4;" xml:space="preserve" width="113.4000015258789" height="113.4000015258789">
<style type="text/css">
	.st0{fill:#E64F2D;}
	.st1{fill:#B9B9B9;}
	.st2{fill:#7C7C7C;}
	.st3{fill:#3C3C3C;}
	.st4{fill:#FFFFFF;}
	.st5{fill:none;}
	.st6{fill:#E6E7E8;}
	.st7{fill:#ED5C38;}
	.st8{fill:none;stroke:#FFFFFF;stroke-width:2;stroke-miterlimit:10;}
	.st9{fill:#B88337;}
	.st10{fill:#E4E4E3;}
	.st11{fill:#F15B38;}
	.st12{fill:none;stroke:#414042;stroke-width:0.6124;stroke-miterlimit:10;}
	.st13{fill:#D6D7D6;}
	.st14{fill:#CFD0D1;}
	.st15{fill:#424143;}
	.st16{fill:#E5E3E2;}
	.st17{fill:#646565;}
	.st18{fill:#DFDFDE;}
	.st19{fill:#D5D6D5;}
	.st20{fill:none;stroke:#E6E7E8;stroke-width:1.2332;stroke-linecap:round;stroke-miterlimit:10;}
	.st21{fill:none;stroke:#E64F2D;stroke-width:6.1658;stroke-miterlimit:10;}
	.st22{fill-rule:evenodd;clip-rule:evenodd;fill:#E64F2D;}
	.st23{fill:#414042;}
	.st24{fill:#828080;}
	.st25{fill:#44423D;}
	.st26{fill:#B1B3B6;}
	.st27{fill:#77787B;}
	.st28{clip-path:url(#SVGID_00000176755921421512185260000017583814667342272145_);}
	.st29{fill:none;stroke:#414042;stroke-width:1.4339;stroke-linecap:round;stroke-miterlimit:10;}
	.st30{fill:#494949;}
	.st31{fill:#F86767;}
	.st32{clip-path:url(#SVGID_00000060009479521598146060000016168095964221754004_);fill:#3C3C3C;}
	.st33{fill:none;stroke:#B1B3B6;stroke-width:2.1048;stroke-miterlimit:10;}
	.st34{fill:none;stroke:#FFFFFF;stroke-width:2.1048;stroke-miterlimit:10;}
	.st35{fill:#F15A38;}
	.st36{fill:none;stroke:#414042;stroke-width:1.0386;stroke-linecap:round;stroke-miterlimit:10;}
	.st37{fill-rule:evenodd;clip-rule:evenodd;fill:#B9B9B9;}
	.st38{fill:#E7512C;}
	.st39{fill:#E2E2E1;}
	.st40{fill:#D1D3D4;}
	.st41{fill:#646464;}
	.st42{fill:#BCBCBC;}
	.st43{fill:#E94F2D;}
	.st44{fill-rule:evenodd;clip-rule:evenodd;fill:#414042;}
	.st45{fill-rule:evenodd;clip-rule:evenodd;fill:#77787B;}
	.st46{fill:#E7E6E6;}
</style>
<g id="ICONS">
	<g>
		<path class="st35" d="M62.3,56.9c0,0,9.6-3.5,10.9-10.6c0.9-4.9-0.1-9.6-5.5-16.5s-5.2-14-5.2-14s-7,1.4-11.4,13.6    c0,0-3.1-1.9-2.5-6.4c0,0-5.6,2.5-7.3,11.6c-1.9,10,1.5,18,10.2,21.8c0,0-0.5-10,5.5-13.3C57.1,43.2,63.5,46.1,62.3,56.9z"/>
		<g>
			<g>
				<path class="st27" d="M71.8,59L28.1,70.7l4.8,17.9l43.7-11.8c2.2-0.6,2.9-5.1,1.6-10S74,58.4,71.8,59z"/>
				
					<ellipse transform="matrix(0.9657 -0.2598 0.2598 0.9657 -19.652 10.6597)" class="st26" cx="30.5" cy="79.7" rx="4.1" ry="9.3"/>
				<path class="st23" d="M31.7,79.4c0.6,2.4,0.6,4.5,0,4.7c-0.7,0.2-1.7-1.6-2.4-4c-0.6-2.4-0.6-4.5,0-4.7      C30,75.2,31.1,77,31.7,79.4z"/>
				<line class="st36" x1="71.4" y1="64.2" x2="62.7" y2="66.6"/>
				<line class="st36" x1="54.2" y1="72.5" x2="41" y2="76"/>
				<line class="st36" x1="48.2" y1="80.2" x2="42.6" y2="81.7"/>
				<line class="st36" x1="42.2" y1="72.1" x2="38.7" y2="73"/>
			</g>
			<g>
				<path class="st27" d="M41.6,59l43.7,11.8l-4.8,17.9L36.8,76.9c-2.2-0.6-2.9-5.1-1.6-10S39.4,58.4,41.6,59z"/>
				
					<ellipse transform="matrix(0.2598 -0.9657 0.9657 0.2598 -15.5899 139.0215)" class="st26" cx="82.9" cy="79.7" rx="9.3" ry="4.1"/>
				<path class="st23" d="M81.7,79.4c-0.6,2.4-0.6,4.5,0,4.7c0.7,0.2,1.7-1.6,2.4-4c0.6-2.4,0.6-4.5,0-4.7      C83.4,75.2,82.3,77,81.7,79.4z"/>
				<line class="st36" x1="42" y1="64.2" x2="50.7" y2="66.6"/>
				<line class="st36" x1="59.2" y1="72.5" x2="72.4" y2="76"/>
				<line class="st36" x1="65.2" y1="80.2" x2="70.8" y2="81.7"/>
				<line class="st36" x1="71.2" y1="72.1" x2="74.7" y2="73"/>
			</g>
		</g>
	</g>
</g>
<g id="INFOS">
</g>
</svg>